<?xml version="1.0" encoding="UTF-8" standalone="no"?>
<!-- Created with Inkscape (http://www.inkscape.org/) -->

<svg
   xmlns:ns0="http://www.iki.fi/pav/software/textext/"
   xmlns:dc="http://purl.org/dc/elements/1.1/"
   xmlns:cc="http://creativecommons.org/ns#"
   xmlns:rdf="http://www.w3.org/1999/02/22-rdf-syntax-ns#"
   xmlns:svg="http://www.w3.org/2000/svg"
   xmlns="http://www.w3.org/2000/svg"
   xmlns:sodipodi="http://sodipodi.sourceforge.net/DTD/sodipodi-0.dtd"
   xmlns:inkscape="http://www.inkscape.org/namespaces/inkscape"
   width="744.09448819"
   height="1052.3622047"
   id="svg2"
   version="1.1"
   inkscape:version="0.47 r22583"
   sodipodi:docname="reflection.svg">
  <sodipodi:namedview
     id="base"
     pagecolor="#ffffff"
     bordercolor="#666666"
     borderopacity="1.0"
     inkscape:pageopacity="0.0"
     inkscape:pageshadow="2"
     inkscape:zoom="2.1631897"
     inkscape:cx="165.58357"
     inkscape:cy="965.47413"
     inkscape:document-units="px"
     inkscape:current-layer="layer1"
     showgrid="true"
     inkscape:window-width="1100"
     inkscape:window-height="709"
     inkscape:window-x="26"
     inkscape:window-y="24"
     inkscape:window-maximized="0"
     showguides="true"
     inkscape:guide-bbox="true">
    <inkscape:grid
       type="xygrid"
       id="grid2996" />
    <sodipodi:guide
       orientation="0,1"
       position="200,1000"
       id="guide2998" />
    <sodipodi:guide
       orientation="0,1"
       position="200,955"
       id="guide3000" />
    <sodipodi:guide
       orientation="1,0"
       position="150,980"
       id="guide3002" />
    <sodipodi:guide
       orientation="1,0"
       position="200,955"
       id="guide3004" />
    <sodipodi:guide
       orientation="1,0"
       position="250,965"
       id="guide3006" />
  </sodipodi:namedview>
  <defs
     id="defs4">
    <marker
       inkscape:stockid="Arrow1Mend"
       orient="auto"
       refY="0.0"
       refX="0.0"
       id="Arrow1Mend"
       style="overflow:visible;">
      <path
         id="path4160"
         d="M 0.0,0.0 L 5.0,-5.0 L -12.5,0.0 L 5.0,5.0 L 0.0,0.0 z "
         style="fill-rule:evenodd;stroke:#000000;stroke-width:1.0pt;marker-start:none;"
         transform="scale(0.4) rotate(180) translate(10,0)" />
    </marker>
    <inkscape:perspective
       id="perspective10"
       inkscape:persp3d-origin="372.04724 : 350.78739 : 1"
       inkscape:vp_z="744.09448 : 526.18109 : 1"
       inkscape:vp_y="0 : 1000 : 0"
       inkscape:vp_x="0 : 526.18109 : 1"
       sodipodi:type="inkscape:persp3d" />
  </defs>
  <metadata
     id="metadata7">
    <rdf:RDF>
      <cc:Work
         rdf:about="">
        <dc:format>image/svg+xml</dc:format>
        <dc:type
           rdf:resource="http://purl.org/dc/dcmitype/StillImage" />
        <dc:title></dc:title>
      </cc:Work>
    </rdf:RDF>
  </metadata>
  <g
     id="layer1"
     inkscape:groupmode="layer"
     inkscape:label="Layer 1">
    <g
       ns0:text="$\\bf N\\bf L$"
       ns0:preamble=""
       transform="translate(-2.5425417,-10.863587)"
       id="g2870">
      <defs
         id="defs2872">
        <g
           id="g2874">
          <symbol
             overflow="visible"
             id="textext-e42563eb-0"
             style="overflow:visible">
            <path
               style="stroke:none"
               d=""
               id="path2877" />
          </symbol>
          <symbol
             overflow="visible"
             id="textext-e42563eb-1"
             style="overflow:visible">
            <path
               style="stroke:none"
               d="M 3,-6.703125 C 2.890625,-6.828125 2.875,-6.84375 2.671875,-6.84375 l -2.28125,0 0,0.46875 1.078125,0 0,5.625 c 0,0.21875 -0.015625,0.21875 -0.296875,0.25 -0.234375,0.03125 -0.25,0.03125 -0.53125,0.03125 l -0.25,0 0,0.46875 c 0.375,-0.03125 0.9375,-0.03125 1.328125,-0.03125 0.421875,0 0.9375,0 1.359375,0.03125 l 0,-0.46875 -0.25,0 C 2.640625,-0.46875 2.46875,-0.484375 2.296875,-0.5 2,-0.53125 2,-0.53125 2,-0.75 L 2,-5.96875 6.953125,-0.125 C 7.0625,-0.015625 7.0625,0 7.234375,0 7.5,0 7.5,-0.09375 7.5,-0.3125 l 0,-5.765625 C 7.5,-6.296875 7.5,-6.3125 7.78125,-6.34375 8.03125,-6.375 8.046875,-6.375 8.328125,-6.375 l 0.25,0 0,-0.46875 C 8.1875,-6.8125 7.625,-6.8125 7.234375,-6.8125 c -0.421875,0 -0.9375,0 -1.34375,-0.03125 l 0,0.46875 0.25,0 c 0.171875,0 0.34375,0.015625 0.53125,0.03125 0.28125,0.03125 0.296875,0.046875 0.296875,0.265625 l 0,4.03125 L 3,-6.703125 z m 0,0"
               id="path2880" />
          </symbol>
          <symbol
             overflow="visible"
             id="textext-e42563eb-2"
             style="overflow:visible">
            <path
               style="stroke:none"
               d="m 6.40625,-2.734375 -0.46875,0 c -0.078125,0.6875 -0.25,2.265625 -2.03125,2.265625 l -1.03125,0 0,-5.90625 1.359375,0 0,-0.46875 C 3.78125,-6.8125 2.703125,-6.8125 2.21875,-6.8125 c -0.4375,0 -1.453125,0 -1.828125,-0.03125 l 0,0.46875 1.078125,0 0,5.90625 -1.078125,0 0,0.46875 5.703125,0 0.3125,-2.734375 z m 0,0"
               id="path2883" />
          </symbol>
        </g>
      </defs>
    </g>
    <path
       style="fill:none;stroke:#000000;stroke-width:1px;stroke-linecap:butt;stroke-linejoin:miter;stroke-opacity:1"
       d="m 140,97.362183 c 125,0 125,0 125,0"
       id="path4983" />
    <path
       style="fill:none;stroke:#000000;stroke-width:1px;stroke-linecap:butt;stroke-linejoin:miter;stroke-opacity:1;marker-end:url(#Arrow1Mend)"
       d="m 150,52.362183 50,45"
       id="path4985" />
    <path
       style="fill:none;stroke:#000000;stroke-width:1px;stroke-linecap:butt;stroke-linejoin:miter;stroke-opacity:1;marker-end:url(#Arrow1Mend)"
       d="m 200,97.362183 0,-65"
       id="path4987" />
    <path
       style="fill:none;stroke:#000000;stroke-width:1px;stroke-linecap:butt;stroke-linejoin:miter;stroke-opacity:1;marker-end:url(#Arrow1Mend)"
       d="m 200,97.362183 50,-45"
       id="path4991" />
    <text
       xml:space="preserve"
       style="font-size:14px;font-style:normal;font-variant:normal;font-weight:normal;font-stretch:normal;fill:#000000;fill-opacity:1;stroke:none;font-family:Gentium;-inkscape-font-specification:Gentium"
       x="195"
       y="27.362183"
       id="text5545"><tspan
         sodipodi:role="line"
         id="tspan5547"
         x="195"
         y="27.362183">N</tspan></text>
    <text
       xml:space="preserve"
       style="font-size:14px;font-style:normal;font-variant:normal;font-weight:normal;font-stretch:normal;fill:#000000;fill-opacity:1;stroke:none;font-family:Gentium;-inkscape-font-specification:Gentium"
       x="175"
       y="92.362183"
       id="text5549"><tspan
         sodipodi:role="line"
         id="tspan5551"
         x="175"
         y="92.362183">L</tspan></text>
    <text
       xml:space="preserve"
       style="font-size:14px;font-style:normal;font-variant:normal;font-weight:normal;font-stretch:normal;fill:#000000;fill-opacity:1;stroke:none;font-family:Gentium;-inkscape-font-specification:Gentium"
       x="225"
       y="92.362183"
       id="text5594"><tspan
         sodipodi:role="line"
         id="tspan5596"
         x="225"
         y="92.362183">R=2(NL)N-L</tspan></text>
    <text
       xml:space="preserve"
       style="font-size:14px;font-style:normal;font-variant:normal;font-weight:normal;font-stretch:normal;fill:#000000;fill-opacity:1;stroke:none;font-family:Gentium;-inkscape-font-specification:Gentium"
       x="226.51735"
       y="137.04718"
       id="text5598"><tspan
         sodipodi:role="line"
         id="tspan5600"></tspan></text>
  </g>
</svg>
