<?xml version="1.0" encoding="UTF-8" standalone="no"?>
<!-- Created with Inkscape (http://www.inkscape.org/) -->

<svg
   xmlns:dc="http://purl.org/dc/elements/1.1/"
   xmlns:cc="http://creativecommons.org/ns#"
   xmlns:rdf="http://www.w3.org/1999/02/22-rdf-syntax-ns#"
   xmlns:svg="http://www.w3.org/2000/svg"
   xmlns="http://www.w3.org/2000/svg"
   xmlns:sodipodi="http://sodipodi.sourceforge.net/DTD/sodipodi-0.dtd"
   xmlns:inkscape="http://www.inkscape.org/namespaces/inkscape"
   width="456"
   height="270.17578"
   id="svg2"
   sodipodi:version="0.32"
   inkscape:version="0.48.2 r9819"
   sodipodi:docname="wollaston.svg"
   inkscape:output_extension="org.inkscape.output.svg.inkscape"
   version="1.1">
  <defs
     id="defs4">
    <marker
       inkscape:stockid="Arrow1Mend"
       orient="auto"
       refY="0"
       refX="0"
       id="Arrow1Mend"
       style="overflow:visible">
      <path
         id="path3535"
         d="M 0,0 5,-5 -12.5,0 5,5 0,0 z"
         style="fill-rule:evenodd;stroke:#000000;stroke-width:1pt;marker-start:none"
         transform="matrix(-0.4,0,0,-0.4,-4,0)"
         inkscape:connector-curvature="0" />
    </marker>
    <marker
       inkscape:stockid="Arrow1Mstart"
       orient="auto"
       refY="0"
       refX="0"
       id="Arrow1Mstart"
       style="overflow:visible">
      <path
         id="path3532"
         d="M 0,0 5,-5 -12.5,0 5,5 0,0 z"
         style="fill-rule:evenodd;stroke:#000000;stroke-width:1pt;marker-start:none"
         transform="matrix(0.4,0,0,0.4,4,0)"
         inkscape:connector-curvature="0" />
    </marker>
    <inkscape:perspective
       sodipodi:type="inkscape:persp3d"
       inkscape:vp_x="0 : 526.18109 : 1"
       inkscape:vp_y="0 : 1000 : 0"
       inkscape:vp_z="744.09448 : 526.18109 : 1"
       inkscape:persp3d-origin="372.04724 : 350.78739 : 1"
       id="perspective10" />
  </defs>
  <sodipodi:namedview
     id="base"
     pagecolor="#ffffff"
     bordercolor="#666666"
     borderopacity="1.0"
     gridtolerance="10000"
     guidetolerance="10"
     objecttolerance="10"
     inkscape:pageopacity="0.0"
     inkscape:pageshadow="2"
     inkscape:zoom="0.7"
     inkscape:cx="170.21106"
     inkscape:cy="144.60981"
     inkscape:document-units="px"
     inkscape:current-layer="layer1"
     showgrid="true"
     inkscape:snap-global="true"
     inkscape:window-width="681"
     inkscape:window-height="751"
     inkscape:window-x="0"
     inkscape:window-y="15"
     inkscape:window-maximized="0"
     fit-margin-top="0"
     fit-margin-left="0"
     fit-margin-right="0"
     fit-margin-bottom="0">
    <inkscape:grid
       type="xygrid"
       id="grid2383"
       empspacing="5"
       visible="true"
       enabled="true"
       snapvisiblegridlinesonly="true" />
  </sodipodi:namedview>
  <metadata
     id="metadata7">
    <rdf:RDF>
      <cc:Work
         rdf:about="">
        <dc:format>image/svg+xml</dc:format>
        <dc:type
           rdf:resource="http://purl.org/dc/dcmitype/StillImage" />
      </cc:Work>
    </rdf:RDF>
  </metadata>
  <g
     inkscape:label="Layer 1"
     inkscape:groupmode="layer"
     id="layer1"
     transform="translate(-44.5,-284.76453)">
    <g
       id="g2717"
       transform="translate(-158.5,-10.499997)">
      <path
         id="path3996"
         d="m 267.91422,337.44797 0,-25"
         style="fill:none;stroke:#000000;stroke-width:1px;stroke-linecap:butt;stroke-linejoin:miter;stroke-opacity:1"
         inkscape:connector-curvature="0" />
      <path
         id="path3992"
         d="m 267.91422,337.44797 80,0"
         style="fill:none;stroke:#000000;stroke-width:1px;stroke-linecap:butt;stroke-linejoin:miter;stroke-opacity:1"
         inkscape:connector-curvature="0" />
      <path
         transform="matrix(0,-1,1,0,115.55203,397.44797)"
         d="m 62.828427,152.36218 c 0,1.5621 -1.26633,2.82843 -2.828427,2.82843 -1.562097,0 -2.828427,-1.26633 -2.828427,-2.82843 0,-1.56209 1.26633,-2.82842 2.828427,-2.82842 1.562097,0 2.828427,1.26633 2.828427,2.82842 z"
         sodipodi:ry="2.8284271"
         sodipodi:rx="2.8284271"
         sodipodi:cy="152.36218"
         sodipodi:cx="60"
         id="path4000"
         style="fill:#ffffff;fill-opacity:1;stroke:#000000;stroke-width:1;stroke-miterlimit:4;stroke-opacity:1;stroke-dasharray:none;stroke-dashoffset:0"
         sodipodi:type="arc" />
      <path
         id="path3994"
         d="m 337.91422,339.44797 10,-2 -10,-2"
         style="fill:none;stroke:#000000;stroke-width:1px;stroke-linecap:butt;stroke-linejoin:miter;stroke-opacity:1"
         inkscape:connector-curvature="0" />
      <path
         id="path3998"
         d="m 265.91422,322.44797 2,-10 2,10"
         style="fill:none;stroke:#000000;stroke-width:1px;stroke-linecap:butt;stroke-linejoin:miter;stroke-opacity:1"
         inkscape:connector-curvature="0" />
      <text
         id="text4004"
         y="312.36218"
         x="250"
         style="font-size:16px;font-style:normal;font-weight:normal;fill:#000000;fill-opacity:1;stroke:none;font-family:Bitstream Vera Sans"
         xml:space="preserve"><tspan
           y="312.36218"
           x="250"
           id="tspan4006"
           sodipodi:role="line">x</tspan></text>
      <text
         id="text4008"
         y="352.36218"
         x="250"
         style="font-size:16px;font-style:normal;font-weight:normal;fill:#000000;fill-opacity:1;stroke:none;font-family:Bitstream Vera Sans"
         xml:space="preserve"><tspan
           y="352.36218"
           x="250"
           id="tspan4010"
           sodipodi:role="line">y</tspan></text>
      <text
         id="text4012"
         y="352.36218"
         x="340"
         style="font-size:16px;font-style:normal;font-weight:normal;fill:#000000;fill-opacity:1;stroke:none;font-family:Bitstream Vera Sans"
         xml:space="preserve"><tspan
           y="352.36218"
           x="340"
           id="tspan4014"
           sodipodi:role="line">z</tspan></text>
      <path
         transform="matrix(0,-1,-1,0,960.86218,459.36218)"
         d="m 122,692.86218 c 0,0.27614 -0.22386,0.5 -0.5,0.5 -0.27614,0 -0.5,-0.22386 -0.5,-0.5 0,-0.27614 0.22386,-0.5 0.5,-0.5 0.27614,0 0.5,0.22386 0.5,0.5 z"
         sodipodi:ry="0.5"
         sodipodi:rx="0.5"
         sodipodi:cy="692.86218"
         sodipodi:cx="121.5"
         id="path3411"
         style="fill:#000000;fill-opacity:1;stroke:none"
         sodipodi:type="arc" />
    </g>
    <path
       style="fill:none;stroke:#000000;stroke-width:1px;stroke-linecap:butt;stroke-linejoin:miter;stroke-opacity:1"
       d="m 75,297.36218 c 0,5 0,235 0,235"
       id="path2731"
       inkscape:connector-curvature="0" />
    <path
       style="fill:none;stroke:#000000;stroke-width:1px;stroke-linecap:butt;stroke-linejoin:miter;stroke-opacity:1"
       d="m 265,292.36218 -50,240"
       id="path2733"
       inkscape:connector-curvature="0" />
    <path
       style="fill:none;stroke:#000000;stroke-width:1px;stroke-linecap:butt;stroke-linejoin:miter;stroke-opacity:1"
       d="m 75,532.36218 330,0 0,-240"
       id="path2735"
       inkscape:connector-curvature="0" />
    <path
       style="fill:none;stroke:#000000;stroke-width:1px;stroke-linecap:butt;stroke-linejoin:miter;stroke-opacity:1"
       d="m 45,412.36218 195,0 165,-5 95,-10 0,0"
       id="path2737"
       inkscape:connector-curvature="0" />
    <path
       style="fill:none;stroke:#d86325;stroke-width:1px;stroke-linecap:butt;stroke-linejoin:miter;stroke-opacity:1"
       d="m 240,412.36218 165,-15 95,-15"
       id="path2739"
       inkscape:connector-curvature="0" />
    <path
       style="fill:none;stroke:#000000;stroke-width:1px;stroke-linecap:butt;stroke-linejoin:miter;stroke-opacity:0.68584074"
       d="m 245,292.36218 0,95"
       id="path2741"
       inkscape:connector-curvature="0" />
    <g
       id="g3516"
       transform="translate(-23.198,17.604205)">
      <g
         transform="translate(119.198,22.395796)"
         id="g4034">
        <path
           sodipodi:type="arc"
           style="fill:none;stroke:#000000;stroke-width:1.70000005;stroke-miterlimit:4;stroke-opacity:1;stroke-dasharray:none;stroke-dashoffset:0"
           id="path4028"
           sodipodi:cx="0"
           sodipodi:cy="472.36218"
           sodipodi:rx="10"
           sodipodi:ry="10"
           d="m 10,472.36218 c 0,5.52285 -4.4771525,10 -10,10 -5.5228475,0 -10,-4.47715 -10,-10 0,-5.52284 4.4771525,-10 10,-10 5.5228475,0 10,4.47716 10,10 z"
           transform="matrix(0.5,0,0,0.5,0,236.18109)" />
        <path
           sodipodi:type="arc"
           style="fill:#000000;fill-opacity:1;stroke:none"
           id="path4032"
           sodipodi:cx="0"
           sodipodi:cy="472.36218"
           sodipodi:rx="2"
           sodipodi:ry="2"
           d="m 2,472.36218 c 0,1.10457 -0.8954305,2 -2,2 -1.1045695,0 -2,-0.89543 -2,-2 0,-1.10457 0.8954305,-2 2,-2 1.1045695,0 2,0.89543 2,2 z"
           transform="matrix(0.5,0,0,0.5,0,236.18109)" />
      </g>
    </g>
    <path
       style="fill:none;stroke:#000000;stroke-width:1;stroke-linecap:butt;stroke-linejoin:miter;stroke-miterlimit:4;stroke-opacity:1;stroke-dasharray:none;marker-start:url(#Arrow1Mstart);marker-mid:none;marker-end:url(#Arrow1Mend)"
       d="m 380,522.36218 0,-35"
       id="path3521"
       inkscape:connector-curvature="0" />
    <text
       xml:space="preserve"
       style="font-size:8px;font-style:normal;font-weight:normal;fill:#000000;fill-opacity:1;stroke:none;font-family:Bitstream Vera Sans"
       x="110.6117"
       y="516.47626"
       id="text5854"><tspan
         sodipodi:role="line"
         id="tspan5856"
         x="110.6117"
         y="516.47626">o. A.</tspan></text>
    <text
       xml:space="preserve"
       style="font-size:8px;font-style:normal;font-weight:normal;fill:#000000;fill-opacity:1;stroke:none;font-family:Bitstream Vera Sans"
       x="359.61432"
       y="506.37473"
       id="text5858"><tspan
         sodipodi:role="line"
         id="tspan5860"
         x="359.61432"
         y="506.37473">o. A.</tspan></text>
    <g
       id="g5862"
       transform="translate(50.802,-82.395795)">
      <g
         transform="translate(119.198,22.395796)"
         id="g5864">
        <path
           sodipodi:type="arc"
           style="fill:none;stroke:#000000;stroke-width:1.70000005;stroke-miterlimit:4;stroke-opacity:1;stroke-dasharray:none;stroke-dashoffset:0"
           id="path5866"
           sodipodi:cx="0"
           sodipodi:cy="472.36218"
           sodipodi:rx="10"
           sodipodi:ry="10"
           d="m 10,472.36218 c 0,5.52285 -4.4771525,10 -10,10 -5.5228475,0 -10,-4.47715 -10,-10 0,-5.52284 4.4771525,-10 10,-10 5.5228475,0 10,4.47716 10,10 z"
           transform="matrix(0.5,0,0,0.5,0,236.18109)" />
        <path
           sodipodi:type="arc"
           style="fill:#000000;fill-opacity:1;stroke:none"
           id="path5868"
           sodipodi:cx="0"
           sodipodi:cy="472.36218"
           sodipodi:rx="2"
           sodipodi:ry="2"
           d="m 2,472.36218 c 0,1.10457 -0.8954305,2 -2,2 -1.1045695,0 -2,-0.89543 -2,-2 0,-1.10457 0.8954305,-2 2,-2 1.1045695,0 2,0.89543 2,2 z"
           transform="matrix(0.5,0,0,0.5,0,236.18109)" />
      </g>
    </g>
    <path
       style="fill:none;stroke:#000000;stroke-width:1px;stroke-linecap:butt;stroke-linejoin:miter;stroke-opacity:1;marker-end:url(#Arrow1Mend)"
       d="m 110,412.36218 0,-25"
       id="path5870"
       inkscape:connector-curvature="0" />
    <path
       style="fill:none;stroke:#000000;stroke-width:1px;stroke-linecap:butt;stroke-linejoin:miter;stroke-opacity:1;marker-start:url(#Arrow1Mstart)"
       d="m 390,382.36218 1.46447,26.01015"
       id="path6393"
       sodipodi:nodetypes="cc"
       inkscape:connector-curvature="0" />
    <g
       id="g7437"
       transform="translate(240.802,-93.395795)">
      <g
         transform="translate(119.198,22.395796)"
         id="g7439">
        <path
           sodipodi:type="arc"
           style="fill:none;stroke:#000000;stroke-width:1.70000005;stroke-miterlimit:4;stroke-opacity:1;stroke-dasharray:none;stroke-dashoffset:0"
           id="path7441"
           sodipodi:cx="0"
           sodipodi:cy="472.36218"
           sodipodi:rx="10"
           sodipodi:ry="10"
           d="m 10,472.36218 c 0,5.52285 -4.4771525,10 -10,10 -5.5228475,0 -10,-4.47715 -10,-10 0,-5.52284 4.4771525,-10 10,-10 5.5228475,0 10,4.47716 10,10 z"
           transform="matrix(0.5,0,0,0.5,0,236.18109)" />
        <path
           sodipodi:type="arc"
           style="fill:#000000;fill-opacity:1;stroke:none"
           id="path7443"
           sodipodi:cx="0"
           sodipodi:cy="472.36218"
           sodipodi:rx="2"
           sodipodi:ry="2"
           d="m 2,472.36218 c 0,1.10457 -0.8954305,2 -2,2 -1.1045695,0 -2,-0.89543 -2,-2 0,-1.10457 0.8954305,-2 2,-2 1.1045695,0 2,0.89543 2,2 z"
           transform="matrix(0.5,0,0,0.5,0,236.18109)" />
      </g>
    </g>
    <path
       sodipodi:type="arc"
       style="fill:none;stroke:#000000;stroke-width:1;stroke-linejoin:miter;stroke-miterlimit:4;stroke-opacity:1;stroke-dasharray:none;stroke-dashoffset:0"
       id="path7445"
       sodipodi:cx="245"
       sodipodi:cy="387.36218"
       sodipodi:rx="50"
       sodipodi:ry="50"
       d="m 246.13437,337.37505 c 3.23055,0.0733 6.44639,0.45963 9.6024,1.15352"
       sodipodi:start="4.7350783"
       sodipodi:end="4.9288098"
       sodipodi:open="true" />
    <text
       xml:space="preserve"
       style="font-size:8px;font-style:normal;font-weight:normal;fill:#000000;fill-opacity:1;stroke:none;font-family:Bitstream Vera Sans"
       x="144.28571"
       y="546.64789"
       id="text7455"><tspan
         sodipodi:role="line"
         id="tspan7457"
         x="144.28571"
         y="546.64789" /></text>
    <text
       xml:space="preserve"
       style="font-size:20px;font-style:normal;font-weight:normal;fill:#000000;fill-opacity:1;stroke:none;font-family:Bitstream Vera Sans"
       x="150"
       y="552.36218"
       id="text7467"><tspan
         sodipodi:role="line"
         id="tspan7469"
         x="150"
         y="552.36218">Q2</tspan></text>
    <text
       xml:space="preserve"
       style="font-size:20px;font-style:normal;font-weight:normal;fill:#000000;fill-opacity:1;stroke:none;font-family:Bitstream Vera Sans"
       x="310"
       y="552.36218"
       id="text7471"><tspan
         sodipodi:role="line"
         id="tspan7473"
         x="310"
         y="552.36218">Q1</tspan></text>
    <text
       xml:space="preserve"
       style="font-size:20px;font-style:normal;font-weight:normal;fill:#000000;fill-opacity:1;stroke:none;font-family:Bitstream Vera Sans"
       x="170"
       y="432.36218"
       id="text7475"><tspan
         sodipodi:role="line"
         id="tspan7477"
         x="170"
         y="432.36218">e</tspan></text>
    <text
       xml:space="preserve"
       style="font-size:20px;font-style:normal;font-weight:normal;fill:#000000;fill-opacity:1;stroke:none;font-family:Bitstream Vera Sans"
       x="110"
       y="432.36218"
       id="text7479"><tspan
         sodipodi:role="line"
         id="tspan7481"
         x="110"
         y="432.36218">o</tspan></text>
    <text
       xml:space="preserve"
       style="font-size:10px;font-style:normal;font-weight:normal;line-height:125%;letter-spacing:0px;word-spacing:0px;fill:#000000;fill-opacity:1;stroke:none;font-family:Sans;-inkscape-font-specification:Sans"
       x="250"
       y="292.36218"
       id="text3039"
       sodipodi:linespacing="125%"><tspan
         sodipodi:role="line"
         id="tspan3041"
         x="250"
         y="292.36218">$\alpha$</tspan></text>
    <text
       xml:space="preserve"
       style="font-size:10px;font-style:normal;font-weight:normal;line-height:125%;letter-spacing:0px;word-spacing:0px;fill:#000000;fill-opacity:1;stroke:none;font-family:Sans;-inkscape-font-specification:Sans"
       x="262.14285"
       y="245.21933"
       id="text3043"
       sodipodi:linespacing="125%"><tspan
         sodipodi:role="line"
         id="tspan3045"
         x="262.14285"
         y="245.21933"></tspan></text>
  </g>
</svg>
