<?xml version="1.0" encoding="UTF-8" standalone="no"?>
<!-- Created with Inkscape (http://www.inkscape.org/) -->

<svg
   xmlns:dc="http://purl.org/dc/elements/1.1/"
   xmlns:cc="http://creativecommons.org/ns#"
   xmlns:rdf="http://www.w3.org/1999/02/22-rdf-syntax-ns#"
   xmlns:svg="http://www.w3.org/2000/svg"
   xmlns="http://www.w3.org/2000/svg"
   xmlns:sodipodi="http://sodipodi.sourceforge.net/DTD/sodipodi-0.dtd"
   xmlns:inkscape="http://www.inkscape.org/namespaces/inkscape"
   id="svg2"
   version="1.1"
   inkscape:version="0.48.2 r9819"
   width="294.19458"
   height="255.54095"
   sodipodi:docname="flu-potential_my.svg">
  <metadata
     id="metadata8">
    <rdf:RDF>
      <cc:Work
         rdf:about="">
        <dc:format>image/svg+xml</dc:format>
        <dc:type
           rdf:resource="http://purl.org/dc/dcmitype/StillImage" />
        <dc:title />
      </cc:Work>
    </rdf:RDF>
  </metadata>
  <defs
     id="defs6">
    <marker
       inkscape:stockid="Arrow1Mend"
       orient="auto"
       refY="0"
       refX="0"
       id="Arrow1Mend"
       style="overflow:visible">
      <path
         id="path3771"
         d="M 0,0 5,-5 -12.5,0 5,5 0,0 z"
         style="fill-rule:evenodd;stroke:#000000;stroke-width:1pt;marker-start:none"
         transform="matrix(-0.4,0,0,-0.4,-4,0)"
         inkscape:connector-curvature="0" />
    </marker>
    <marker
       inkscape:stockid="Arrow1Mstart"
       orient="auto"
       refY="0"
       refX="0"
       id="Arrow1Mstart"
       style="overflow:visible">
      <path
         id="path3768"
         d="M 0,0 5,-5 -12.5,0 5,5 0,0 z"
         style="fill-rule:evenodd;stroke:#000000;stroke-width:1pt;marker-start:none"
         transform="matrix(0.4,0,0,0.4,4,0)"
         inkscape:connector-curvature="0" />
    </marker>
  </defs>
  <sodipodi:namedview
     pagecolor="#ffffff"
     bordercolor="#666666"
     borderopacity="1"
     objecttolerance="10"
     gridtolerance="10"
     guidetolerance="10"
     inkscape:pageopacity="0"
     inkscape:pageshadow="2"
     inkscape:window-width="1364"
     inkscape:window-height="751"
     id="namedview4"
     showgrid="false"
     inkscape:zoom="1.9070707"
     inkscape:cx="151.09089"
     inkscape:cy="128.68795"
     inkscape:window-x="0"
     inkscape:window-y="15"
     inkscape:window-maximized="0"
     inkscape:current-layer="svg2"
     fit-margin-top="0"
     fit-margin-left="-0.6"
     fit-margin-right="0"
     fit-margin-bottom="0"
     units="mm">
    <inkscape:grid
       type="xygrid"
       id="grid2987"
       empspacing="5"
       visible="true"
       enabled="true"
       snapvisiblegridlinesonly="true" />
  </sodipodi:namedview>
  <path
     style="fill:none;stroke:#000000;stroke-width:1.5;stroke-linecap:butt;stroke-linejoin:miter;stroke-miterlimit:4;stroke-opacity:1;stroke-dasharray:none;marker-start:url(#Arrow1Mstart);marker-mid:none;marker-end:url(#Arrow1Mend)"
     d="m 25.9491,17.373216 0,225.100944 167.59381,-0.96859"
     id="path2989"
     inkscape:connector-curvature="0" />
  <text
     xml:space="preserve"
     style="font-size:11px;font-style:normal;font-weight:normal;line-height:125%;letter-spacing:0px;word-spacing:0px;fill:#000000;fill-opacity:1;stroke:none;font-family:Sans;-inkscape-font-specification:Sans"
     x="0.1470874"
     y="8.3574219"
     id="text4571"
     sodipodi:linespacing="125%"
     transform="scale(1.0000813,0.9999187)"><tspan
       sodipodi:role="line"
       id="tspan4573"
       x="0.1470874"
       y="8.3574219">Energy$/\unit[10^3]{cm^{-1}}$</tspan></text>
  <text
     xml:space="preserve"
     style="font-size:11px;font-style:normal;font-weight:normal;line-height:125%;letter-spacing:0px;word-spacing:0px;fill:#000000;fill-opacity:1;stroke:none;font-family:Sans;-inkscape-font-specification:Sans"
     x="200.96597"
     y="243.69052"
     id="text4575"
     sodipodi:linespacing="125%"
     transform="scale(1.0000813,0.9999187)"><tspan
       sodipodi:role="line"
       id="tspan4577"
       x="200.96597"
       y="243.69052">$R/a_H$</tspan></text>
  <path
     style="fill:none;stroke:#000000;stroke-width:2;stroke-linecap:butt;stroke-linejoin:miter;stroke-opacity:1"
     d="m 40.997888,183.01555 c 5.083161,33.03702 -0.775315,59.60484 18.19776,48.05634 18.973079,-11.54846 14.370864,-38.09261 43.190532,-41.56728 28.81968,-3.47468 48.33669,-6.41054 91.09492,-5.39325"
     id="path4579"
     inkscape:connector-curvature="0"
     sodipodi:nodetypes="czzc" />
  <path
     style="fill:none;stroke:#000000;stroke-width:2;stroke-linecap:butt;stroke-linejoin:miter;stroke-opacity:1"
     d="m 48.121989,114.52569 c 11.267617,39.8614 24.209451,59.0348 47.831503,66.32703 23.622058,7.29218 57.924328,2.70321 97.664618,2.71073"
     id="path4581"
     inkscape:connector-curvature="0"
     sodipodi:nodetypes="csc" />
  <path
     style="fill:none;stroke:#000000;stroke-width:2;stroke-linecap:butt;stroke-linejoin:miter;stroke-opacity:1"
     d="M 42.641914,68.500466 C 53.413364,117.09144 70.736508,108.7593 89.292763,100.04441 112.83347,88.988576 117.21607,81.477436 132.76881,79.608596 c 15.55275,-1.86889 46.97056,-1.86351 61.1233,-2.06743"
     id="path4583"
     inkscape:connector-curvature="0"
     sodipodi:nodetypes="cssc" />
  <path
     style="fill:none;stroke:#000000;stroke-width:2;stroke-linecap:butt;stroke-linejoin:miter;stroke-opacity:1"
     d="m 50.588025,68.226536 c 12.64503,29.32553 24.792543,21.28936 38.665197,9.59744 10.432469,-8.79248 7.161071,-10.29534 20.892728,-4.57837 21.19731,8.82529 72.05532,3.51934 84.02016,4.29556"
     id="path4585"
     inkscape:connector-curvature="0"
     sodipodi:nodetypes="cssc" />
  <path
     style="fill:none;stroke:#000000;stroke-width:2;stroke-linecap:butt;stroke-linejoin:miter;stroke-opacity:1"
     d="m 41.27189,19.461746 c 7.126175,52.62238 26.415066,52.68533 30.269645,51.36523 17.710475,-6.06549 32.263355,-13.52988 49.821025,-19.43242 23.15795,-7.78518 53.79971,-6.7411 72.25555,-7.00248"
     id="path4587"
     inkscape:connector-curvature="0"
     sodipodi:nodetypes="cssc" />
  <path
     style="fill:none;stroke:#000000;stroke-width:1px;stroke-linecap:butt;stroke-linejoin:miter;stroke-opacity:1"
     d="m 44.42294,241.71131 0,-3.69844"
     id="path4591"
     inkscape:connector-curvature="0" />
  <path
     style="fill:none;stroke:#000000;stroke-width:1px;stroke-linecap:butt;stroke-linejoin:miter;stroke-opacity:1"
     d="m 63.035637,241.71131 0,-3.69844"
     id="path4591-3"
     inkscape:connector-curvature="0" />
  <path
     style="fill:none;stroke:#000000;stroke-width:1px;stroke-linecap:butt;stroke-linejoin:miter;stroke-opacity:1"
     d="m 81.648333,241.71131 0,-3.69844"
     id="path4591-2"
     inkscape:connector-curvature="0" />
  <path
     style="fill:none;stroke:#000000;stroke-width:1px;stroke-linecap:butt;stroke-linejoin:miter;stroke-opacity:1"
     d="m 100.26104,241.71131 0,-3.69844"
     id="path4591-30"
     inkscape:connector-curvature="0" />
  <path
     style="fill:none;stroke:#000000;stroke-width:1px;stroke-linecap:butt;stroke-linejoin:miter;stroke-opacity:1"
     d="m 118.87373,241.71131 0,-3.69844"
     id="path4591-9"
     inkscape:connector-curvature="0" />
  <path
     style="fill:none;stroke:#000000;stroke-width:1px;stroke-linecap:butt;stroke-linejoin:miter;stroke-opacity:1"
     d="m 137.48643,241.71131 0,-3.69844"
     id="path4591-97"
     inkscape:connector-curvature="0" />
  <path
     style="fill:none;stroke:#000000;stroke-width:1px;stroke-linecap:butt;stroke-linejoin:miter;stroke-opacity:1"
     d="m 156.09913,241.71131 0,-3.69844"
     id="path4591-22"
     inkscape:connector-curvature="0" />
  <path
     style="fill:none;stroke:#000000;stroke-width:1px;stroke-linecap:butt;stroke-linejoin:miter;stroke-opacity:1"
     d="m 174.71182,241.71131 0,-3.69844"
     id="path4591-4"
     inkscape:connector-curvature="0" />
  <text
     xml:space="preserve"
     style="font-size:11px;font-style:normal;font-weight:normal;line-height:125%;letter-spacing:0px;word-spacing:0px;fill:#000000;fill-opacity:1;stroke:none;font-family:Sans;-inkscape-font-specification:Sans"
     x="23.172216"
     y="255.40598"
     id="text4653"
     sodipodi:linespacing="125%"
     transform="scale(1.0000813,0.9999187)"><tspan
       sodipodi:role="line"
       id="tspan4655"
       x="23.172216"
       y="255.40598">0</tspan></text>
  <text
     xml:space="preserve"
     style="font-size:11px;font-style:normal;font-weight:normal;line-height:125%;letter-spacing:0px;word-spacing:0px;fill:#000000;fill-opacity:1;stroke:none;font-family:Sans;-inkscape-font-specification:Sans"
     x="41.445503"
     y="255.47998"
     id="text4657"
     sodipodi:linespacing="125%"
     transform="scale(1.0000813,0.9999187)"><tspan
       sodipodi:role="line"
       id="tspan4659"
       x="41.445503"
       y="255.47998">1</tspan></text>
  <text
     xml:space="preserve"
     style="font-size:11px;font-style:normal;font-weight:normal;line-height:125%;letter-spacing:0px;word-spacing:0px;fill:#000000;fill-opacity:1;stroke:none;font-family:Sans;-inkscape-font-specification:Sans"
     x="60.139751"
     y="255.47998"
     id="text4661"
     sodipodi:linespacing="125%"
     transform="scale(1.0000813,0.9999187)"><tspan
       sodipodi:role="line"
       id="tspan4663"
       x="60.139751"
       y="255.47998">2</tspan></text>
  <text
     xml:space="preserve"
     style="font-size:11px;font-style:normal;font-weight:normal;line-height:125%;letter-spacing:0px;word-spacing:0px;fill:#000000;fill-opacity:1;stroke:none;font-family:Sans;-inkscape-font-specification:Sans"
     x="78.627342"
     y="255.40598"
     id="text4665"
     sodipodi:linespacing="125%"
     transform="scale(1.0000813,0.9999187)"><tspan
       sodipodi:role="line"
       id="tspan4667"
       x="78.627342"
       y="255.40598">3</tspan></text>
  <text
     xml:space="preserve"
     style="font-size:11px;font-style:normal;font-weight:normal;line-height:125%;letter-spacing:0px;word-spacing:0px;fill:#000000;fill-opacity:1;stroke:none;font-family:Sans;-inkscape-font-specification:Sans"
     x="97.273117"
     y="255.47998"
     id="text4669"
     sodipodi:linespacing="125%"
     transform="scale(1.0000813,0.9999187)"><tspan
       sodipodi:role="line"
       id="tspan4671"
       x="97.273117"
       y="255.47998">4</tspan></text>
  <text
     xml:space="preserve"
     style="font-size:11px;font-style:normal;font-weight:normal;line-height:125%;letter-spacing:0px;word-spacing:0px;fill:#000000;fill-opacity:1;stroke:none;font-family:Sans;-inkscape-font-specification:Sans"
     x="115.62804"
     y="255.40598"
     id="text4673"
     sodipodi:linespacing="125%"
     transform="scale(1.0000813,0.9999187)"><tspan
       sodipodi:role="line"
       id="tspan4675"
       x="115.62804"
       y="255.40598">5</tspan></text>
  <text
     xml:space="preserve"
     style="font-size:11px;font-style:normal;font-weight:normal;line-height:125%;letter-spacing:0px;word-spacing:0px;fill:#000000;fill-opacity:1;stroke:none;font-family:Sans;-inkscape-font-specification:Sans"
     x="134.1692"
     y="255.40598"
     id="text4677"
     sodipodi:linespacing="125%"
     transform="scale(1.0000813,0.9999187)"><tspan
       sodipodi:role="line"
       id="tspan4679"
       x="134.1692"
       y="255.40598">6</tspan></text>
  <text
     xml:space="preserve"
     style="font-size:11px;font-style:normal;font-weight:normal;line-height:125%;letter-spacing:0px;word-spacing:0px;fill:#000000;fill-opacity:1;stroke:none;font-family:Sans;-inkscape-font-specification:Sans"
     x="152.60832"
     y="255.47998"
     id="text4681"
     sodipodi:linespacing="125%"
     transform="scale(1.0000813,0.9999187)"><tspan
       sodipodi:role="line"
       id="tspan4683"
       x="152.60832"
       y="255.47998">7</tspan></text>
  <text
     xml:space="preserve"
     style="font-size:11px;font-style:normal;font-weight:normal;line-height:125%;letter-spacing:0px;word-spacing:0px;fill:#000000;fill-opacity:1;stroke:none;font-family:Sans;-inkscape-font-specification:Sans"
     x="171.18523"
     y="255.40598"
     id="text4685"
     sodipodi:linespacing="125%"
     transform="scale(1.0000813,0.9999187)"><tspan
       sodipodi:role="line"
       id="tspan4687"
       x="171.18523"
       y="255.40598">8</tspan></text>
  <path
     style="fill:none;stroke:#000000;stroke-width:1px;stroke-linecap:butt;stroke-linejoin:miter;stroke-opacity:1"
     d="m 25.5616,183.97118 3.487501,0"
     id="path4689"
     inkscape:connector-curvature="0" />
  <path
     style="fill:none;stroke:#000000;stroke-width:1px;stroke-linecap:butt;stroke-linejoin:miter;stroke-opacity:1"
     d="m 25.5616,133.79804 3.487501,0"
     id="path4689-9"
     inkscape:connector-curvature="0" />
  <path
     style="fill:none;stroke:#000000;stroke-width:1px;stroke-linecap:butt;stroke-linejoin:miter;stroke-opacity:1"
     d="m 25.5616,82.656366 3.487501,0"
     id="path4689-5"
     inkscape:connector-curvature="0" />
  <path
     style="fill:none;stroke:#000000;stroke-width:1px;stroke-linecap:butt;stroke-linejoin:miter;stroke-opacity:1"
     d="m 25.5616,31.320906 3.487501,0"
     id="path4689-59"
     inkscape:connector-curvature="0" />
  <text
     xml:space="preserve"
     style="font-size:11px;font-style:normal;font-weight:normal;line-height:125%;letter-spacing:0px;word-spacing:0px;fill:#000000;fill-opacity:1;stroke:none;font-family:Sans;-inkscape-font-specification:Sans"
     x="-2.6224127"
     y="241.43945"
     id="text4723"
     sodipodi:linespacing="125%"
     transform="scale(1.0000813,0.9999187)"><tspan
       sodipodi:role="line"
       id="tspan4725"
       x="-2.6224127"
       y="241.43945">-40</tspan></text>
  <text
     xml:space="preserve"
     style="font-size:11px;font-style:normal;font-weight:normal;line-height:125%;letter-spacing:0px;word-spacing:0px;fill:#000000;fill-opacity:1;stroke:none;font-family:Sans;-inkscape-font-specification:Sans"
     x="6.3089323"
     y="186.93356"
     id="text4727"
     sodipodi:linespacing="125%"
     transform="scale(1.0000813,0.9999187)"><tspan
       sodipodi:role="line"
       id="tspan4729"
       x="6.3089323"
       y="186.93356">0</tspan></text>
  <text
     xml:space="preserve"
     style="font-size:11px;font-style:normal;font-weight:normal;line-height:125%;letter-spacing:0px;word-spacing:0px;fill:#000000;fill-opacity:1;stroke:none;font-family:Sans;-inkscape-font-specification:Sans"
     x="1.2133291"
     y="138.42822"
     id="text4731"
     sodipodi:linespacing="125%"
     transform="scale(1.0000813,0.9999187)"><tspan
       sodipodi:role="line"
       id="tspan4733"
       x="1.2133291"
       y="138.42822">40</tspan></text>
  <text
     xml:space="preserve"
     style="font-size:11px;font-style:normal;font-weight:normal;line-height:125%;letter-spacing:0px;word-spacing:0px;fill:#000000;fill-opacity:1;stroke:none;font-family:Sans;-inkscape-font-specification:Sans"
     x="2.8572187"
     y="85.922508"
     id="text4735"
     sodipodi:linespacing="125%"
     transform="scale(1.0000813,0.9999187)"><tspan
       sodipodi:role="line"
       id="tspan4737"
       x="2.8572187"
       y="85.922508">60</tspan></text>
  <text
     xml:space="preserve"
     style="font-size:11px;font-style:normal;font-weight:normal;line-height:125%;letter-spacing:0px;word-spacing:0px;fill:#000000;fill-opacity:1;stroke:none;font-family:Sans;-inkscape-font-specification:Sans"
     x="-3.3343074"
     y="35.416985"
     id="text4739"
     sodipodi:linespacing="125%"
     transform="scale(1.0000813,0.9999187)"><tspan
       sodipodi:role="line"
       id="tspan4741"
       x="-3.3343074"
       y="35.416985">120</tspan></text>
  <text
     xml:space="preserve"
     style="font-size:11px;font-style:normal;font-weight:normal;line-height:125%;letter-spacing:0px;word-spacing:0px;fill:#000000;fill-opacity:1;stroke:none;font-family:Sans;-inkscape-font-specification:Sans"
     x="78.350624"
     y="39.708267"
     id="text4743"
     sodipodi:linespacing="125%"
     transform="scale(1.0000813,0.9999187)"><tspan
       sodipodi:role="line"
       id="tspan4745"
       x="78.350624"
       y="39.708267">$\sigma_g{}^2\Sigma_g^+$</tspan></text>
  <path
     sodipodi:type="arc"
     style="fill:none;stroke:#000000;stroke-width:1.91386652;stroke-linecap:butt;stroke-miterlimit:4;stroke-opacity:1;stroke-dasharray:none;stroke-dashoffset:0"
     id="path4804"
     sodipodi:cx="124.02645"
     sodipodi:cy="446.78851"
     sodipodi:rx="11.679621"
     sodipodi:ry="10.567277"
     d="m 135.70607,446.78851 a 11.679621,10.567277 0 1 1 -23.35924,0 11.679621,10.567277 0 1 1 23.35924,0 z"
     transform="matrix(0.52254495,0,0,0.52245998,-14.350914,-0.54403351)" />
  <path
     style="fill:none;stroke:#000000;stroke-width:1px;stroke-linecap:butt;stroke-linejoin:miter;stroke-opacity:1"
     d="m 57.506631,127.74419 c -3.83606,2.32866 -3.219551,-0.20543 -5.754088,-0.0684 -2.534537,0.13694 -6.028084,1.1643 -6.507592,4.24635 -0.479509,3.08204 0.0685,5.13672 1.438519,7.19145 1.370019,2.05468 5.137573,1.98618 5.95959,1.36978 0.82201,-0.61639 1.370018,-1.57526 2.808537,-1.50677 1.438525,0.0685 1.849527,1.98618 2.808544,1.91769 0.959011,-0.0685 3.425047,-0.27393 4.932072,-2.39715 1.507019,-2.12317 1.986527,-3.56145 1.57552,-5.82162 -0.411003,-2.26016 -2.740038,-4.99973 -4.247063,-5.06822 -1.507019,-0.0685 -3.014039,0.13693 -3.014039,0.13693 z"
     id="path4816"
     inkscape:connector-curvature="0" />
  <path
     style="fill:none;stroke:#000000;stroke-width:0.25;stroke-linecap:butt;stroke-linejoin:miter;stroke-opacity:1"
     d="m 53.739077,129.18253 c -0.273955,0.73614 -0.705446,1.50468 -1.027517,2.19166"
     id="path4848"
     inkscape:connector-curvature="0" />
  <path
     style="fill:none;stroke:#000000;stroke-width:0.25;stroke-linecap:butt;stroke-linejoin:miter;stroke-opacity:1"
     d="m 55.109095,129.38796 c -1.060536,0.93708 -1.33251,2.42667 -1.918026,3.49301"
     id="path4850"
     inkscape:connector-curvature="0" />
  <path
     style="fill:none;stroke:#000000;stroke-width:0.25;stroke-linecap:butt;stroke-linejoin:miter;stroke-opacity:1"
     d="m 55.931106,131.10021 c -0.857345,1.55939 -1.75664,3.41512 -2.466036,4.79431"
     id="path4852"
     inkscape:connector-curvature="0" />
  <path
     style="fill:none;stroke:#000000;stroke-width:0.25;stroke-linecap:butt;stroke-linejoin:miter;stroke-opacity:1"
     d="m 56.342113,133.83984 c -0.665638,1.52663 -2.066294,2.53544 -3.014044,3.69844"
     id="path4854"
     inkscape:connector-curvature="0" />
  <path
     style="fill:none;stroke:#000000;stroke-width:0.25;stroke-linecap:butt;stroke-linejoin:miter;stroke-opacity:1"
     d="m 53.602071,138.63409 c 0.343447,-1.01509 1.420606,-0.45815 2.123533,-0.6849"
     id="path4858"
     inkscape:connector-curvature="0" />
  <path
     style="fill:none;stroke:#000000;stroke-width:0.25;stroke-linecap:butt;stroke-linejoin:miter;stroke-opacity:1"
     d="m 56.410614,129.38796 c -0.743738,0.63061 -1.168735,1.39329 -1.781027,2.12322"
     id="path4860"
     inkscape:connector-curvature="0" />
  <path
     style="fill:none;stroke:#000000;stroke-width:1px;stroke-linecap:butt;stroke-linejoin:miter;stroke-opacity:1"
     d="m 49.423507,99.046976 c -0.125369,-2.46564 -0.685009,-3.01355 -0.685009,-4.86279 0,-1.84925 1.027517,-4.65732 2.192034,-5.06823 1.164518,-0.41097 5.000574,-0.95887 6.370592,-0.41097 1.370019,0.5479 3.034518,2.39423 3.151051,3.28753 0.411003,3.15054 -0.75351,4.72581 -0.616514,6.50651 0.13176,1.712674 0.959016,4.999784 0.548008,6.438064 -0.4208,1.47255 -2.260529,3.62995 -3.904555,3.69844 -1.644025,0.0685 -5.548582,0.0685 -7.124107,-2.80806 -1.079264,-1.97051 0.193875,-4.31484 0.0685,-6.780494 z"
     id="path4868"
     inkscape:connector-curvature="0"
     sodipodi:nodetypes="zssssssssz" />
  <path
     style="fill:none;stroke:#000000;stroke-width:0.25;stroke-linecap:butt;stroke-linejoin:miter;stroke-opacity:1"
     d="m 49.971516,97.608696 c 1.085577,0.0579 1.198431,1.66169 0.959016,2.26016"
     id="path4888"
     inkscape:connector-curvature="0" />
  <path
     style="fill:none;stroke:#000000;stroke-width:0.25;stroke-linecap:butt;stroke-linejoin:miter;stroke-opacity:1"
     d="m 51.41004,96.718326 c 1.260386,0.74926 1.486898,2.65911 1.781029,3.835434"
     id="path4890"
     inkscape:connector-curvature="0" />
  <path
     style="fill:none;stroke:#000000;stroke-width:0.25;stroke-linecap:butt;stroke-linejoin:miter;stroke-opacity:1"
     d="m 53.807577,96.786816 c 0.18345,0.95062 -0.414817,2.18404 0,3.01355"
     id="path4900"
     inkscape:connector-curvature="0" />
  <path
     style="fill:none;stroke:#000000;stroke-width:0.25;stroke-linecap:butt;stroke-linejoin:miter;stroke-opacity:1"
     d="m 56.684615,97.334716 c -0.904979,0.62434 -1.233018,1.38734 -1.233018,2.39715"
     id="path4902"
     inkscape:connector-curvature="0" />
  <path
     style="fill:none;stroke:#000000;stroke-width:0.25;stroke-linecap:butt;stroke-linejoin:miter;stroke-opacity:1"
     d="m 57.986134,97.608696 c -0.472062,0.71666 -0.68501,1.31556 -0.68501,2.19167"
     id="path4904"
     inkscape:connector-curvature="0" />
  <path
     style="fill:none;stroke:#000000;stroke-width:0.25;stroke-linecap:butt;stroke-linejoin:miter;stroke-opacity:1"
     d="m 59.219152,97.745636 c -0.371049,0.64189 -0.406608,1.32328 -0.274002,1.98623"
     id="path4906"
     inkscape:connector-curvature="0" />
  <path
     sodipodi:type="arc"
     style="fill:none;stroke:#000000;stroke-width:1.91386652;stroke-linecap:butt;stroke-miterlimit:4;stroke-opacity:1;stroke-dasharray:none;stroke-dashoffset:0"
     id="path4908"
     sodipodi:cx="129.51801"
     sodipodi:cy="113.79996"
     sodipodi:rx="9.962923"
     sodipodi:ry="8.3898306"
     d="m 139.48093,113.79996 a 9.962923,8.3898306 0 1 1 -0.002,-0.1809"
     sodipodi:start="0"
     sodipodi:end="6.2616217"
     sodipodi:open="true"
     transform="matrix(0.52254495,0,0,0.52245998,-14.350914,-0.54403351)" />
  <path
     style="fill:none;stroke:#000000;stroke-width:1px;stroke-linecap:butt;stroke-linejoin:miter;stroke-opacity:1"
     d="m 48.669998,79.527346 c -0.452733,-1.78566 -0.96733,-3.494 0,-7.05446 0,0 -5.023011,0.11646 -5.274574,-1.64376 -0.114213,-0.79916 -0.342205,-5.0675 3.219545,-5.89011 3.398675,-0.78495 4.315563,5.68468 4.315563,5.68468 2.198124,-0.53929 4.391558,-1.09111 7.124102,-0.20549 0,0 -0.75351,-3.90392 2.260535,-4.72581 3.014044,-0.82188 3.485375,-0.16274 4.384063,0.6164 1.896682,3.03983 0.362871,5.21238 -0.959011,5.4792 -3.356552,0.6164 -3.90456,0 -3.90456,0 1.184536,2.51575 0.838695,4.69148 0.411008,6.84898 0,0 3.630553,0.20548 4.932071,1.50677 1.301519,1.30135 0.490717,4.55512 -0.959016,5.4792 -1.449733,0.92407 -3.836055,0.5479 -4.589564,-1.2328 -0.75351,-1.78075 -1.301519,-3.21903 -1.301519,-3.21903 -2.557371,0.44691 -5.114737,0.68118 -7.67211,-0.13699 0,0 0.657805,2.02218 -0.274007,3.21903 -0.931813,1.19685 -3.288046,3.35602 -5.548581,1.91769 -2.501114,-1.59136 -1.145419,-4.4627 -0.137001,-5.75312 1.008418,-1.29042 3.973056,-0.89038 3.973056,-0.89038 z"
     id="path4910"
     inkscape:connector-curvature="0"
     sodipodi:nodetypes="ccssccsccccszscczszc" />
  <path
     style="fill:none;stroke:#000000;stroke-width:0.25;stroke-linecap:butt;stroke-linejoin:miter;stroke-opacity:1"
     d="m 50.314023,75.212506 c -1.617898,4.07916 7.550447,7.73116 8.35712,3.69845"
     id="path4956"
     inkscape:connector-curvature="0" />
  <path
     style="fill:none;stroke:#000000;stroke-width:0.25;stroke-linecap:butt;stroke-linejoin:miter;stroke-opacity:1"
     d="m 52.437554,76.650786 c 0.70566,1.44382 3.14052,2.61053 4.521068,1.57527 0.714304,-0.53568 0.878743,-1.48326 1.233018,-2.19166"
     id="path4958"
     inkscape:connector-curvature="0" />
  <path
     style="fill:none;stroke:#000000;stroke-width:0.25;stroke-linecap:butt;stroke-linejoin:miter;stroke-opacity:1"
     d="m 53.191069,75.007026 c 1.653681,0.48145 3.130242,1.61074 3.562047,-0.5479"
     id="path4960"
     inkscape:connector-curvature="0" />
  <path
     style="fill:none;stroke:#000000;stroke-width:0.25;stroke-linecap:butt;stroke-linejoin:miter;stroke-opacity:1"
     d="m 52.09505,72.061976 c -1.677359,0.59095 -3.338467,1.34648 -2.671537,3.01354"
     id="path4962"
     inkscape:connector-curvature="0" />
  <text
     xml:space="preserve"
     style="font-size:11px;font-style:normal;font-weight:normal;line-height:125%;letter-spacing:0px;word-spacing:0px;fill:#000000;fill-opacity:1;stroke:none;font-family:Sans;-inkscape-font-specification:Sans"
     x="117.93613"
     y="68.349876"
     id="text4966"
     sodipodi:linespacing="125%"
     transform="scale(1.0000813,0.9999187)"><tspan
       sodipodi:role="line"
       id="tspan4968"
       x="117.93613"
       y="68.349876">$\sigma_g\pi_g{}^1\Pi_g$</tspan></text>
  <text
     xml:space="preserve"
     style="font-size:11px;font-style:normal;font-weight:normal;line-height:125%;letter-spacing:0px;word-spacing:0px;fill:#000000;fill-opacity:1;stroke:none;font-family:Sans;-inkscape-font-specification:Sans"
     x="93.618477"
     y="113.12411"
     id="text4970"
     sodipodi:linespacing="125%"
     transform="scale(1.0000813,0.9999187)"><tspan
       sodipodi:role="line"
       id="tspan4972"
       x="93.618477"
       y="113.12411">$\sigma_g\pi_u{}^1\Pi_u$</tspan></text>
  <text
     xml:space="preserve"
     style="font-size:11px;font-style:normal;font-weight:normal;line-height:125%;letter-spacing:0px;word-spacing:0px;fill:#000000;fill-opacity:1;stroke:none;font-family:Sans;-inkscape-font-specification:Sans"
     x="73.976639"
     y="161.80118"
     id="text4974"
     sodipodi:linespacing="125%"
     transform="scale(1.0000813,0.9999187)"><tspan
       sodipodi:role="line"
       id="tspan4976"
       x="73.976639"
       y="161.80118">$\sigma_g\sigma_u{}^3\Sigma_u^+$</tspan></text>
  <text
     xml:space="preserve"
     style="font-size:11px;font-style:normal;font-weight:normal;line-height:125%;letter-spacing:0px;word-spacing:0px;fill:#000000;fill-opacity:1;stroke:none;font-family:Sans;-inkscape-font-specification:Sans"
     x="82.866478"
     y="217.7467"
     id="text4978"
     sodipodi:linespacing="125%"
     transform="scale(1.0000813,0.9999187)"><tspan
       sodipodi:role="line"
       id="tspan4980"
       x="82.866478"
       y="217.7467">$\sigma_g\sigma_g{}^1\Sigma_g^+$</tspan></text>
  <g
     id="g3160"
     transform="matrix(0.52254495,0,0,0.52245998,9.7480256,10.387257)">
    <path
       transform="matrix(0.28683734,0,0,0.28683734,349.2565,-43.647316)"
       sodipodi:open="true"
       sodipodi:end="6.2616217"
       sodipodi:start="0"
       d="m 474.60047,351.86841 c 0,6.04092 -4.89713,10.93806 -10.93806,10.93806 -6.04092,0 -10.93805,-4.89714 -10.93805,-10.93806 0,-6.04092 4.89713,-10.93806 10.93805,-10.93806 5.94902,0 10.80725,4.75458 10.93552,10.70221"
       sodipodi:ry="10.938058"
       sodipodi:rx="10.938058"
       sodipodi:cy="351.86841"
       sodipodi:cx="463.66241"
       id="path4982-1"
       style="fill:none;stroke:#000000;stroke-width:6.67230606;stroke-linecap:butt;stroke-miterlimit:4;stroke-opacity:1;stroke-dasharray:none;stroke-dashoffset:0"
       sodipodi:type="arc" />
    <text
       sodipodi:linespacing="125%"
       id="text5069"
       y="37.259468"
       x="477.78467"
       style="font-size:10px;font-style:normal;font-weight:normal;line-height:125%;letter-spacing:0px;word-spacing:0px;fill:#000000;fill-opacity:1;stroke:none;font-family:Sans;-inkscape-font-specification:Sans"
       xml:space="preserve"><tspan
         y="37.259468"
         x="477.78467"
         id="tspan5071"
         sodipodi:role="line">$\H^+$</tspan></text>
  </g>
  <g
     id="g3111"
     transform="matrix(0.52254495,0,0,0.52245998,31.04627,25.906238)">
    <path
       transform="translate(-66.277723,8)"
       sodipodi:open="true"
       sodipodi:end="6.2616217"
       sodipodi:start="0"
       d="m 527.99304,137.18584 c 0,5.83614 -5.22915,10.56727 -11.67962,10.56727 -6.45048,0 -11.67963,-4.73113 -11.67963,-10.56727 0,-5.83615 5.22915,-10.56728 11.67963,-10.56728 6.35234,0 11.53993,4.59341 11.6769,10.33943"
       sodipodi:ry="10.567276"
       sodipodi:rx="11.679622"
       sodipodi:cy="137.18584"
       sodipodi:cx="516.31342"
       id="path5023"
       style="fill:none;stroke:#000000;stroke-width:1.91386652;stroke-linecap:butt;stroke-miterlimit:4;stroke-opacity:1;stroke-dasharray:none;stroke-dashoffset:0"
       sodipodi:type="arc" />
    <path
       transform="matrix(1.06659,0,0,0.98689565,-94.529225,10.645352)"
       sodipodi:open="true"
       sodipodi:end="6.2616217"
       sodipodi:start="0"
       d="m 518.72351,138.20549 c 0,4.4539 -3.6521,8.0645 -8.1572,8.0645 -4.50509,0 -8.15719,-3.6106 -8.15719,-8.0645 0,-4.4539 3.6521,-8.0645 8.15719,-8.0645 4.43656,0 8.05964,3.50549 8.1553,7.89061"
       sodipodi:ry="8.0645008"
       sodipodi:rx="8.157196"
       sodipodi:cy="138.20549"
       sodipodi:cx="510.56631"
       id="path5025"
       style="fill:none;stroke:#000000;stroke-width:1.91386652;stroke-linecap:butt;stroke-miterlimit:4;stroke-opacity:1;stroke-dasharray:none;stroke-dashoffset:0"
       sodipodi:type="arc" />
    <path
       transform="translate(-66.277723,8)"
       sodipodi:open="true"
       sodipodi:end="6.2616217"
       sodipodi:start="0"
       d="m 521.1336,140.70827 c 0,2.15016 -1.95055,3.8932 -4.35668,3.8932 -2.40613,0 -4.35669,-1.74304 -4.35669,-3.8932 0,-2.15016 1.95056,-3.89321 4.35669,-3.89321 2.36952,0 4.30458,1.69231 4.35567,3.80926"
       sodipodi:ry="3.8932071"
       sodipodi:rx="4.3566842"
       sodipodi:cy="140.70827"
       sodipodi:cx="516.77692"
       id="path5027"
       style="fill:none;stroke:#000000;stroke-width:1.91386652;stroke-linecap:butt;stroke-miterlimit:4;stroke-opacity:1;stroke-dasharray:none;stroke-dashoffset:0"
       sodipodi:type="arc" />
    <path
       sodipodi:open="true"
       sodipodi:end="6.2616217"
       sodipodi:start="0"
       d="m 527.99304,137.18584 c 0,5.83614 -5.22915,10.56727 -11.67962,10.56727 -6.45048,0 -11.67963,-4.73113 -11.67963,-10.56727 0,-5.83615 5.22915,-10.56728 11.67963,-10.56728 6.35234,0 11.53993,4.59341 11.6769,10.33943"
       sodipodi:ry="10.567276"
       sodipodi:rx="11.679622"
       sodipodi:cy="137.18584"
       sodipodi:cx="516.31342"
       id="path5023-5"
       style="fill:none;stroke:#000000;stroke-width:1.91386652;stroke-linecap:butt;stroke-miterlimit:4;stroke-opacity:1;stroke-dasharray:none;stroke-dashoffset:0"
       sodipodi:type="arc"
       transform="matrix(1,0,0,-1,-66.09233,305.73092)" />
    <path
       transform="matrix(1.06659,0,0,-0.98689565,-94.34384,303.08557)"
       sodipodi:open="true"
       sodipodi:end="6.2616217"
       sodipodi:start="0"
       d="m 518.72351,138.20549 c 0,4.4539 -3.6521,8.0645 -8.1572,8.0645 -4.50509,0 -8.15719,-3.6106 -8.15719,-8.0645 0,-4.4539 3.6521,-8.0645 8.15719,-8.0645 4.43656,0 8.05964,3.50549 8.1553,7.89061"
       sodipodi:ry="8.0645008"
       sodipodi:rx="8.157196"
       sodipodi:cy="138.20549"
       sodipodi:cx="510.56631"
       id="path5025-0"
       style="fill:none;stroke:#000000;stroke-width:1.91386652;stroke-linecap:butt;stroke-miterlimit:4;stroke-opacity:1;stroke-dasharray:none;stroke-dashoffset:0"
       sodipodi:type="arc" />
    <path
       sodipodi:open="true"
       sodipodi:end="6.2616217"
       sodipodi:start="0"
       d="m 521.1336,140.70827 c 0,2.15016 -1.95055,3.8932 -4.35668,3.8932 -2.40613,0 -4.35669,-1.74304 -4.35669,-3.8932 0,-2.15016 1.95056,-3.89321 4.35669,-3.89321 2.36952,0 4.30458,1.69231 4.35567,3.80926"
       sodipodi:ry="3.8932071"
       sodipodi:rx="4.3566842"
       sodipodi:cy="140.70827"
       sodipodi:cx="516.77692"
       id="path5027-3"
       style="fill:none;stroke:#000000;stroke-width:1.91386652;stroke-linecap:butt;stroke-miterlimit:4;stroke-opacity:1;stroke-dasharray:none;stroke-dashoffset:0"
       sodipodi:type="arc"
       transform="matrix(1,0,0,-1,-66.09233,305.73092)" />
  </g>
  <text
     xml:space="preserve"
     style="font-size:5.2250247px;font-style:normal;font-weight:normal;line-height:125%;letter-spacing:0px;word-spacing:0px;fill:#000000;fill-opacity:1;stroke:none;font-family:Sans;-inkscape-font-specification:Sans"
     x="259.3909"
     y="131.28574"
     id="text5057"
     sodipodi:linespacing="125%"
     transform="scale(1.0000813,0.9999187)"><tspan
       sodipodi:role="line"
       id="tspan5059"
       x="259.3909"
       y="131.28574">$2p{}^2P$</tspan></text>
  <text
     xml:space="preserve"
     style="font-size:5.2250247px;font-style:normal;font-weight:normal;line-height:125%;letter-spacing:0px;word-spacing:0px;fill:#000000;fill-opacity:1;stroke:none;font-family:Sans;-inkscape-font-specification:Sans"
     x="259.3909"
     y="89.383652"
     id="text5073"
     sodipodi:linespacing="125%"
     transform="scale(1.0000813,0.9999187)"><tspan
       sodipodi:role="line"
       id="tspan5075"
       x="259.3909"
       y="89.383652">$\H^*$</tspan></text>
  <path
     sodipodi:type="arc"
     style="fill:none;stroke:#000000;stroke-width:1.91386652;stroke-linecap:butt;stroke-miterlimit:4;stroke-opacity:1;stroke-dasharray:none;stroke-dashoffset:0"
     id="path4982"
     sodipodi:cx="463.66241"
     sodipodi:cy="351.86841"
     sodipodi:rx="10.938058"
     sodipodi:ry="10.938058"
     d="m 474.60047,351.86841 a 10.938058,10.938058 0 1 1 -0.003,-0.23585"
     sodipodi:start="0"
     sodipodi:end="6.2616217"
     sodipodi:open="true"
     transform="matrix(0.52254495,0,0,0.52245998,-26.613057,-1.8031855)" />
  <text
     xml:space="preserve"
     style="font-size:5.2250247px;font-style:normal;font-weight:normal;line-height:125%;letter-spacing:0px;word-spacing:0px;fill:#000000;fill-opacity:1;stroke:none;font-family:Sans;-inkscape-font-specification:Sans"
     x="209.24373"
     y="200.54709"
     id="text5053"
     sodipodi:linespacing="125%"
     transform="scale(1.0000813,0.9999187)"><tspan
       sodipodi:role="line"
       id="tspan5055"
       x="209.24373"
       y="200.54709">$1s{}^2S$</tspan></text>
  <text
     xml:space="preserve"
     style="font-size:5.2250247px;font-style:normal;font-weight:normal;line-height:125%;letter-spacing:0px;word-spacing:0px;fill:#000000;fill-opacity:1;stroke:none;font-family:Sans;-inkscape-font-specification:Sans"
     x="209.24373"
     y="170.80045"
     id="text5061-0"
     sodipodi:linespacing="125%"
     transform="scale(1.0000813,0.9999187)"><tspan
       sodipodi:role="line"
       id="tspan5063-5"
       x="209.24373"
       y="170.80045">$\H$</tspan></text>
  <path
     sodipodi:type="arc"
     style="fill:none;stroke:#000000;stroke-width:2.01126862;stroke-linecap:butt;stroke-miterlimit:4;stroke-opacity:1;stroke-dasharray:none;stroke-dashoffset:0"
     id="path4982-3"
     sodipodi:cx="463.66241"
     sodipodi:cy="351.86841"
     sodipodi:rx="10.938058"
     sodipodi:ry="10.938058"
     d="m 474.60047,351.86841 a 10.938058,10.938058 0 1 1 -0.003,-0.23585"
     sodipodi:start="0"
     sodipodi:end="6.2616217"
     sodipodi:open="true"
     transform="matrix(0.52254495,0,0,0.47308168,23.538194,14.69748)" />
  <text
     xml:space="preserve"
     style="font-size:4.97198582px;font-style:normal;font-weight:normal;line-height:125%;letter-spacing:0px;word-spacing:0px;fill:#000000;fill-opacity:1;stroke:none;font-family:Sans;-inkscape-font-specification:Sans"
     x="246.82903"
     y="208.39499"
     id="text5053-4"
     sodipodi:linespacing="125%"
     transform="scale(1.0509783,0.95149443)"><tspan
       sodipodi:role="line"
       id="tspan5055-7"
       x="246.82903"
       y="208.39499">$1s{}^2S$</tspan></text>
  <text
     xml:space="preserve"
     style="font-size:4.97198582px;font-style:normal;font-weight:normal;line-height:125%;letter-spacing:0px;word-spacing:0px;fill:#000000;fill-opacity:1;stroke:none;font-family:Sans;-inkscape-font-specification:Sans"
     x="246.82903"
     y="179.49294"
     id="text5061-3"
     sodipodi:linespacing="125%"
     transform="scale(1.0509783,0.95149443)"><tspan
       sodipodi:role="line"
       id="tspan5063-4"
       x="246.82903"
       y="179.49294">$\H$</tspan></text>
  <path
     sodipodi:type="arc"
     style="fill:none;stroke:#000000;stroke-width:1.91386652;stroke-linecap:butt;stroke-miterlimit:4;stroke-opacity:1;stroke-dasharray:none;stroke-dashoffset:0"
     id="path4982-8"
     sodipodi:cx="463.66241"
     sodipodi:cy="351.86841"
     sodipodi:rx="10.938058"
     sodipodi:ry="10.938058"
     d="m 474.60047,351.86841 a 10.938058,10.938058 0 1 1 -0.003,-0.23585"
     sodipodi:start="0"
     sodipodi:end="6.2616217"
     sodipodi:open="true"
     transform="matrix(0.52254495,0,0,0.52245998,-26.613061,-76.978854)" />
  <text
     xml:space="preserve"
     style="font-size:5.2250247px;font-style:normal;font-weight:normal;line-height:125%;letter-spacing:0px;word-spacing:0px;fill:#000000;fill-opacity:1;stroke:none;font-family:Sans;-inkscape-font-specification:Sans"
     x="209.24373"
     y="123.5453"
     id="text5053-1"
     sodipodi:linespacing="125%"
     transform="scale(1.0000813,0.9999187)"><tspan
       sodipodi:role="line"
       id="tspan5055-37"
       x="209.24373"
       y="123.5453">$1s{}^2S$</tspan></text>
  <text
     xml:space="preserve"
     style="font-size:5.2250247px;font-style:normal;font-weight:normal;line-height:125%;letter-spacing:0px;word-spacing:0px;fill:#000000;fill-opacity:1;stroke:none;font-family:Sans;-inkscape-font-specification:Sans"
     x="209.24373"
     y="92.712601"
     id="text5061-1"
     sodipodi:linespacing="125%"
     transform="scale(1.0000813,0.9999187)"><tspan
       sodipodi:role="line"
       id="tspan5063-2"
       x="209.24373"
       y="92.712601">$\H$</tspan></text>
  <path
     sodipodi:type="arc"
     style="fill:none;stroke:#000000;stroke-width:1.91386652;stroke-linecap:butt;stroke-miterlimit:4;stroke-opacity:1;stroke-dasharray:none;stroke-dashoffset:0"
     id="path4982-31"
     sodipodi:cx="463.66241"
     sodipodi:cy="351.86841"
     sodipodi:rx="10.938058"
     sodipodi:ry="10.938058"
     d="m 474.60047,351.86841 a 10.938058,10.938058 0 1 1 -0.003,-0.23585"
     sodipodi:start="0"
     sodipodi:end="6.2616217"
     sodipodi:open="true"
     transform="matrix(0.52254495,0,0,0.52245998,-26.225549,-143.3288)" />
  <text
     xml:space="preserve"
     style="font-size:5.2250247px;font-style:normal;font-weight:normal;line-height:125%;letter-spacing:0px;word-spacing:0px;fill:#000000;fill-opacity:1;stroke:none;font-family:Sans;-inkscape-font-specification:Sans"
     x="209.63121"
     y="29.856264"
     id="text5061"
     sodipodi:linespacing="125%"
     transform="scale(1.0000813,0.9999187)"><tspan
       sodipodi:role="line"
       id="tspan5063"
       x="209.63121"
       y="29.856264">$\H$</tspan></text>
  <text
     xml:space="preserve"
     style="font-size:5.2250247px;font-style:normal;font-weight:normal;line-height:125%;letter-spacing:0px;word-spacing:0px;fill:#000000;fill-opacity:1;stroke:none;font-family:Sans;-inkscape-font-specification:Sans"
     x="209.24373"
     y="59.861221"
     id="text5053-1-8"
     sodipodi:linespacing="125%"
     transform="scale(1.0000813,0.9999187)"><tspan
       sodipodi:role="line"
       id="tspan5055-37-9"
       x="209.24373"
       y="59.861221">$1s{}^2S$</tspan></text>
  <text
     xml:space="preserve"
     style="font-size:11px;font-style:normal;font-weight:normal;line-height:125%;letter-spacing:0px;word-spacing:0px;fill:#000000;fill-opacity:1;stroke:none;font-family:Sans;-inkscape-font-specification:Sans"
     x="201.94226"
     y="11.742592"
     id="text5242"
     sodipodi:linespacing="125%"
     transform="scale(1.0000813,0.9999187)"><tspan
       sodipodi:role="line"
       id="tspan5244"
       x="201.94226"
       y="11.742592">atomic orbitals</tspan></text>
  <text
     xml:space="preserve"
     style="font-size:11px;font-style:normal;font-weight:normal;line-height:125%;letter-spacing:0px;word-spacing:0px;fill:#000000;fill-opacity:1;stroke:none;font-family:Sans;-inkscape-font-specification:Sans"
     x="54.481125"
     y="22.571978"
     id="text5246"
     sodipodi:linespacing="125%"
     transform="scale(1.0000813,0.9999187)"><tspan
       sodipodi:role="line"
       id="tspan5248"
       x="54.481125"
       y="22.571978">molecular orbitals</tspan></text>
  <path
     style="fill:none;stroke:#000000;stroke-width:0.5;stroke-linecap:butt;stroke-linejoin:miter;stroke-opacity:1"
     d="M 69.682639,26.814251 C 70.465605,38.382378 53.390142,39.173231 53.736976,52.287596"
     id="path5250"
     inkscape:connector-curvature="0"
     sodipodi:nodetypes="cc" />
</svg>
