<?xml version="1.0" encoding="UTF-8" standalone="no"?>
<!-- Created with Inkscape (http://www.inkscape.org/) -->

<svg
   xmlns:dc="http://purl.org/dc/elements/1.1/"
   xmlns:cc="http://creativecommons.org/ns#"
   xmlns:rdf="http://www.w3.org/1999/02/22-rdf-syntax-ns#"
   xmlns:svg="http://www.w3.org/2000/svg"
   xmlns="http://www.w3.org/2000/svg"
   xmlns:sodipodi="http://sodipodi.sourceforge.net/DTD/sodipodi-0.dtd"
   xmlns:inkscape="http://www.inkscape.org/namespaces/inkscape"
   width="494.76923"
   height="143.7204"
   id="svg2"
   version="1.1"
   inkscape:version="0.48.2 r9819"
   sodipodi:docname="missing-cone.svg">
  <defs
     id="defs4">
    <marker
       inkscape:stockid="Arrow1Mend"
       orient="auto"
       refY="0"
       refX="0"
       id="Arrow1Mend"
       style="overflow:visible">
      <path
         id="path4491"
         d="M 0,0 5,-5 -12.5,0 5,5 0,0 z"
         style="fill-rule:evenodd;stroke:#000000;stroke-width:1pt;marker-start:none"
         transform="matrix(-0.4,0,0,-0.4,-4,0)"
         inkscape:connector-curvature="0" />
    </marker>
    <marker
       inkscape:stockid="Arrow1Mstart"
       orient="auto"
       refY="0"
       refX="0"
       id="Arrow1Mstart"
       style="overflow:visible">
      <path
         id="path4488"
         d="M 0,0 5,-5 -12.5,0 5,5 0,0 z"
         style="fill-rule:evenodd;stroke:#000000;stroke-width:1pt;marker-start:none"
         transform="matrix(0.4,0,0,0.4,4,0)"
         inkscape:connector-curvature="0" />
    </marker>
  </defs>
  <sodipodi:namedview
     id="base"
     pagecolor="#ffffff"
     bordercolor="#666666"
     borderopacity="1.0"
     inkscape:pageopacity="0.0"
     inkscape:pageshadow="2"
     inkscape:zoom="0.98994949"
     inkscape:cx="280.09237"
     inkscape:cy="19.849588"
     inkscape:document-units="px"
     inkscape:current-layer="layer1"
     showgrid="false"
     units="mm"
     inkscape:object-paths="false"
     inkscape:object-nodes="false"
     inkscape:snap-object-midpoints="true"
     inkscape:snap-midpoints="true"
     inkscape:window-width="1364"
     inkscape:window-height="751"
     inkscape:window-x="0"
     inkscape:window-y="15"
     inkscape:window-maximized="0"
     inkscape:snap-nodes="false"
     fit-margin-top="0"
     fit-margin-left="0"
     fit-margin-right="0"
     fit-margin-bottom="0" />
  <metadata
     id="metadata7">
    <rdf:RDF>
      <cc:Work
         rdf:about="">
        <dc:format>image/svg+xml</dc:format>
        <dc:type
           rdf:resource="http://purl.org/dc/dcmitype/StillImage" />
      </cc:Work>
    </rdf:RDF>
  </metadata>
  <g
     inkscape:label="Layer 1"
     inkscape:groupmode="layer"
     id="layer1"
     transform="translate(-188.05068,-876.70508)">
    <g
       id="g4215"
       transform="translate(181.94195,-10.20128)">
      <path
         sodipodi:open="true"
         sodipodi:end="3.1415927"
         sodipodi:start="0"
         transform="translate(70.714286,905.19684)"
         d="m 120.35714,50.736774 c 0,17.949255 -14.55075,32.5 -32.5,32.5 -17.949255,0 -32.5,-14.550745 -32.5,-32.5 0,0 0,-10e-7 0,-10e-7"
         sodipodi:ry="32.5"
         sodipodi:rx="32.5"
         sodipodi:cy="50.736774"
         sodipodi:cx="87.85714"
         id="path2985"
         style="fill:none;stroke:#000000;stroke-width:1.5;stroke-linecap:butt;stroke-miterlimit:10.43299961;stroke-opacity:1;stroke-dasharray:none;stroke-dashoffset:0"
         sodipodi:type="arc" />
      <path
         sodipodi:open="true"
         sodipodi:end="3.1415927"
         sodipodi:start="0"
         d="m 120.35714,50.736774 c 0,17.949255 -14.55075,32.5 -32.5,32.5 -17.949255,0 -32.5,-14.550745 -32.5,-32.5 0,0 0,-10e-7 0,-10e-7"
         sodipodi:ry="32.5"
         sodipodi:rx="32.5"
         sodipodi:cy="50.736774"
         sodipodi:cx="87.85714"
         id="path2985-8"
         style="fill:none;stroke:#000000;stroke-width:0.5;stroke-linecap:butt;stroke-miterlimit:10.43299961;stroke-opacity:1;stroke-dasharray:none;stroke-dashoffset:0"
         sodipodi:type="arc"
         transform="matrix(1,0,0,-1,135.71429,1006.4918)" />
      <path
         sodipodi:open="true"
         sodipodi:end="3.1415927"
         sodipodi:start="0"
         d="m 120.35714,50.736774 c 0,17.949255 -14.55075,32.5 -32.5,32.5 -17.949255,0 -32.5,-14.550745 -32.5,-32.5 0,0 0,-10e-7 0,-10e-7"
         sodipodi:ry="32.5"
         sodipodi:rx="32.5"
         sodipodi:cy="50.736774"
         sodipodi:cx="87.85714"
         id="path2985-8-9"
         style="fill:none;stroke:#000000;stroke-width:0.5;stroke-linecap:butt;stroke-miterlimit:10.43299961;stroke-opacity:1;stroke-dasharray:none;stroke-dashoffset:0"
         sodipodi:type="arc"
         transform="matrix(1,0,0,-1,128.47148,1027.1251)" />
      <path
         sodipodi:open="true"
         sodipodi:end="3.1415927"
         sodipodi:start="0"
         d="m 120.35714,50.736774 c 0,17.949255 -14.55075,32.5 -32.5,32.5 -17.949255,0 -32.5,-14.550745 -32.5,-32.5 0,0 0,-10e-7 0,-10e-7"
         sodipodi:ry="32.5"
         sodipodi:rx="32.5"
         sodipodi:cy="50.736774"
         sodipodi:cx="87.85714"
         id="path2985-8-9-2"
         style="fill:none;stroke:#000000;stroke-width:0.5;stroke-linecap:butt;stroke-miterlimit:10.43299961;stroke-opacity:1;stroke-dasharray:none;stroke-dashoffset:0"
         sodipodi:type="arc"
         transform="matrix(1,0,0,-1,103.21429,1038.9918)" />
      <path
         sodipodi:open="true"
         sodipodi:end="3.1415927"
         sodipodi:start="0"
         d="m 120.35714,50.736774 c 0,17.949255 -14.55075,32.5 -32.5,32.5 -17.949255,0 -32.5,-14.550745 -32.5,-32.5 0,0 0,-10e-7 0,-10e-7"
         sodipodi:ry="32.5"
         sodipodi:rx="32.5"
         sodipodi:cy="50.736774"
         sodipodi:cx="87.85714"
         id="path2985-8-9-2-1"
         style="fill:none;stroke:#000000;stroke-width:0.5;stroke-linecap:butt;stroke-miterlimit:10.43299961;stroke-opacity:1;stroke-dasharray:none;stroke-dashoffset:0"
         sodipodi:type="arc"
         transform="matrix(1,0,0,-1,75.522329,1023.691)" />
      <path
         sodipodi:open="true"
         sodipodi:end="3.1415927"
         sodipodi:start="0"
         d="m 120.35714,50.736774 c 0,17.949255 -14.55075,32.5 -32.5,32.5 -17.949255,0 -32.5,-14.550745 -32.5,-32.5 0,0 0,-10e-7 0,-10e-7"
         sodipodi:ry="32.5"
         sodipodi:rx="32.5"
         sodipodi:cy="50.736774"
         sodipodi:cx="87.85714"
         id="path2985-8-9-2-9"
         style="fill:none;stroke:#000000;stroke-width:0.5;stroke-linecap:butt;stroke-miterlimit:10.43299961;stroke-opacity:1;stroke-dasharray:none;stroke-dashoffset:0"
         sodipodi:type="arc"
         transform="matrix(1,0,0,-1,70.714286,1006.6704)" />
      <path
         sodipodi:open="true"
         sodipodi:end="3.1415927"
         sodipodi:start="0"
         d="m 120.35714,50.736774 c 0,17.949255 -14.55075,32.5 -32.5,32.5 -17.949255,0 -32.5,-14.550745 -32.5,-32.5 0,0 0,-10e-7 0,-10e-7"
         sodipodi:ry="32.5"
         sodipodi:rx="32.5"
         sodipodi:cy="50.736774"
         sodipodi:cx="87.85714"
         id="path2985-8-9-2-1-9"
         style="fill:none;stroke:#000000;stroke-width:0.5;stroke-linecap:butt;stroke-miterlimit:10.43299961;stroke-opacity:1;stroke-dasharray:none;stroke-dashoffset:0"
         sodipodi:type="arc"
         transform="matrix(1,0,0,-1,83.185311,1032.2669)" />
      <path
         sodipodi:open="true"
         sodipodi:end="3.1415927"
         sodipodi:start="0"
         d="m 120.35714,50.736774 c 0,17.949255 -14.55075,32.5 -32.5,32.5 -17.949255,0 -32.5,-14.550745 -32.5,-32.5 0,0 0,-10e-7 0,-10e-7"
         sodipodi:ry="32.5"
         sodipodi:rx="32.5"
         sodipodi:cy="50.736774"
         sodipodi:cx="87.85714"
         id="path2985-8-9-2-1-7"
         style="fill:none;stroke:#000000;stroke-width:0.5;stroke-linecap:butt;stroke-miterlimit:10.43299961;stroke-opacity:1;stroke-dasharray:none;stroke-dashoffset:0"
         sodipodi:type="arc"
         transform="matrix(1,0,0,-1,91.234593,1036.8913)" />
      <path
         sodipodi:open="true"
         sodipodi:end="3.1415927"
         sodipodi:start="0"
         d="m 120.35714,50.736774 c 0,17.949255 -14.55075,32.5 -32.5,32.5 -17.949255,0 -32.5,-14.550745 -32.5,-32.5 0,0 0,-10e-7 0,-10e-7"
         sodipodi:ry="32.5"
         sodipodi:rx="32.5"
         sodipodi:cy="50.736774"
         sodipodi:cx="87.85714"
         id="path2985-8-9-2-1-3"
         style="fill:none;stroke:#000000;stroke-width:0.5;stroke-linecap:butt;stroke-miterlimit:10.43299961;stroke-opacity:1;stroke-dasharray:none;stroke-dashoffset:0"
         sodipodi:type="arc"
         transform="matrix(1,0,0,-1,112.90057,1037.7025)" />
      <path
         sodipodi:open="true"
         sodipodi:end="3.1415927"
         sodipodi:start="0"
         d="m 120.35714,50.736774 c 0,17.949255 -14.55075,32.5 -32.5,32.5 -17.949255,0 -32.5,-14.550745 -32.5,-32.5 0,0 0,-10e-7 0,-10e-7"
         sodipodi:ry="32.5"
         sodipodi:rx="32.5"
         sodipodi:cy="50.736774"
         sodipodi:cx="87.85714"
         id="path2985-8-9-2-1-6"
         style="fill:none;stroke:#000000;stroke-width:1.5;stroke-linecap:butt;stroke-miterlimit:10.43299961;stroke-opacity:1;stroke-dasharray:none;stroke-dashoffset:0"
         sodipodi:type="arc"
         transform="matrix(1,0,0,-1,120.4597,1034.2226)" />
      <path
         sodipodi:open="true"
         sodipodi:end="3.1415927"
         sodipodi:start="0"
         d="m 120.35714,50.736774 c 0,17.949255 -14.55075,32.5 -32.5,32.5 -17.949255,0 -32.5,-14.550745 -32.5,-32.5 0,0 0,-10e-7 0,-10e-7"
         sodipodi:ry="32.5"
         sodipodi:rx="32.5"
         sodipodi:cy="50.736774"
         sodipodi:cx="87.85714"
         id="path2985-8-9-2-1-4"
         style="fill:none;stroke:#000000;stroke-width:0.5;stroke-linecap:butt;stroke-miterlimit:10.43299961;stroke-opacity:1;stroke-dasharray:none;stroke-dashoffset:0"
         sodipodi:type="arc"
         transform="matrix(1,0,0,-1,132.50097,1020.778)" />
      <path
         sodipodi:open="true"
         sodipodi:end="3.1415927"
         sodipodi:start="0"
         d="m 120.35714,50.736774 c 0,17.949255 -14.55075,32.5 -32.5,32.5 -17.949255,0 -32.5,-14.550745 -32.5,-32.5 0,0 0,-10e-7 0,-10e-7"
         sodipodi:ry="32.5"
         sodipodi:rx="32.5"
         sodipodi:cy="50.736774"
         sodipodi:cx="87.85714"
         id="path2985-8-9-2-1-2"
         style="fill:none;stroke:#000000;stroke-width:0.5;stroke-linecap:butt;stroke-miterlimit:10.43299961;stroke-opacity:1;stroke-dasharray:none;stroke-dashoffset:0"
         sodipodi:type="arc"
         transform="matrix(1,0,0,-1,72.34507,1016.8642)" />
      <path
         sodipodi:open="true"
         sodipodi:end="3.1415927"
         sodipodi:start="0"
         d="m 120.35714,50.736774 c 0,17.949255 -14.55075,32.5 -32.5,32.5 -17.949255,0 -32.5,-14.550745 -32.5,-32.5 0,0 0,-10e-7 0,-10e-7"
         sodipodi:ry="32.5"
         sodipodi:rx="32.5"
         sodipodi:cy="50.736774"
         sodipodi:cx="87.85714"
         id="path2985-8-9-2-1-20"
         style="fill:none;stroke:#000000;stroke-width:0.5;stroke-linecap:butt;stroke-miterlimit:10.43299961;stroke-opacity:1;stroke-dasharray:none;stroke-dashoffset:0"
         sodipodi:type="arc"
         transform="matrix(1,0,0,-1,71.180472,1012.1864)" />
      <path
         sodipodi:open="true"
         sodipodi:end="3.1415927"
         sodipodi:start="0"
         d="m 120.35714,50.736774 c 0,17.949255 -14.55075,32.5 -32.5,32.5 -17.949255,0 -32.5,-14.550745 -32.5,-32.5 0,0 0,-10e-7 0,-10e-7"
         sodipodi:ry="32.5"
         sodipodi:rx="32.5"
         sodipodi:cy="50.736774"
         sodipodi:cx="87.85714"
         id="path2985-8-9-2-1-49"
         style="fill:none;stroke:#000000;stroke-width:0.5;stroke-linecap:butt;stroke-miterlimit:10.43299961;stroke-opacity:1;stroke-dasharray:none;stroke-dashoffset:0"
         sodipodi:type="arc"
         transform="matrix(1,0,0,-1,134.31601,1016.1304)" />
    </g>
    <path
       sodipodi:type="arc"
       style="fill:none;stroke:#000000;stroke-width:1.5;stroke-linecap:butt;stroke-miterlimit:10.43299961;stroke-opacity:1;stroke-dasharray:none;stroke-dashoffset:0"
       id="path2985-82"
       sodipodi:cx="87.85714"
       sodipodi:cy="50.736774"
       sodipodi:rx="32.5"
       sodipodi:ry="32.5"
       d="m 108.74774,75.633219 c -12.082089,10.138074 -29.699111,10.138074 -41.781197,0"
       transform="translate(121.83414,864.454)"
       sodipodi:start="0.87266463"
       sodipodi:end="2.268928"
       sodipodi:open="true" />
    <path
       transform="matrix(1,0,0,-1,142.72474,1023.324)"
       sodipodi:type="arc"
       style="fill:none;stroke:#000000;stroke-width:0.5;stroke-linecap:butt;stroke-miterlimit:10.43299961;stroke-opacity:1;stroke-dasharray:none;stroke-dashoffset:0"
       id="path2985-8-1"
       sodipodi:cx="87.85714"
       sodipodi:cy="50.736774"
       sodipodi:rx="32.5"
       sodipodi:ry="32.5"
       d="m 108.74774,75.633219 c -12.082089,10.138074 -29.699111,10.138074 -41.781197,0"
       sodipodi:start="0.87266463"
       sodipodi:end="2.268928"
       sodipodi:open="true" />
    <path
       transform="matrix(1,0,0,-1,155.46962,1020.7255)"
       sodipodi:type="arc"
       style="fill:none;stroke:#000000;stroke-width:0.5;stroke-linecap:butt;stroke-miterlimit:10.43299961;stroke-opacity:1;stroke-dasharray:none;stroke-dashoffset:0"
       id="path2985-8-9-6"
       sodipodi:cx="87.85714"
       sodipodi:cy="50.736774"
       sodipodi:rx="32.5"
       sodipodi:ry="32.5"
       d="m 108.74774,75.633219 c -12.082089,10.138074 -29.699111,10.138074 -41.781197,0"
       sodipodi:start="0.87266463"
       sodipodi:end="2.268928"
       sodipodi:open="true" />
    <path
       transform="matrix(1,0,0,-1,160.54335,1018.0061)"
       sodipodi:type="arc"
       style="fill:none;stroke:#000000;stroke-width:0.5;stroke-linecap:butt;stroke-miterlimit:10.43299961;stroke-opacity:1;stroke-dasharray:none;stroke-dashoffset:0"
       id="path2985-8-9-2-92"
       sodipodi:cx="87.85714"
       sodipodi:cy="50.736774"
       sodipodi:rx="32.5"
       sodipodi:ry="32.5"
       d="m 108.74774,75.633219 c -12.082089,10.138074 -29.699111,10.138074 -41.781197,0"
       sodipodi:start="0.87266463"
       sodipodi:end="2.268928"
       sodipodi:open="true" />
    <path
       transform="matrix(1,0,0,-1,129.52453,1020.5273)"
       sodipodi:type="arc"
       style="fill:none;stroke:#000000;stroke-width:0.5;stroke-linecap:butt;stroke-miterlimit:10.43299961;stroke-opacity:1;stroke-dasharray:none;stroke-dashoffset:0"
       id="path2985-8-9-2-1-23"
       sodipodi:cx="87.85714"
       sodipodi:cy="50.736774"
       sodipodi:rx="32.5"
       sodipodi:ry="32.5"
       d="m 108.74774,75.633219 c -12.082089,10.138074 -29.699111,10.138074 -41.781197,0"
       sodipodi:start="0.87266463"
       sodipodi:end="2.268928"
       sodipodi:open="true" />
    <path
       transform="matrix(1,0,0,-1,121.83414,1015.7204)"
       sodipodi:type="arc"
       style="fill:none;stroke:#000000;stroke-width:0.5;stroke-linecap:butt;stroke-miterlimit:10.43299961;stroke-opacity:1;stroke-dasharray:none;stroke-dashoffset:0"
       id="path2985-8-9-2-9-5"
       sodipodi:cx="87.85714"
       sodipodi:cy="50.736774"
       sodipodi:rx="32.5"
       sodipodi:ry="32.5"
       d="m 108.74774,75.633219 c -12.082089,10.138074 -29.699111,10.138074 -41.781197,0"
       sodipodi:start="0.87266463"
       sodipodi:end="2.268928"
       sodipodi:open="true" />
    <path
       transform="matrix(1,0,0,-1,132.56111,1021.698)"
       sodipodi:type="arc"
       style="fill:none;stroke:#000000;stroke-width:0.5;stroke-linecap:butt;stroke-miterlimit:10.43299961;stroke-opacity:1;stroke-dasharray:none;stroke-dashoffset:0"
       id="path2985-8-9-2-1-9-5"
       sodipodi:cx="87.85714"
       sodipodi:cy="50.736774"
       sodipodi:rx="32.5"
       sodipodi:ry="32.5"
       d="m 108.74774,75.633219 c -12.082089,10.138074 -29.699111,10.138074 -41.781197,0"
       sodipodi:start="0.87266463"
       sodipodi:end="2.268928"
       sodipodi:open="true" />
    <path
       transform="matrix(1,0,0,-1,135.54501,1022.5236)"
       sodipodi:type="arc"
       style="fill:none;stroke:#000000;stroke-width:0.5;stroke-linecap:butt;stroke-miterlimit:10.43299961;stroke-opacity:1;stroke-dasharray:none;stroke-dashoffset:0"
       id="path2985-8-9-2-1-7-4"
       sodipodi:cx="87.85714"
       sodipodi:cy="50.736774"
       sodipodi:rx="32.5"
       sodipodi:ry="32.5"
       d="m 108.74774,75.633219 c -12.082089,10.138074 -29.699111,10.138074 -41.781197,0"
       sodipodi:start="0.87266463"
       sodipodi:end="2.268928"
       sodipodi:open="true" />
    <path
       transform="matrix(1,0,0,-1,151.31833,1022.1706)"
       sodipodi:type="arc"
       style="fill:none;stroke:#000000;stroke-width:0.5;stroke-linecap:butt;stroke-miterlimit:10.43299961;stroke-opacity:1;stroke-dasharray:none;stroke-dashoffset:0"
       id="path2985-8-9-2-1-3-4"
       sodipodi:cx="87.85714"
       sodipodi:cy="50.736774"
       sodipodi:rx="32.5"
       sodipodi:ry="32.5"
       d="m 108.74774,75.633219 c -12.082089,10.138074 -29.699111,10.138074 -41.781197,0"
       sodipodi:start="0.87266463"
       sodipodi:end="2.268928"
       sodipodi:open="true" />
    <path
       transform="matrix(1,0,0,-1,147.26577,1023.0063)"
       sodipodi:type="arc"
       style="fill:none;stroke:#000000;stroke-width:1.5;stroke-linecap:butt;stroke-miterlimit:10.43299961;stroke-opacity:1;stroke-dasharray:none;stroke-dashoffset:0"
       id="path2985-8-9-2-1-6-0"
       sodipodi:cx="87.85714"
       sodipodi:cy="50.736774"
       sodipodi:rx="32.5"
       sodipodi:ry="32.5"
       d="m 108.74774,75.633219 c -12.082089,10.138074 -29.699111,10.138074 -41.781197,0"
       sodipodi:start="0.87266463"
       sodipodi:end="2.268928"
       sodipodi:open="true" />
    <path
       transform="matrix(1,0,0,-1,163.61534,1015.7204)"
       sodipodi:type="arc"
       style="fill:none;stroke:#000000;stroke-width:0.5;stroke-linecap:butt;stroke-miterlimit:10.43299961;stroke-opacity:1;stroke-dasharray:none;stroke-dashoffset:0"
       id="path2985-8-9-2-1-4-5"
       sodipodi:cx="87.85714"
       sodipodi:cy="50.736774"
       sodipodi:rx="32.5"
       sodipodi:ry="32.5"
       d="m 108.74774,75.633219 c -12.082089,10.138074 -29.699111,10.138074 -41.781197,0"
       sodipodi:start="0.87266463"
       sodipodi:end="2.268928"
       sodipodi:open="true" />
    <path
       transform="matrix(1,0,0,-1,126.78351,1019.1496)"
       sodipodi:type="arc"
       style="fill:none;stroke:#000000;stroke-width:0.5;stroke-linecap:butt;stroke-miterlimit:10.43299961;stroke-opacity:1;stroke-dasharray:none;stroke-dashoffset:0"
       id="path2985-8-9-2-1-2-8"
       sodipodi:cx="87.85714"
       sodipodi:cy="50.736774"
       sodipodi:rx="32.5"
       sodipodi:ry="32.5"
       d="m 108.74774,75.633219 c -12.082089,10.138074 -29.699111,10.138074 -41.781197,0"
       sodipodi:start="0.87266463"
       sodipodi:end="2.268928"
       sodipodi:open="true" />
    <path
       transform="matrix(1,0,0,-1,124.28302,1017.5867)"
       sodipodi:type="arc"
       style="fill:none;stroke:#000000;stroke-width:0.5;stroke-linecap:butt;stroke-miterlimit:10.43299961;stroke-opacity:1;stroke-dasharray:none;stroke-dashoffset:0"
       id="path2985-8-9-2-1-20-9"
       sodipodi:cx="87.85714"
       sodipodi:cy="50.736774"
       sodipodi:rx="32.5"
       sodipodi:ry="32.5"
       d="m 108.74774,75.633219 c -12.082089,10.138074 -29.699111,10.138074 -41.781197,0"
       sodipodi:start="0.87266463"
       sodipodi:end="2.268928"
       sodipodi:open="true" />
    <path
       transform="matrix(1,0,0,-1,139.30927,1023.1447)"
       sodipodi:type="arc"
       style="fill:none;stroke:#000000;stroke-width:0.5;stroke-linecap:butt;stroke-miterlimit:10.43299961;stroke-opacity:1;stroke-dasharray:none;stroke-dashoffset:0"
       id="path2985-8-9-2-1-49-7"
       sodipodi:cx="87.85714"
       sodipodi:cy="50.736774"
       sodipodi:rx="32.5"
       sodipodi:ry="32.5"
       d="m 108.74774,75.633219 c -12.082089,10.138074 -29.699111,10.138074 -41.781197,0"
       sodipodi:start="0.87266463"
       sodipodi:end="2.268928"
       sodipodi:open="true" />
    <g
       id="g4231"
       transform="translate(177.28177,-123.74369)">
      <path
         sodipodi:open="true"
         sodipodi:end="9.7738438"
         sodipodi:start="5.9341195"
         transform="translate(238.82142,1028.2504)"
         d="m 118.39715,39.621121 c 6.13901,16.866782 -2.55757,35.516658 -19.424357,41.655664 -16.866782,6.139006 -35.516658,-2.557575 -41.655664,-19.424357 -2.613319,-7.180037 -2.613319,-15.051271 0,-22.231308"
         sodipodi:ry="32.5"
         sodipodi:rx="32.5"
         sodipodi:cy="50.736774"
         sodipodi:cx="87.85714"
         id="path2985-2"
         style="fill:none;stroke:#000000;stroke-width:1.5;stroke-linecap:butt;stroke-miterlimit:10.43299961;stroke-opacity:1;stroke-dasharray:none;stroke-dashoffset:0"
         sodipodi:type="arc" />
      <path
         sodipodi:open="true"
         sodipodi:end="9.7738438"
         sodipodi:start="5.9341195"
         d="m 118.39715,39.621121 c 6.13901,16.866782 -2.55757,35.516658 -19.424357,41.655664 -16.866782,6.139006 -35.516658,-2.557575 -41.655664,-19.424357 -2.613319,-7.180037 -2.613319,-15.051271 0,-22.231308"
         sodipodi:ry="32.5"
         sodipodi:rx="32.5"
         sodipodi:cy="50.736774"
         sodipodi:cx="87.85714"
         id="path2985-8-5"
         style="fill:none;stroke:#000000;stroke-width:0.5;stroke-linecap:butt;stroke-miterlimit:10.43299961;stroke-opacity:1;stroke-dasharray:none;stroke-dashoffset:0"
         sodipodi:type="arc"
         transform="matrix(1,0,0,-1,270.07442,1151.1093)" />
      <path
         sodipodi:open="true"
         sodipodi:end="9.7738438"
         sodipodi:start="5.9341195"
         d="m 118.39715,39.621121 c 6.13901,16.866782 -2.55757,35.516658 -19.424357,41.655664 -16.866782,6.139006 -35.516658,-2.557575 -41.655664,-19.424357 -2.613319,-7.180037 -2.613319,-15.051271 0,-22.231308"
         sodipodi:ry="32.5"
         sodipodi:rx="32.5"
         sodipodi:cy="50.736774"
         sodipodi:cx="87.85714"
         id="path2985-8-9-4"
         style="fill:none;stroke:#000000;stroke-width:0.5;stroke-linecap:butt;stroke-miterlimit:10.43299961;stroke-opacity:1;stroke-dasharray:none;stroke-dashoffset:0"
         sodipodi:type="arc"
         transform="matrix(1,0,0,-1,251.22148,1145.0001)" />
      <path
         sodipodi:open="true"
         sodipodi:end="9.7738438"
         sodipodi:start="5.9341195"
         d="m 118.39715,39.621121 c 6.13901,16.866782 -2.55757,35.516658 -19.424357,41.655664 -16.866782,6.139006 -35.516658,-2.557575 -41.655664,-19.424357 -2.613319,-7.180037 -2.613319,-15.051271 0,-22.231308"
         sodipodi:ry="32.5"
         sodipodi:rx="32.5"
         sodipodi:cy="50.736774"
         sodipodi:cx="87.85714"
         id="path2985-8-9-2-8"
         style="fill:none;stroke:#000000;stroke-width:0.5;stroke-linecap:butt;stroke-miterlimit:10.43299961;stroke-opacity:1;stroke-dasharray:none;stroke-dashoffset:0"
         sodipodi:type="arc"
         transform="matrix(1,0,0,-1,243.89275,1138.8115)" />
      <path
         sodipodi:open="true"
         sodipodi:end="9.7738438"
         sodipodi:start="5.9341195"
         d="m 118.39715,39.621121 c 6.13901,16.866782 -2.55757,35.516658 -19.424357,41.655664 -16.866782,6.139006 -35.516658,-2.557575 -41.655664,-19.424357 -2.613319,-7.180037 -2.613319,-15.051271 0,-22.231308"
         sodipodi:ry="32.5"
         sodipodi:rx="32.5"
         sodipodi:cy="50.736774"
         sodipodi:cx="87.85714"
         id="path2985-8-9-2-1-77"
         style="fill:none;stroke:#000000;stroke-width:0.5;stroke-linecap:butt;stroke-miterlimit:10.43299961;stroke-opacity:1;stroke-dasharray:none;stroke-dashoffset:0"
         sodipodi:type="arc"
         transform="matrix(1,0,0,-1,254.78034,1147.6539)" />
      <path
         sodipodi:open="true"
         sodipodi:end="9.7738438"
         sodipodi:start="5.9341195"
         d="m 118.39715,39.621121 c 6.13901,16.866782 -2.55757,35.516658 -19.424357,41.655664 -16.866782,6.139006 -35.516658,-2.557575 -41.655664,-19.424357 -2.613319,-7.180037 -2.613319,-15.051271 0,-22.231308"
         sodipodi:ry="32.5"
         sodipodi:rx="32.5"
         sodipodi:cy="50.736774"
         sodipodi:cx="87.85714"
         id="path2985-8-9-2-1-9-1"
         style="fill:none;stroke:#000000;stroke-width:0.5;stroke-linecap:butt;stroke-miterlimit:10.43299961;stroke-opacity:1;stroke-dasharray:none;stroke-dashoffset:0"
         sodipodi:type="arc"
         transform="matrix(1,0,0,-1,241.00093,1134.4907)" />
      <path
         sodipodi:open="true"
         sodipodi:end="9.7738438"
         sodipodi:start="5.9341195"
         d="m 118.39715,39.621121 c 6.13901,16.866782 -2.55757,35.516658 -19.424357,41.655664 -16.866782,6.139006 -35.516658,-2.557575 -41.655664,-19.424357 -2.613319,-7.180037 -2.613319,-15.051271 0,-22.231308"
         sodipodi:ry="32.5"
         sodipodi:rx="32.5"
         sodipodi:cy="50.736774"
         sodipodi:cx="87.85714"
         id="path2985-8-9-2-1-7-9"
         style="fill:none;stroke:#000000;stroke-width:0.5;stroke-linecap:butt;stroke-miterlimit:10.43299961;stroke-opacity:1;stroke-dasharray:none;stroke-dashoffset:0"
         sodipodi:type="arc"
         transform="matrix(1,0,0,-1,238.63633,1129.2016)" />
      <path
         sodipodi:open="true"
         sodipodi:end="9.7738438"
         sodipodi:start="5.9341195"
         d="m 118.39715,39.621121 c 6.13901,16.866782 -2.55757,35.516658 -19.424357,41.655664 -16.866782,6.139006 -35.516658,-2.557575 -41.655664,-19.424357 -2.613319,-7.180037 -2.613319,-15.051271 0,-22.231308"
         sodipodi:ry="32.5"
         sodipodi:rx="32.5"
         sodipodi:cy="50.736774"
         sodipodi:cx="87.85714"
         id="path2985-8-9-2-1-3-7"
         style="fill:none;stroke:#000000;stroke-width:0.5;stroke-linecap:butt;stroke-miterlimit:10.43299961;stroke-opacity:1;stroke-dasharray:none;stroke-dashoffset:0"
         sodipodi:type="arc"
         transform="matrix(1,0,0,-1,247.02248,1142.2236)" />
      <path
         sodipodi:open="true"
         sodipodi:end="9.7738438"
         sodipodi:start="5.9341195"
         d="m 118.39715,39.621121 c 6.13901,16.866782 -2.55757,35.516658 -19.424357,41.655664 -16.866782,6.139006 -35.516658,-2.557575 -41.655664,-19.424357 -2.613319,-7.180037 -2.613319,-15.051271 0,-22.231308"
         sodipodi:ry="32.5"
         sodipodi:rx="32.5"
         sodipodi:cy="50.736774"
         sodipodi:cx="87.85714"
         id="path2985-8-9-2-1-6-6"
         style="fill:none;stroke:#000000;stroke-width:1.5;stroke-linecap:butt;stroke-miterlimit:10.43299961;stroke-opacity:1;stroke-dasharray:none;stroke-dashoffset:0"
         sodipodi:type="arc"
         transform="matrix(1,0,0,-1,284.79686,1147.2138)" />
      <path
         sodipodi:open="true"
         sodipodi:end="9.7738438"
         sodipodi:start="5.9341195"
         d="m 118.39715,39.621121 c 6.13901,16.866782 -2.55757,35.516658 -19.424357,41.655664 -16.866782,6.139006 -35.516658,-2.557575 -41.655664,-19.424357 -2.613319,-7.180037 -2.613319,-15.051271 0,-22.231308"
         sodipodi:ry="32.5"
         sodipodi:rx="32.5"
         sodipodi:cy="50.736774"
         sodipodi:cx="87.85714"
         id="path2985-8-9-2-1-4-1"
         style="fill:none;stroke:#000000;stroke-width:0.5;stroke-linecap:butt;stroke-miterlimit:10.43299961;stroke-opacity:1;stroke-dasharray:none;stroke-dashoffset:0"
         sodipodi:type="arc"
         transform="matrix(1,0,0,-1,259.71639,1149.6459)" />
      <path
         sodipodi:open="true"
         sodipodi:end="9.7738438"
         sodipodi:start="5.9341195"
         d="m 118.39715,39.621121 c 6.13901,16.866782 -2.55757,35.516658 -19.424357,41.655664 -16.866782,6.139006 -35.516658,-2.557575 -41.655664,-19.424357 -2.613319,-7.180037 -2.613319,-15.051271 0,-22.231308"
         sodipodi:ry="32.5"
         sodipodi:rx="32.5"
         sodipodi:cy="50.736774"
         sodipodi:cx="87.85714"
         id="path2985-8-9-2-1-2-9"
         style="fill:none;stroke:#000000;stroke-width:0.5;stroke-linecap:butt;stroke-miterlimit:10.43299961;stroke-opacity:1;stroke-dasharray:none;stroke-dashoffset:0"
         sodipodi:type="arc"
         transform="matrix(1,0,0,-1,238.63633,1129.2016)" />
      <path
         sodipodi:open="true"
         sodipodi:end="9.7738438"
         sodipodi:start="5.9341195"
         d="m 118.39715,39.621121 c 6.13901,16.866782 -2.55757,35.516658 -19.424357,41.655664 -16.866782,6.139006 -35.516658,-2.557575 -41.655664,-19.424357 -2.613319,-7.180037 -2.613319,-15.051271 0,-22.231308"
         sodipodi:ry="32.5"
         sodipodi:rx="32.5"
         sodipodi:cy="50.736774"
         sodipodi:cx="87.85714"
         id="path2985-8-9-2-1-20-6"
         style="fill:none;stroke:#000000;stroke-width:0.5;stroke-linecap:butt;stroke-miterlimit:10.43299961;stroke-opacity:1;stroke-dasharray:none;stroke-dashoffset:0"
         sodipodi:type="arc"
         transform="matrix(1,0,0,-1,238.82142,1107.4926)" />
      <path
         sodipodi:open="true"
         sodipodi:end="9.7738438"
         sodipodi:start="5.9341195"
         d="m 118.39715,39.621121 c 6.13901,16.866782 -2.55757,35.516658 -19.424357,41.655664 -16.866782,6.139006 -35.516658,-2.557575 -41.655664,-19.424357 -2.613319,-7.180037 -2.613319,-15.051271 0,-22.231308"
         sodipodi:ry="32.5"
         sodipodi:rx="32.5"
         sodipodi:cy="50.736774"
         sodipodi:cx="87.85714"
         id="path2985-8-9-2-1-49-3"
         style="fill:none;stroke:#000000;stroke-width:0.5;stroke-linecap:butt;stroke-miterlimit:10.43299961;stroke-opacity:1;stroke-dasharray:none;stroke-dashoffset:0"
         sodipodi:type="arc"
         transform="matrix(1,0,0,-1,264.89608,1150.8066)" />
      <path
         sodipodi:open="true"
         sodipodi:end="9.7738438"
         sodipodi:start="5.9341195"
         d="m 118.39715,39.621121 c 6.13901,16.866782 -2.55757,35.516658 -19.424357,41.655664 -16.866782,6.139006 -35.516658,-2.557575 -41.655664,-19.424357 -2.613319,-7.180037 -2.613319,-15.051271 0,-22.231308"
         sodipodi:ry="32.5"
         sodipodi:rx="32.5"
         sodipodi:cy="50.736774"
         sodipodi:cx="87.85714"
         id="path2985-8-5-4"
         style="fill:none;stroke:#000000;stroke-width:0.5;stroke-linecap:butt;stroke-miterlimit:10.43299961;stroke-opacity:1;stroke-dasharray:none;stroke-dashoffset:0"
         sodipodi:type="arc"
         transform="matrix(1,0,0,-1,274.18293,1150.7551)" />
      <path
         sodipodi:open="true"
         sodipodi:end="9.7738438"
         sodipodi:start="5.9341195"
         d="m 118.39715,39.621121 c 6.13901,16.866782 -2.55757,35.516658 -19.424357,41.655664 -16.866782,6.139006 -35.516658,-2.557575 -41.655664,-19.424357 -2.613319,-7.180037 -2.613319,-15.051271 0,-22.231308"
         sodipodi:ry="32.5"
         sodipodi:rx="32.5"
         sodipodi:cy="50.736774"
         sodipodi:cx="87.85714"
         id="path2985-8-5-48"
         style="fill:none;stroke:#000000;stroke-width:0.5;stroke-linecap:butt;stroke-miterlimit:10.43299961;stroke-opacity:1;stroke-dasharray:none;stroke-dashoffset:0"
         sodipodi:type="arc"
         transform="matrix(1,0,0,-1,279.45104,1149.5028)" />
      <path
         sodipodi:open="true"
         sodipodi:end="9.7738438"
         sodipodi:start="5.9341195"
         d="m 118.39715,39.621121 c 6.13901,16.866782 -2.55757,35.516658 -19.424357,41.655664 -16.866782,6.139006 -35.516658,-2.557575 -41.655664,-19.424357 -2.613319,-7.180037 -2.613319,-15.051271 0,-22.231308"
         sodipodi:ry="32.5"
         sodipodi:rx="32.5"
         sodipodi:cy="50.736774"
         sodipodi:cx="87.85714"
         id="path2985-8-5-9"
         style="fill:none;stroke:#000000;stroke-width:0.5;stroke-linecap:butt;stroke-miterlimit:10.43299961;stroke-opacity:1;stroke-dasharray:none;stroke-dashoffset:0"
         sodipodi:type="arc"
         transform="matrix(1,0,0,-1,288.92449,1144.5717)" />
      <path
         sodipodi:open="true"
         sodipodi:end="9.7738438"
         sodipodi:start="5.9341195"
         d="m 118.39715,39.621121 c 6.13901,16.866782 -2.55757,35.516658 -19.424357,41.655664 -16.866782,6.139006 -35.516658,-2.557575 -41.655664,-19.424357 -2.613319,-7.180037 -2.613319,-15.051271 0,-22.231308"
         sodipodi:ry="32.5"
         sodipodi:rx="32.5"
         sodipodi:cy="50.736774"
         sodipodi:cx="87.85714"
         id="path2985-8-5-1"
         style="fill:none;stroke:#000000;stroke-width:0.5;stroke-linecap:butt;stroke-miterlimit:10.43299961;stroke-opacity:1;stroke-dasharray:none;stroke-dashoffset:0"
         sodipodi:type="arc"
         transform="matrix(1,0,0,-1,293.10188,1140.814)" />
      <path
         sodipodi:open="true"
         sodipodi:end="9.7738438"
         sodipodi:start="5.9341195"
         d="m 118.39715,39.621121 c 6.13901,16.866782 -2.55757,35.516658 -19.424357,41.655664 -16.866782,6.139006 -35.516658,-2.557575 -41.655664,-19.424357 -2.613319,-7.180037 -2.613319,-15.051271 0,-22.231308"
         sodipodi:ry="32.5"
         sodipodi:rx="32.5"
         sodipodi:cy="50.736774"
         sodipodi:cx="87.85714"
         id="path2985-8-5-6"
         style="fill:none;stroke:#000000;stroke-width:0.5;stroke-linecap:butt;stroke-miterlimit:10.43299961;stroke-opacity:1;stroke-dasharray:none;stroke-dashoffset:0"
         sodipodi:type="arc"
         transform="matrix(1,0,0,-1,296.96629,1135.7638)" />
      <path
         sodipodi:open="true"
         sodipodi:end="9.7738438"
         sodipodi:start="5.9341195"
         d="m 118.39715,39.621121 c 6.13901,16.866782 -2.55757,35.516658 -19.424357,41.655664 -16.866782,6.139006 -35.516658,-2.557575 -41.655664,-19.424357 -2.613319,-7.180037 -2.613319,-15.051271 0,-22.231308"
         sodipodi:ry="32.5"
         sodipodi:rx="32.5"
         sodipodi:cy="50.736774"
         sodipodi:cx="87.85714"
         id="path2985-8-5-5"
         style="fill:none;stroke:#000000;stroke-width:0.5;stroke-linecap:butt;stroke-miterlimit:10.43299961;stroke-opacity:1;stroke-dasharray:none;stroke-dashoffset:0"
         sodipodi:type="arc"
         transform="matrix(1,0,0,-1,299.71635,1129.2016)" />
      <path
         sodipodi:open="true"
         sodipodi:end="9.7738438"
         sodipodi:start="5.9341195"
         d="m 118.39715,39.621121 c 6.13901,16.866782 -2.55757,35.516658 -19.424357,41.655664 -16.866782,6.139006 -35.516658,-2.557575 -41.655664,-19.424357 -2.613319,-7.180037 -2.613319,-15.051271 0,-22.231308"
         sodipodi:ry="32.5"
         sodipodi:rx="32.5"
         sodipodi:cy="50.736774"
         sodipodi:cx="87.85714"
         id="path2985-8-5-60"
         style="fill:none;stroke:#000000;stroke-width:0.5;stroke-linecap:butt;stroke-miterlimit:10.43299961;stroke-opacity:1;stroke-dasharray:none;stroke-dashoffset:0"
         sodipodi:type="arc"
         transform="matrix(1,0,0,-1,301.79823,1120.761)" />
      <path
         sodipodi:open="true"
         sodipodi:end="9.7738438"
         sodipodi:start="5.9341195"
         d="m 118.39715,39.621121 c 6.13901,16.866782 -2.55757,35.516658 -19.424357,41.655664 -16.866782,6.139006 -35.516658,-2.557575 -41.655664,-19.424357 -2.613319,-7.180037 -2.613319,-15.051271 0,-22.231308"
         sodipodi:ry="32.5"
         sodipodi:rx="32.5"
         sodipodi:cy="50.736774"
         sodipodi:cx="87.85714"
         id="path2985-8-5-0"
         style="fill:none;stroke:#000000;stroke-width:0.5;stroke-linecap:butt;stroke-miterlimit:10.43299961;stroke-opacity:1;stroke-dasharray:none;stroke-dashoffset:0"
         sodipodi:type="arc"
         transform="matrix(1,0,0,-1,301.79401,1116.3892)" />
      <path
         sodipodi:open="true"
         sodipodi:end="9.7738438"
         sodipodi:start="5.9341195"
         d="m 118.39715,39.621121 c 6.13901,16.866782 -2.55757,35.516658 -19.424357,41.655664 -16.866782,6.139006 -35.516658,-2.557575 -41.655664,-19.424357 -2.613319,-7.180037 -2.613319,-15.051271 0,-22.231308"
         sodipodi:ry="32.5"
         sodipodi:rx="32.5"
         sodipodi:cy="50.736774"
         sodipodi:cx="87.85714"
         id="path2985-8-9-2-1-20-6-3"
         style="fill:none;stroke:#000000;stroke-width:0.5;stroke-linecap:butt;stroke-miterlimit:10.43299961;stroke-opacity:1;stroke-dasharray:none;stroke-dashoffset:0"
         sodipodi:type="arc"
         transform="matrix(1,0,0,-1,236.69069,1117.12)" />
      <path
         sodipodi:open="true"
         sodipodi:end="9.7738438"
         sodipodi:start="5.9341195"
         d="m 118.39715,39.621121 c 6.13901,16.866782 -2.55757,35.516658 -19.424357,41.655664 -16.866782,6.139006 -35.516658,-2.557575 -41.655664,-19.424357 -2.613319,-7.180037 -2.613319,-15.051271 0,-22.231308"
         sodipodi:ry="32.5"
         sodipodi:rx="32.5"
         sodipodi:cy="50.736774"
         sodipodi:cx="87.85714"
         id="path2985-8-5-0-3"
         style="fill:none;stroke:#000000;stroke-width:0.5;stroke-linecap:butt;stroke-miterlimit:10.43299961;stroke-opacity:1;stroke-dasharray:none;stroke-dashoffset:0"
         sodipodi:type="arc"
         transform="matrix(1,0,0,-1,299.90144,1107.4926)" />
    </g>
    <text
       xml:space="preserve"
       style="font-size:11px;font-style:normal;font-variant:normal;font-weight:normal;font-stretch:normal;line-height:125%;letter-spacing:0px;word-spacing:0px;fill:#000000;fill-opacity:1;stroke:none;font-family:DejaVu Sans;-inkscape-font-specification:DejaVu Sans"
       x="130.30968"
       y="158.9826"
       id="text4149"
       sodipodi:linespacing="125%"
       transform="translate(0,875.19684)"><tspan
         sodipodi:role="line"
         id="tspan4151"
         x="130.30968"
         y="158.9826" /></text>
    <text
       xml:space="preserve"
       style="font-size:11px;font-style:normal;font-variant:normal;font-weight:normal;font-stretch:normal;line-height:125%;letter-spacing:0px;word-spacing:0px;fill:#000000;fill-opacity:1;stroke:none;font-family:cmr10;-inkscape-font-specification:cmr10"
       x="333.32056"
       y="885.0625"
       id="text4153"
       sodipodi:linespacing="125%"><tspan
         sodipodi:role="line"
         id="tspan4155"
         x="333.32056"
         y="885.0625"
         style="font-style:normal;font-variant:normal;font-weight:normal;font-stretch:normal;font-family:Sans;-inkscape-font-specification:Sans">$\alpha=90\textrm{\textdegree}$</tspan></text>
    <text
       xml:space="preserve"
       style="font-size:11px;font-style:normal;font-variant:normal;font-weight:normal;font-stretch:normal;line-height:125%;letter-spacing:0px;word-spacing:0px;fill:#000000;fill-opacity:1;stroke:none;font-family:cmr10;-inkscape-font-specification:cmr10"
       x="206.39977"
       y="902.76807"
       id="text4153-2"
       sodipodi:linespacing="125%"><tspan
         sodipodi:role="line"
         id="tspan4155-6"
         x="206.39977"
         y="902.76807"
         style="font-style:normal;font-variant:normal;font-weight:normal;font-stretch:normal;font-family:Sans;-inkscape-font-specification:Sans">$\alpha=40\textrm{\textdegree}$</tspan></text>
    <text
       xml:space="preserve"
       style="font-size:11px;font-style:normal;font-variant:normal;font-weight:normal;font-stretch:normal;line-height:125%;letter-spacing:0px;word-spacing:0px;fill:#000000;fill-opacity:1;stroke:none;font-family:cmr10;-inkscape-font-specification:cmr10"
       x="486.76962"
       y="886.41925"
       id="text4153-0"
       sodipodi:linespacing="125%"><tspan
         sodipodi:role="line"
         id="tspan4155-66"
         x="486.76962"
         y="886.41925"
         style="font-style:normal;font-variant:normal;font-weight:normal;font-stretch:normal;font-family:Sans;-inkscape-font-specification:Sans">$\alpha=110\textrm{\textdegree}$</tspan></text>
    <path
       style="fill:none;stroke:#000000;stroke-width:0.75;stroke-linecap:butt;stroke-linejoin:miter;stroke-miterlimit:4;stroke-opacity:1;stroke-dasharray:0.75, 1.5;stroke-dashoffset:0"
       d="m 230.58188,940.08723 -24.8964,-20.8906"
       id="path4290-0"
       inkscape:connector-curvature="0" />
    <path
       style="fill:none;stroke:#000000;stroke-width:0.75;stroke-linecap:butt;stroke-linejoin:miter;stroke-miterlimit:4;stroke-opacity:1;stroke-dasharray:0.75, 1.5;stroke-dashoffset:0"
       d="m 230.58188,940.08723 24.8964,-20.8906"
       id="path4290-0-9"
       inkscape:connector-curvature="0" />
    <path
       style="fill:none;stroke:#000000;stroke-width:0.75;stroke-linecap:butt;stroke-linejoin:miter;stroke-miterlimit:4;stroke-opacity:1;stroke-dasharray:0.75, 1.5;stroke-dashoffset:0"
       d="m 255.47828,960.97783 -24.8964,-20.8906"
       id="path4290-0-5"
       inkscape:connector-curvature="0" />
    <path
       style="fill:none;stroke:#000000;stroke-width:0.75;stroke-linecap:butt;stroke-linejoin:miter;stroke-miterlimit:4;stroke-opacity:1;stroke-dasharray:0.75, 1.5;stroke-dashoffset:0"
       d="m 205.68548,960.97783 24.8964,-20.8906"
       id="path4290-0-9-4"
       inkscape:connector-curvature="0" />
    <text
       xml:space="preserve"
       style="font-size:11px;font-style:normal;font-variant:normal;font-weight:normal;font-stretch:normal;line-height:125%;letter-spacing:0px;word-spacing:0px;fill:#000000;fill-opacity:1;stroke:none;font-family:cmr10;-inkscape-font-specification:cmr10"
       x="266.78574"
       y="1017.5407"
       id="text4403"
       sodipodi:linespacing="125%"><tspan
         sodipodi:role="line"
         id="tspan4405"
         x="266.78574"
         y="1017.5407"
         style="font-size:14px">missing cone</tspan></text>
    <path
       style="fill:none;stroke:#000000;stroke-width:0.75;stroke-linecap:butt;stroke-linejoin:miter;stroke-miterlimit:4;stroke-opacity:1;stroke-dasharray:0.75, 1.5;stroke-dashoffset:0"
       d="M 373.01338,70.535506 C 371.73102,56.087718 365.97465,42.42917 362.67857,27.87963"
       id="path4407"
       inkscape:connector-curvature="0"
       transform="translate(0,875.19684)"
       sodipodi:nodetypes="cc" />
    <path
       style="fill:none;stroke:#000000;stroke-width:0.75;stroke-linecap:butt;stroke-linejoin:miter;stroke-miterlimit:4;stroke-opacity:1;stroke-dasharray:0.75, 1.5;stroke-dashoffset:0"
       d="m 373.01338,945.55375 c 1.28236,-14.44779 7.03873,-28.10634 10.33481,-42.65588"
       id="path4407-2"
       inkscape:connector-curvature="0"
       sodipodi:nodetypes="cc" />
    <path
       style="fill:none;stroke:#000000;stroke-width:0.75;stroke-linecap:butt;stroke-linejoin:miter;stroke-miterlimit:4;stroke-opacity:1;stroke-dasharray:0.75, 1.5;stroke-dashoffset:0"
       d="m 373.01338,945.55375 c -1.28236,14.44779 -7.03873,28.10634 -10.33481,42.65588"
       id="path4407-5"
       inkscape:connector-curvature="0"
       sodipodi:nodetypes="cc" />
    <path
       style="fill:none;stroke:#000000;stroke-width:0.75;stroke-linecap:butt;stroke-linejoin:miter;stroke-miterlimit:4;stroke-opacity:1;stroke-dasharray:0.75, 1.5;stroke-dashoffset:0"
       d="m 373.01338,945.73235 c 1.28236,14.44779 7.03873,28.10634 10.33481,42.65588"
       id="path4407-2-6"
       inkscape:connector-curvature="0"
       sodipodi:nodetypes="cc" />
    <path
       style="fill:none;stroke:#000000;stroke-width:1px;stroke-linecap:butt;stroke-linejoin:miter;stroke-opacity:1"
       d="M 262.11337,139.74405 C 230.1479,139.44969 236.54673,111.38132 232.5,81.093916"
       id="path4448"
       inkscape:connector-curvature="0"
       transform="translate(0,875.19684)"
       sodipodi:nodetypes="cc" />
    <path
       style="fill:none;stroke:#000000;stroke-width:0.99999994px;stroke-linecap:butt;stroke-linejoin:miter;stroke-opacity:1"
       d="m 351.6929,1014.1479 c 12.57636,-1.3684 22.38732,17.8432 20.96334,-26.80844"
       id="path4450"
       inkscape:connector-curvature="0"
       sodipodi:nodetypes="cc" />
    <text
       xml:space="preserve"
       style="font-size:11px;font-style:normal;font-variant:normal;font-weight:normal;font-stretch:normal;line-height:125%;letter-spacing:0px;word-spacing:0px;fill:#000000;fill-opacity:1;stroke:none;font-family:cmr10;-inkscape-font-specification:cmr10"
       x="647.32159"
       y="963.763"
       id="text4153-2-4"
       sodipodi:linespacing="125%"><tspan
         sodipodi:role="line"
         id="tspan4155-6-5"
         x="647.32159"
         y="963.763"
         style="font-style:normal;font-variant:normal;font-weight:normal;font-stretch:normal;font-family:Sans;-inkscape-font-specification:Sans">$k_x$</tspan></text>
    <text
       xml:space="preserve"
       style="font-size:11px;font-style:normal;font-variant:normal;font-weight:normal;font-stretch:normal;line-height:125%;letter-spacing:0px;word-spacing:0px;fill:#000000;fill-opacity:1;stroke:none;font-family:cmr10;-inkscape-font-specification:cmr10"
       x="620.87506"
       y="929.44324"
       id="text4473"
       sodipodi:linespacing="125%"><tspan
         sodipodi:role="line"
         id="tspan4475"
         x="620.87506"
         y="929.44324"
         style="font-style:normal;font-variant:normal;font-weight:normal;font-stretch:normal;font-family:Sans;-inkscape-font-specification:Sans">$k_z$</tspan></text>
    <path
       style="fill:none;stroke:#000000;stroke-width:1.5;stroke-linecap:butt;stroke-linejoin:miter;stroke-miterlimit:4;stroke-opacity:1;stroke-dasharray:none;marker-start:url(#Arrow1Mstart);marker-end:url(#Arrow1Mend)"
       d="m 658.94659,947.30041 -18.92857,0 0,-30.71429"
       id="path4477"
       inkscape:connector-curvature="0"
       sodipodi:nodetypes="ccc" />
  </g>
</svg>
