<?xml version="1.0" encoding="UTF-8" standalone="no"?>
<svg
   xmlns:dc="http://purl.org/dc/elements/1.1/"
   xmlns:cc="http://creativecommons.org/ns#"
   xmlns:rdf="http://www.w3.org/1999/02/22-rdf-syntax-ns#"
   xmlns:svg="http://www.w3.org/2000/svg"
   xmlns="http://www.w3.org/2000/svg"
   xmlns:sodipodi="http://sodipodi.sourceforge.net/DTD/sodipodi-0.dtd"
   xmlns:inkscape="http://www.inkscape.org/namespaces/inkscape"
   version="1.1"
   id="body"
   width="3636.5005"
   height="510.31198"
   viewBox="0 0 5.0506952 0.70876664"
   preserveAspectRatio="none"
   inkscape:version="0.48.2 r9819"
   sodipodi:docname="objective-trace.svg">
  <metadata
     id="metadata149">
    <rdf:RDF>
      <cc:Work
         rdf:about="">
        <dc:format>image/svg+xml</dc:format>
        <dc:type
           rdf:resource="http://purl.org/dc/dcmitype/StillImage" />
      </cc:Work>
    </rdf:RDF>
  </metadata>
  <defs
     id="defs147" />
  <sodipodi:namedview
     pagecolor="#ffffff"
     bordercolor="#666666"
     borderopacity="1"
     objecttolerance="10"
     gridtolerance="10"
     guidetolerance="10"
     inkscape:pageopacity="0"
     inkscape:pageshadow="2"
     inkscape:window-width="681"
     inkscape:window-height="751"
     id="namedview145"
     showgrid="false"
     inkscape:zoom="0.58532728"
     inkscape:cx="496.95512"
     inkscape:cy="299.64481"
     inkscape:window-x="0"
     inkscape:window-y="15"
     inkscape:window-maximized="0"
     inkscape:current-layer="body"
     fit-margin-top="0"
     fit-margin-left="0"
     fit-margin-right="0"
     fit-margin-bottom="0" />
  <title
     id="title3">SVG drawing</title>
  <desc
     id="desc5">This was produced by version 4.2 of GNU libplot, a free library for exporting 2-D vector graphics.</desc>
  <polyline
     style="font-style:normal;font-variant:normal;font-weight:normal;font-stretch:normal;letter-spacing:normal;word-spacing:normal;text-anchor:start;fill:none;stroke:#b3b3b3;stroke-width:1;stroke-linecap:butt;stroke-linejoin:miter;stroke-miterlimit:10.43299961;stroke-opacity:1;stroke-dasharray:none;stroke-dashoffset:0"
     id="polyline9"
     points="100,499.61 100,499.63 100,499.66 100,499.68 100,499.71 100,499.73 100,499.76 100,499.79 100,499.82 100,499.84 100,499.87 100,499.89 100,499.92 100,499.95 100,499.97 100,500 100,500.03 100,500.05 100,500.08 100,500.11 100,500.13 100,500.16 100,500.18 100,500.21 100,500.24 100,500.27 100,500.29 100,500.32 100,500.34 100,500.37 100,500.39 "
     transform="matrix(0.0017361,0,0,-0.0017361,-0.07899195,1.0400867)" />
  <polyline
     style="font-style:normal;font-variant:normal;font-weight:normal;font-stretch:normal;letter-spacing:normal;word-spacing:normal;text-anchor:start;fill:none;stroke:#b3b3b3;stroke-width:1;stroke-linecap:butt;stroke-linejoin:miter;stroke-miterlimit:10.43299961;stroke-opacity:1;stroke-dasharray:none;stroke-dashoffset:0"
     id="polyline11"
     points="100.68,497.33 100.68,497.5 100.68,497.68 100.68,497.86 100.68,498.04 100.68,498.22 100.68,498.39 100.68,498.57 100.68,498.75 100.68,498.93 100.68,499.11 100.68,499.29 100.68,499.46 100.68,499.64 100.68,499.82 100.68,500 100.68,500.18 100.68,500.36 100.68,500.54 100.68,500.71 100.68,500.89 100.68,501.07 100.68,501.25 100.68,501.43 100.68,501.61 100.68,501.78 100.68,501.96 100.68,502.14 100.68,502.32 100.68,502.5 100.68,502.67 "
     transform="matrix(0.0017361,0,0,-0.0017361,-0.07899195,1.0400867)" />
  <polyline
     style="font-style:normal;font-variant:normal;font-weight:normal;font-stretch:normal;letter-spacing:normal;word-spacing:normal;text-anchor:start;fill:none;stroke:#b3b3b3;stroke-width:1;stroke-linecap:butt;stroke-linejoin:miter;stroke-miterlimit:10.43299961;stroke-opacity:1;stroke-dasharray:none;stroke-dashoffset:0"
     id="polyline13"
     points="101.16,496.04 101.16,496.3 101.16,496.57 101.16,496.83 101.16,497.1 101.16,497.36 101.16,497.62 101.16,497.89 101.16,498.15 101.16,498.41 101.16,498.68 101.16,498.95 101.16,499.21 101.16,499.47 101.16,499.73 101.16,500 101.16,500.27 101.16,500.53 101.16,500.79 101.16,501.05 101.16,501.32 101.16,501.58 101.16,501.85 101.16,502.11 101.16,502.38 101.16,502.64 101.16,502.9 101.16,503.17 101.16,503.43 101.16,503.7 101.16,503.96 "
     transform="matrix(0.0017361,0,0,-0.0017361,-0.07899195,1.0400867)" />
  <polyline
     style="font-style:normal;font-variant:normal;font-weight:normal;font-stretch:normal;letter-spacing:normal;word-spacing:normal;text-anchor:start;fill:none;stroke:#b3b3b3;stroke-width:1;stroke-linecap:butt;stroke-linejoin:miter;stroke-miterlimit:10.43299961;stroke-opacity:1;stroke-dasharray:none;stroke-dashoffset:0"
     id="polyline15"
     points="101.18,495.72 101.59,496.01 101.93,496.29 102.22,496.58 102.46,496.86 102.68,497.15 102.86,497.43 103.01,497.72 103.15,498 103.26,498.29 103.36,498.57 103.43,498.86 103.49,499.14 103.53,499.43 103.55,499.71 103.56,500 103.55,500.29 103.53,500.57 103.49,500.86 103.43,501.14 103.36,501.43 103.26,501.71 103.15,502 103.01,502.28 102.86,502.57 102.68,502.85 102.46,503.14 102.22,503.42 101.93,503.71 101.59,503.99 101.18,504.28 "
     transform="matrix(0.0017361,0,0,-0.0017361,-0.07899195,1.0400867)" />
  <polyline
     style="font-style:normal;font-variant:normal;font-weight:normal;font-stretch:normal;letter-spacing:normal;word-spacing:normal;text-anchor:start;fill:none;stroke:#b3b3b3;stroke-width:1;stroke-linecap:butt;stroke-linejoin:miter;stroke-miterlimit:10.43299961;stroke-opacity:1;stroke-dasharray:none;stroke-dashoffset:0"
     id="polyline17"
     points="104.22,489.03 106.77,489.76 108.2,490.49 109.27,491.23 110.11,491.96 110.82,492.69 111.4,493.42 111.89,494.15 112.31,494.88 112.66,495.61 112.94,496.34 113.17,497.07 113.34,497.8 113.46,498.54 113.54,499.27 113.56,500 113.54,500.73 113.46,501.46 113.34,502.2 113.17,502.93 112.94,503.66 112.66,504.39 112.31,505.12 111.89,505.85 111.4,506.58 110.82,507.31 110.11,508.04 109.27,508.77 108.2,509.51 106.77,510.24 "
     transform="matrix(0.0017361,0,0,-0.0017361,-0.07899195,1.0400867)" />
  <polyline
     style="font-style:normal;font-variant:normal;font-weight:normal;font-stretch:normal;letter-spacing:normal;word-spacing:normal;text-anchor:start;fill:none;stroke:#b3b3b3;stroke-width:1;stroke-linecap:butt;stroke-linejoin:miter;stroke-miterlimit:10.43299961;stroke-opacity:1;stroke-dasharray:none;stroke-dashoffset:0"
     id="polyline19"
     points="107.51,482.79 108.45,483.94 109.3,485.09 110.05,486.23 110.72,487.38 111.31,488.53 111.84,489.68 112.3,490.82 112.7,491.97 113.04,493.12 113.32,494.27 113.56,495.41 113.73,496.56 113.86,497.71 113.93,498.85 113.96,500 113.93,501.15 113.86,502.29 113.73,503.44 113.56,504.59 113.32,505.73 113.04,506.88 112.7,508.03 112.3,509.18 111.84,510.32 111.31,511.47 110.72,512.62 110.05,513.77 109.3,514.91 108.45,516.06 107.51,517.21 "
     transform="matrix(0.0017361,0,0,-0.0017361,-0.07899195,1.0400867)" />
  <polyline
     style="font-style:normal;font-variant:normal;font-weight:normal;font-stretch:normal;letter-spacing:normal;word-spacing:normal;text-anchor:start;fill:none;stroke:#b3b3b3;stroke-width:1;stroke-linecap:butt;stroke-linejoin:miter;stroke-miterlimit:10.43299961;stroke-opacity:1;stroke-dasharray:none;stroke-dashoffset:0"
     id="polyline21"
     points="119.13,483.18 120.76,484.3 122.1,485.42 123.23,486.54 124.19,487.66 125.03,488.79 125.75,489.91 126.37,491.03 126.89,492.15 127.34,493.27 127.71,494.39 128,495.52 128.23,496.64 128.39,497.76 128.49,498.88 128.52,500 128.49,501.12 128.39,502.24 128.23,503.36 128,504.48 127.71,505.61 127.34,506.73 126.89,507.85 126.37,508.97 125.75,510.09 125.03,511.21 124.19,512.34 123.23,513.46 122.1,514.58 120.76,515.7 "
     transform="matrix(0.0017361,0,0,-0.0017361,-0.07899195,1.0400867)" />
  <polyline
     style="font-style:normal;font-variant:normal;font-weight:normal;font-stretch:normal;letter-spacing:normal;word-spacing:normal;text-anchor:start;fill:none;stroke:#b3b3b3;stroke-width:1;stroke-linecap:butt;stroke-linejoin:miter;stroke-miterlimit:10.43299961;stroke-opacity:1;stroke-dasharray:none;stroke-dashoffset:0"
     id="polyline23"
     points="126.66,471.69 126.95,473.57 127.23,475.46 127.48,477.35 127.71,479.24 127.92,481.12 128.11,483.01 128.28,484.9 128.43,486.79 128.56,488.68 128.67,490.56 128.76,492.45 128.83,494.34 128.88,496.23 128.91,498.11 128.92,500 128.91,501.89 128.88,503.77 128.83,505.66 128.76,507.55 128.67,509.44 128.56,511.32 128.43,513.22 128.28,515.1 128.11,516.99 127.92,518.88 127.71,520.76 127.48,522.65 127.23,524.54 126.95,526.43 126.66,528.31 "
     transform="matrix(0.0017361,0,0,-0.0017361,-0.07899195,1.0400867)" />
  <polyline
     style="font-style:normal;font-variant:normal;font-weight:normal;font-stretch:normal;letter-spacing:normal;word-spacing:normal;text-anchor:start;fill:none;stroke:#b3b3b3;stroke-width:1;stroke-linecap:butt;stroke-linejoin:miter;stroke-miterlimit:10.43299961;stroke-opacity:1;stroke-dasharray:none;stroke-dashoffset:0"
     id="polyline25"
     points="130.11,470.5 131.75,472.46 133.21,474.43 134.52,476.4 135.68,478.36 136.7,480.33 137.61,482.3 138.41,484.27 139.1,486.23 139.69,488.2 140.18,490.16 140.58,492.13 140.89,494.1 141.1,496.07 141.24,498.03 141.28,500 141.24,501.96 141.1,503.93 140.89,505.9 140.58,507.87 140.18,509.84 139.69,511.8 139.1,513.77 138.41,515.73 137.61,517.7 136.7,519.67 135.68,521.64 134.52,523.6 133.21,525.57 131.75,527.53 "
     transform="matrix(0.0017361,0,0,-0.0017361,-0.07899195,1.0400867)" />
  <polyline
     style="font-style:normal;font-variant:normal;font-weight:normal;font-stretch:normal;letter-spacing:normal;word-spacing:normal;text-anchor:start;fill:none;stroke:#b3b3b3;stroke-width:1;stroke-linecap:butt;stroke-linejoin:miter;stroke-miterlimit:10.43299961;stroke-opacity:1;stroke-dasharray:none;stroke-dashoffset:0"
     id="polyline27"
     points="140.81,468.64 140.92,470.73 141.03,472.82 141.12,474.91 141.22,477 141.3,479.09 141.38,481.18 141.44,483.27 141.5,485.36 141.55,487.45 141.59,489.55 141.63,491.64 141.66,493.73 141.68,495.82 141.69,497.91 141.69,500 141.69,502.09 141.68,504.18 141.66,506.27 141.63,508.36 141.59,510.45 141.55,512.55 141.5,514.64 141.44,516.73 141.38,518.82 141.3,520.91 141.22,523 141.12,525.09 141.03,527.18 140.92,529.27 140.81,531.36 "
     transform="matrix(0.0017361,0,0,-0.0017361,-0.07899195,1.0400867)" />
  <polyline
     style="font-style:normal;font-variant:normal;font-weight:normal;font-stretch:normal;letter-spacing:normal;word-spacing:normal;text-anchor:start;fill:none;stroke:#b3b3b3;stroke-width:1;stroke-linecap:butt;stroke-linejoin:miter;stroke-miterlimit:10.43299961;stroke-opacity:1;stroke-dasharray:none;stroke-dashoffset:0"
     id="polyline29"
     points="159.67,466.22 157.65,468.47 155.86,470.73 154.27,472.98 152.87,475.23 151.62,477.48 150.53,479.73 149.57,481.98 148.74,484.24 148.04,486.49 147.45,488.74 146.97,490.99 146.6,493.25 146.34,495.5 146.18,497.75 146.13,500 146.18,502.25 146.34,504.5 146.6,506.75 146.97,509.01 147.45,511.26 148.04,513.51 148.74,515.76 149.57,518.02 150.53,520.27 151.62,522.52 152.87,524.77 154.27,527.02 155.86,529.27 157.65,531.53 "
     transform="matrix(0.0017361,0,0,-0.0017361,-0.07899195,1.0400867)" />
  <polyline
     style="font-style:normal;font-variant:normal;font-weight:normal;font-stretch:normal;letter-spacing:normal;word-spacing:normal;text-anchor:start;fill:none;stroke:#b3b3b3;stroke-width:1;stroke-linecap:butt;stroke-linejoin:miter;stroke-miterlimit:10.43299961;stroke-opacity:1;stroke-dasharray:none;stroke-dashoffset:0"
     id="polyline31"
     points="165.02,465.27 166.77,467.59 168.34,469.9 169.75,472.21 171.01,474.53 172.13,476.85 173.13,479.16 174,481.48 174.76,483.79 175.41,486.11 175.96,488.42 176.4,490.74 176.74,493.05 176.98,495.37 177.12,497.68 177.17,500 177.12,502.32 176.98,504.63 176.74,506.95 176.4,509.26 175.96,511.58 175.41,513.89 174.76,516.21 174,518.52 173.13,520.84 172.13,523.15 171.01,525.47 169.75,527.78 168.34,530.1 166.77,532.41 "
     transform="matrix(0.0017361,0,0,-0.0017361,-0.07899195,1.0400867)" />
  <polyline
     style="font-style:normal;font-variant:normal;font-weight:normal;font-stretch:normal;letter-spacing:normal;word-spacing:normal;text-anchor:start;fill:none;stroke:#b3b3b3;stroke-width:1;stroke-linecap:butt;stroke-linejoin:miter;stroke-miterlimit:10.43299961;stroke-opacity:1;stroke-dasharray:none;stroke-dashoffset:0"
     id="polyline33"
     points="183.94,467.33 183.09,469.51 182.31,471.69 181.59,473.86 180.93,476.04 180.34,478.22 179.81,480.4 179.34,482.57 178.92,484.75 178.56,486.93 178.26,489.11 178.01,491.29 177.82,493.46 177.68,495.64 177.6,497.82 177.57,500 177.6,502.18 177.68,504.36 177.82,506.54 178.01,508.71 178.26,510.89 178.56,513.07 178.92,515.25 179.34,517.43 179.81,519.6 180.34,521.78 180.93,523.96 181.59,526.14 182.31,528.31 183.09,530.49 183.94,532.67 "
     transform="matrix(0.0017361,0,0,-0.0017361,-0.07899195,1.0400867)" />
  <polyline
     style="font-style:normal;font-variant:normal;font-weight:normal;font-stretch:normal;letter-spacing:normal;word-spacing:normal;text-anchor:start;fill:none;stroke:#b3b3b3;stroke-width:1;stroke-linecap:butt;stroke-linejoin:miter;stroke-miterlimit:10.43299961;stroke-opacity:1;stroke-dasharray:none;stroke-dashoffset:0"
     id="polyline35"
     points="188.56,468.18 189.72,470.3 190.79,472.43 191.76,474.55 192.64,476.67 193.43,478.79 194.13,480.91 194.75,483.03 195.3,485.15 195.77,487.27 196.16,489.39 196.48,491.52 196.73,493.64 196.91,495.76 197.02,497.88 197.05,500 197.02,502.12 196.91,504.24 196.73,506.36 196.48,508.48 196.16,510.61 195.77,512.73 195.3,514.85 194.75,516.97 194.13,519.09 193.43,521.21 192.64,523.33 191.76,525.45 190.79,527.57 189.72,529.7 "
     transform="matrix(0.0017361,0,0,-0.0017361,-0.07899195,1.0400867)" />
  <polyline
     style="font-style:normal;font-variant:normal;font-weight:normal;font-stretch:normal;letter-spacing:normal;word-spacing:normal;text-anchor:start;fill:none;stroke:#b3b3b3;stroke-width:1;stroke-linecap:butt;stroke-linejoin:miter;stroke-miterlimit:10.43299961;stroke-opacity:1;stroke-dasharray:none;stroke-dashoffset:0"
     id="polyline37"
     points="214.59,470.84 212.59,472.78 210.86,474.72 209.34,476.67 208,478.61 206.82,480.55 205.79,482.5 204.89,484.45 204.12,486.39 203.46,488.33 202.91,490.28 202.46,492.22 202.12,494.17 201.88,496.11 201.74,498.05 201.69,500 201.74,501.95 201.88,503.89 202.12,505.83 202.46,507.78 202.91,509.72 203.46,511.67 204.12,513.61 204.89,515.55 205.79,517.5 206.82,519.45 208,521.39 209.34,523.33 210.86,525.28 212.59,527.22 "
     transform="matrix(0.0017361,0,0,-0.0017361,-0.07899195,1.0400867)" />
  <polyline
     style="font-style:normal;font-variant:normal;font-weight:normal;font-stretch:normal;letter-spacing:normal;word-spacing:normal;text-anchor:start;fill:none;stroke:#b3b3b3;stroke-width:1;stroke-linecap:butt;stroke-linejoin:miter;stroke-miterlimit:10.43299961;stroke-opacity:1;stroke-dasharray:none;stroke-dashoffset:0"
     id="polyline39"
     points="219.15,471.03 219.41,472.96 219.65,474.89 219.88,476.82 220.08,478.76 220.27,480.69 220.45,482.62 220.6,484.55 220.73,486.48 220.85,488.41 220.95,490.34 221.03,492.27 221.09,494.21 221.14,496.14 221.16,498.07 221.17,500 221.16,501.93 221.14,503.86 221.09,505.79 221.03,507.73 220.95,509.66 220.85,511.59 220.73,513.52 220.6,515.45 220.45,517.38 220.27,519.31 220.08,521.24 219.88,523.18 219.65,525.1 219.41,527.03 219.15,528.97 "
     transform="matrix(0.0017361,0,0,-0.0017361,-0.07899195,1.0400867)" />
  <polyline
     style="font-style:normal;font-variant:normal;font-weight:normal;font-stretch:normal;letter-spacing:normal;word-spacing:normal;text-anchor:start;fill:none;stroke:#b3b3b3;stroke-width:1;stroke-linecap:butt;stroke-linejoin:miter;stroke-miterlimit:10.43299961;stroke-opacity:1;stroke-dasharray:none;stroke-dashoffset:0"
     id="polyline41"
     points="231.47,479.41 229.98,480.78 228.7,482.15 227.57,483.53 226.59,484.9 225.73,486.27 224.97,487.64 224.32,489.02 223.75,490.39 223.27,491.76 222.88,493.14 222.55,494.51 222.31,495.88 222.13,497.25 222.03,498.63 221.99,500 222.03,501.37 222.13,502.75 222.31,504.12 222.55,505.49 222.88,506.86 223.27,508.24 223.75,509.61 224.32,510.98 224.97,512.35 225.73,513.73 226.59,515.1 227.57,516.47 228.7,517.85 229.98,519.22 "
     transform="matrix(0.0017361,0,0,-0.0017361,-0.07899195,1.0400867)" />
  <polyline
     style="font-style:normal;font-variant:normal;font-weight:normal;font-stretch:normal;letter-spacing:normal;word-spacing:normal;text-anchor:start;fill:none;stroke:#b3b3b3;stroke-width:1;stroke-linecap:butt;stroke-linejoin:miter;stroke-miterlimit:10.43299961;stroke-opacity:1;stroke-dasharray:none;stroke-dashoffset:0"
     id="polyline43"
     points="244.57,476.58 244.67,478.14 244.76,479.7 244.84,481.26 244.91,482.82 244.98,484.38 245.05,485.95 245.1,487.51 245.15,489.07 245.2,490.63 245.23,492.19 245.26,493.75 245.28,495.32 245.3,496.88 245.31,498.44 245.31,500 245.31,501.56 245.3,503.12 245.28,504.68 245.26,506.25 245.23,507.81 245.2,509.37 245.15,510.93 245.1,512.49 245.05,514.05 244.98,515.62 244.91,517.18 244.84,518.74 244.76,520.3 244.67,521.86 244.57,523.42 "
     transform="matrix(0.0017361,0,0,-0.0017361,-0.07899195,1.0400867)" />
  <polyline
     style="font-style:normal;font-variant:normal;font-weight:normal;font-stretch:normal;letter-spacing:normal;word-spacing:normal;text-anchor:start;fill:none;stroke:#b3b3b3;stroke-width:1;stroke-linecap:butt;stroke-linejoin:miter;stroke-miterlimit:10.43299961;stroke-opacity:1;stroke-dasharray:none;stroke-dashoffset:0"
     id="polyline45"
     points="259.07,486.66 257.1,487.54 255.68,488.43 254.55,489.32 253.62,490.21 252.85,491.1 252.19,491.99 251.62,492.88 251.15,493.77 250.75,494.66 250.43,495.55 250.16,496.44 249.96,497.33 249.82,498.22 249.74,499.11 249.71,500 249.74,500.89 249.82,501.78 249.96,502.67 250.16,503.56 250.43,504.45 250.75,505.34 251.15,506.23 251.62,507.12 252.19,508.01 252.85,508.9 253.62,509.79 254.55,510.68 255.68,511.57 257.1,512.46 259.07,513.34 "
     transform="matrix(0.0017361,0,0,-0.0017361,-0.07899195,1.0400867)" />
  <polyline
     style="font-style:normal;font-variant:normal;font-weight:normal;font-stretch:normal;letter-spacing:normal;word-spacing:normal;text-anchor:start;fill:none;stroke:#b3b3b3;stroke-width:1;stroke-linecap:butt;stroke-linejoin:miter;stroke-miterlimit:10.43299961;stroke-opacity:1;stroke-dasharray:none;stroke-dashoffset:0"
     id="polyline47"
     points="258.55,489.15 258.03,489.87 257.57,490.6 257.15,491.32 256.78,492.04 256.44,492.77 256.14,493.49 255.89,494.21 255.66,494.94 255.46,495.66 255.3,496.38 255.17,497.11 255.07,497.83 254.99,498.55 254.95,499.28 254.94,500 254.95,500.72 254.99,501.45 255.07,502.17 255.17,502.89 255.3,503.62 255.46,504.34 255.66,505.06 255.89,505.79 256.14,506.51 256.44,507.23 256.78,507.96 257.15,508.68 257.57,509.4 258.03,510.13 "
     transform="matrix(0.0017361,0,0,-0.0017361,-0.07899195,1.0400867)" />
  <polyline
     style="font-style:normal;font-variant:normal;font-weight:normal;font-stretch:normal;letter-spacing:normal;word-spacing:normal;text-anchor:start;fill:none;stroke:#b3b3b3;stroke-width:1;stroke-linecap:butt;stroke-linejoin:miter;stroke-miterlimit:10.43299961;stroke-opacity:1;stroke-dasharray:none;stroke-dashoffset:0"
     id="polyline49"
     points="277.27,491.07 276.86,491.66 276.48,492.26 276.14,492.86 275.84,493.45 275.57,494.05 275.32,494.64 275.11,495.24 274.93,495.83 274.77,496.43 274.63,497.02 274.53,497.62 274.44,498.21 274.38,498.81 274.35,499.41 274.34,500 274.35,500.59 274.38,501.19 274.44,501.79 274.53,502.38 274.63,502.98 274.77,503.57 274.93,504.17 275.11,504.76 275.32,505.36 275.57,505.95 275.84,506.55 276.14,507.14 276.48,507.74 276.86,508.34 "
     transform="matrix(0.0017361,0,0,-0.0017361,-0.07899195,1.0400867)" />
  <polyline
     style="font-style:normal;font-variant:normal;font-weight:normal;font-stretch:normal;letter-spacing:normal;word-spacing:normal;text-anchor:start;fill:none;stroke:#b3b3b3;stroke-width:1;stroke-linecap:butt;stroke-linejoin:miter;stroke-miterlimit:10.43299961;stroke-opacity:1;stroke-dasharray:none;stroke-dashoffset:0"
     id="polyline51"
     points="278.35,491.15 278.89,491.74 279.37,492.33 279.8,492.92 280.17,493.51 280.5,494.1 280.79,494.69 281.05,495.28 281.27,495.87 281.46,496.46 281.61,497.05 281.74,497.64 281.84,498.23 281.91,498.82 281.95,499.41 281.96,500 281.95,500.59 281.91,501.18 281.84,501.77 281.74,502.36 281.61,502.95 281.46,503.54 281.27,504.13 281.05,504.72 280.79,505.31 280.5,505.9 280.17,506.49 279.8,507.08 279.37,507.67 278.89,508.26 "
     transform="matrix(0.0017361,0,0,-0.0017361,-0.07899195,1.0400867)" />
  <polyline
     style="font-style:normal;font-variant:normal;font-weight:normal;font-stretch:normal;letter-spacing:normal;word-spacing:normal;text-anchor:start;fill:none;stroke:#b3b3b3;stroke-width:1;stroke-linecap:butt;stroke-linejoin:miter;stroke-miterlimit:10.43299961;stroke-opacity:1;stroke-dasharray:none;stroke-dashoffset:0"
     id="polyline53"
     points="286.07,491.76 286.61,492.31 287.09,492.86 287.52,493.41 287.89,493.96 288.21,494.51 288.5,495.06 288.75,495.61 288.97,496.16 289.15,496.71 289.3,497.25 289.43,497.8 289.52,498.35 289.59,498.9 289.63,499.45 289.64,500 289.63,500.55 289.59,501.1 289.52,501.65 289.43,502.2 289.3,502.75 289.15,503.29 288.97,503.84 288.75,504.39 288.5,504.94 288.21,505.49 287.89,506.04 287.52,506.59 287.09,507.14 286.61,507.69 286.07,508.24 "
     transform="matrix(0.0017361,0,0,-0.0017361,-0.07899195,1.0400867)" />
  <polyline
     style="font-style:normal;font-variant:normal;font-weight:normal;font-stretch:normal;letter-spacing:normal;word-spacing:normal;text-anchor:start;fill:none;stroke:#b3b3b3;stroke-width:1;stroke-linecap:butt;stroke-linejoin:miter;stroke-miterlimit:10.43299961;stroke-opacity:1;stroke-dasharray:none;stroke-dashoffset:0"
     id="polyline55"
     points="290.46,488.46 290.74,489.23 291,490 291.23,490.77 291.45,491.54 291.64,492.3 291.82,493.07 291.98,493.84 292.12,494.61 292.24,495.38 292.34,496.15 292.42,496.92 292.48,497.69 292.53,498.46 292.55,499.23 292.56,500 292.55,500.77 292.53,501.54 292.48,502.31 292.42,503.08 292.34,503.85 292.24,504.62 292.12,505.39 291.98,506.16 291.82,506.93 291.64,507.7 291.45,508.46 291.23,509.23 291,510 290.74,510.77 290.46,511.54 "
     transform="matrix(0.0017361,0,0,-0.0017361,-0.07899195,1.0400867)" />
  <polyline
     style="font-style:normal;font-variant:normal;font-weight:normal;font-stretch:normal;letter-spacing:normal;word-spacing:normal;text-anchor:start;fill:none;stroke:#b3b3b3;stroke-width:1;stroke-linecap:butt;stroke-linejoin:miter;stroke-miterlimit:10.43299961;stroke-opacity:1;stroke-dasharray:none;stroke-dashoffset:0"
     id="polyline57"
     points="686.6,401 685.52,407.6 684.51,414.2 683.58,420.8 682.72,427.4 681.95,434 681.24,440.6 680.61,447.2 680.05,453.8 679.57,460.4 679.16,467 678.83,473.6 678.57,480.2 678.39,486.8 678.28,493.4 678.24,500 678.28,506.6 678.39,513.2 678.57,519.8 678.83,526.4 679.16,533 679.57,539.6 680.05,546.2 680.61,552.8 681.24,559.4 681.95,566 682.72,572.6 683.58,579.2 684.51,585.8 685.52,592.4 686.6,599 "
     transform="matrix(0.0017361,0,0,-0.0017361,-0.07899195,1.0400867)" />
  <polyline
     style="font-style:normal;font-variant:normal;font-weight:normal;font-stretch:normal;letter-spacing:normal;word-spacing:normal;text-anchor:start;fill:none;stroke:#b3b3b3;stroke-width:1;stroke-linecap:butt;stroke-linejoin:miter;stroke-miterlimit:10.43299961;stroke-opacity:1;stroke-dasharray:none;stroke-dashoffset:0"
     id="polyline59"
     points="697.76,401 698.34,407.6 698.88,414.2 699.37,420.8 699.83,427.4 700.25,434 700.63,440.6 700.97,447.2 701.27,453.8 701.52,460.4 701.74,467 701.92,473.6 702.06,480.2 702.16,486.8 702.22,493.4 702.24,500 702.22,506.6 702.16,513.2 702.06,519.8 701.92,526.4 701.74,533 701.52,539.6 701.27,546.2 700.97,552.8 700.63,559.4 700.25,566 699.83,572.6 699.37,579.2 698.88,585.8 698.34,592.4 697.76,599 "
     transform="matrix(0.0017361,0,0,-0.0017361,-0.07899195,1.0400867)" />
  <polyline
     style="font-style:normal;font-variant:normal;font-weight:normal;font-stretch:normal;letter-spacing:normal;word-spacing:normal;text-anchor:start;fill:none;stroke:#b3b3b3;stroke-width:1;stroke-linecap:butt;stroke-linejoin:miter;stroke-miterlimit:10.43299961;stroke-opacity:1;stroke-dasharray:none;stroke-dashoffset:0"
     id="polyline61"
     points="709.96,401 709.96,407.6 709.96,414.2 709.96,420.8 709.96,427.4 709.96,434 709.96,440.6 709.96,447.2 709.96,453.8 709.96,460.4 709.96,467 709.96,473.6 709.96,480.2 709.96,486.8 709.96,493.4 709.96,500 709.96,506.6 709.96,513.2 709.96,519.8 709.96,526.4 709.96,533 709.96,539.6 709.96,546.2 709.96,552.8 709.96,559.4 709.96,566 709.96,572.6 709.96,579.2 709.96,585.8 709.96,592.4 709.96,599 "
     transform="matrix(0.0017361,0,0,-0.0017361,-0.07899195,1.0400867)" />
  <polyline
     style="font-style:normal;font-variant:normal;font-weight:normal;font-stretch:normal;letter-spacing:normal;word-spacing:normal;text-anchor:start;fill:none;stroke:#ffb3b3;stroke-width:2;stroke-linecap:butt;stroke-linejoin:miter;stroke-miterlimit:10.43299961;stroke-opacity:1;stroke-dasharray:none;stroke-dashoffset:0"
     id="polyline65"
     points="100,499.6 100,499.6 100.68,499.6 101.16,499.6 103.54,499.6 113.55,499.45 113.95,499.45 128.51,499.5 128.92,499.5 141.28,499.63 141.69,499.64 146.13,499.7 177.17,500.08 177.57,500.09 197.05,500.34 201.7,500.39 221.17,500.64 222,500.66 245.31,500.73 249.73,500.75 254.96,500.95 274.38,501.08 281.88,501.45 289.46,502.01 292.49,502.2 678.8,525.73 701.93,526.24 709.96,526.41 1354.8,535.38 2954.4,569.17 "
     transform="matrix(0.0017361,0,0,-0.0017361,-0.07899195,1.0400867)" />
  <polyline
     style="font-style:normal;font-variant:normal;font-weight:normal;font-stretch:normal;letter-spacing:normal;word-spacing:normal;text-anchor:start;fill:none;stroke:#b3ffb3;stroke-width:2;stroke-linecap:butt;stroke-linejoin:miter;stroke-miterlimit:10.43299961;stroke-opacity:1;stroke-dasharray:none;stroke-dashoffset:0"
     id="polyline67"
     points="100,499.6 100,499.6 100.68,500.18 101.16,500.6 103.05,502.22 110.31,507.85 112.33,509.09 122.35,514.35 128.18,516.23 137.3,518.41 141.37,518.94 150.31,519.78 172.4,522.56 180.46,522.25 193.55,520.86 207.21,520.13 220.23,519.82 229.74,518.98 245.07,513.43 254.18,510.34 258.32,510.54 276.01,506.89 280.05,506.68 286.34,507.98 291.41,508.63 679.11,532.06 701.76,532.47 709.96,532.56 1354.8,537.23 2954.7,554.84 "
     transform="matrix(0.0017361,0,0,-0.0017361,-0.07899195,1.0400867)" />
  <polyline
     style="font-style:normal;font-variant:normal;font-weight:normal;font-stretch:normal;letter-spacing:normal;word-spacing:normal;text-anchor:start;fill:none;stroke:#ffb3b3;stroke-width:2;stroke-linecap:butt;stroke-linejoin:miter;stroke-miterlimit:10.43299961;stroke-opacity:1;stroke-dasharray:none;stroke-dashoffset:0"
     id="polyline69"
     points="100,500.4 100,500.4 100.68,500.4 101.16,500.4 103.54,500.4 113.55,500.55 113.95,500.55 128.51,500.5 128.92,500.5 141.28,500.37 141.69,500.36 146.13,500.3 177.17,499.92 177.57,499.91 197.05,499.66 201.7,499.61 221.17,499.36 222,499.34 245.31,499.27 249.73,499.25 254.96,499.05 274.38,498.92 281.88,498.55 289.46,497.99 292.49,497.8 678.8,474.27 701.93,473.76 709.96,473.59 1354.8,464.62 2954.4,430.83 "
     transform="matrix(0.0017361,0,0,-0.0017361,-0.07899195,1.0400867)" />
  <polyline
     style="font-style:normal;font-variant:normal;font-weight:normal;font-stretch:normal;letter-spacing:normal;word-spacing:normal;text-anchor:start;fill:none;stroke:#b3ffb3;stroke-width:2;stroke-linecap:butt;stroke-linejoin:miter;stroke-miterlimit:10.43299961;stroke-opacity:1;stroke-dasharray:none;stroke-dashoffset:0"
     id="polyline71"
     points="100,500.4 100,500.4 100.68,500.98 101.16,501.4 102.74,502.75 109.69,508.43 112.06,509.79 121.81,514.84 128.15,516.65 137.21,518.62 141.37,519.01 150.25,519.65 172.67,521.94 180.25,521.41 193.94,519.7 206.46,518.8 220.38,518.15 228.17,517.22 245.14,511.45 252.91,508.98 257.2,508.77 275.16,504.9 281.32,503.98 288.79,504.3 292.28,504.31 678.56,480.67 702.06,480.05 709.96,479.8 1354.8,466.57 2954,416.7 "
     transform="matrix(0.0017361,0,0,-0.0017361,-0.07899195,1.0400867)" />
  <polyline
     style="font-style:normal;font-variant:normal;font-weight:normal;font-stretch:normal;letter-spacing:normal;word-spacing:normal;text-anchor:start;fill:none;stroke:#b3b3b3;stroke-width:1;stroke-linecap:butt;stroke-linejoin:miter;stroke-miterlimit:10.43299961;stroke-opacity:1;stroke-dasharray:none;stroke-dashoffset:0"
     id="polyline75"
     points="100,292.08 100,292.61 100,293.14 100,293.66 100,294.19 100,294.72 100,295.25 100,295.78 100,296.3 100,296.83 100,297.36 100,297.89 100,298.41 100,298.95 100,299.47 100,300 100,300.53 100,301.05 100,301.59 100,302.11 100,302.64 100,303.17 100,303.7 100,304.22 100,304.75 100,305.28 100,305.81 100,306.34 100,306.86 100,307.39 100,307.92 "
     transform="matrix(0.0017361,0,0,-0.0017361,-0.07899195,1.0400867)" />
  <polyline
     style="font-style:normal;font-variant:normal;font-weight:normal;font-stretch:normal;letter-spacing:normal;word-spacing:normal;text-anchor:start;fill:none;stroke:#b3b3b3;stroke-width:1;stroke-linecap:butt;stroke-linejoin:miter;stroke-miterlimit:10.43299961;stroke-opacity:1;stroke-dasharray:none;stroke-dashoffset:0"
     id="polyline77"
     points="113.6,246.54 113.6,250.1 113.6,253.67 113.6,257.23 113.6,260.8 113.6,264.36 113.6,267.93 113.6,271.49 113.6,275.05 113.6,278.62 113.6,282.18 113.6,285.74 113.6,289.31 113.6,292.87 113.6,296.44 113.6,300 113.6,303.56 113.6,307.13 113.6,310.69 113.6,314.26 113.6,317.82 113.6,321.38 113.6,324.95 113.6,328.51 113.6,332.07 113.6,335.64 113.6,339.2 113.6,342.77 113.6,346.33 113.6,349.89 113.6,353.46 "
     transform="matrix(0.0017361,0,0,-0.0017361,-0.07899195,1.0400867)" />
  <path
     style="fill:none;stroke:#ffb3b3;stroke-width:0.00347222;stroke-linecap:butt;stroke-linejoin:miter;stroke-miterlimit:4;stroke-opacity:1;stroke-dasharray:none"
     d="m 0.09551835,0.50496542 0.21474217,-0.001187"
     id="path3976-9"
     inkscape:connector-curvature="0"
     sodipodi:nodetypes="cc" />
  <path
     style="font-style:normal;font-variant:normal;font-weight:normal;font-stretch:normal;letter-spacing:normal;word-spacing:normal;text-anchor:start;fill:none;stroke:#b3b3b3;stroke-width:0.0017361;stroke-linecap:butt;stroke-linejoin:miter;stroke-miterlimit:10.43299961;stroke-opacity:1;stroke-dashoffset:0"
     d="m 0.13489557,0.63842256 0,-0.009167 0,-0.009167 0,-0.009167 0,-0.009167 0,-0.009167 0,-0.009167 0,-0.009167 0,-0.009167 0,-0.009167 0,-0.009167 0,-0.009167 0,-0.009167 0,-0.009167 0,-0.009167 0,-0.009167 0,-0.009167 0,-0.009167 0,-0.009167 0,-0.009167 0,-0.009167 0,-0.009167 0,-0.009167 0,-0.009167 0,-0.009167 0,-0.009167 0,-0.009167"
     id="polyline79"
     inkscape:connector-curvature="0"
     sodipodi:nodetypes="ccccccccccccccccccccccccccc" />
  <path
     style="fill:#b3ffb3;fill-opacity:1;stroke:#b3ffb3;stroke-width:0.00347222;stroke-linecap:butt;stroke-linejoin:miter;stroke-miterlimit:4;stroke-opacity:1;stroke-dasharray:none"
     d="m 0.09611151,0.53195654 0.10410848,-0.090168 0.0459738,-0.0349995"
     id="path3996-6"
     inkscape:connector-curvature="0"
     sodipodi:nodetypes="ccc" />
  <path
     style="font-style:normal;font-variant:normal;font-weight:normal;font-stretch:normal;letter-spacing:normal;word-spacing:normal;text-anchor:start;fill:none;stroke:#b3b3b3;stroke-width:0.0017361;stroke-linecap:butt;stroke-linejoin:miter;stroke-miterlimit:10.43299961;stroke-opacity:1;stroke-dashoffset:0"
     d="m 0.16166623,0.64795375 0.009948,-0.009896 0.008524,-0.009896 0.007326,-0.009913 0.006337,-0.009896 0.005451,-0.009896 0.004653,-0.009896 0.003906,-0.009913 0.003264,-0.009896 0.002604,-0.009896 0.001997,-0.009896 0.001424,-0.009896 8.5069e-4,-0.009913 2.7778e-4,-0.009896 -2.7778e-4,-0.009896 -8.5069e-4,-0.009913 -0.001424,-0.009896 -0.001997,-0.009896 -0.002604,-0.009896 -0.003264,-0.009896 -0.003906,-0.009913 -0.004653,-0.009896 -0.005451,-0.009896 -0.006337,-0.009896 -0.007326,-0.009913 -0.008524,-0.009896 -0.009948,-0.009896"
     id="polyline81"
     inkscape:connector-curvature="0"
     sodipodi:nodetypes="ccccccccccccccccccccccccccc" />
  <path
     style="fill:#b3ffb3;fill-opacity:1;stroke:#b3ffb3;stroke-width:0.00347222;stroke-linecap:butt;stroke-linejoin:miter;stroke-miterlimit:4;stroke-opacity:1;stroke-dasharray:none"
     d="m 0.09551833,0.50466887 0.0940239,-0.081863 0.0317367,-0.0261014"
     id="path3996-6-9"
     inkscape:connector-curvature="0"
     sodipodi:nodetypes="ccc" />
  <path
     style="font-style:normal;font-variant:normal;font-weight:normal;font-stretch:normal;letter-spacing:normal;word-spacing:normal;text-anchor:start;fill:none;stroke:#999999;stroke-width:0.0034722;stroke-linecap:butt;stroke-linejoin:miter;stroke-miterlimit:10.43299961;stroke-opacity:1;stroke-dashoffset:0"
     d="M 0.05121555,0.5150621 0.08593754,0.1720367"
     id="line139"
     inkscape:connector-curvature="0"
     sodipodi:nodetypes="cc" />
  <path
     style="font-style:normal;font-variant:normal;font-weight:normal;font-stretch:normal;letter-spacing:normal;word-spacing:normal;text-anchor:start;fill:none;stroke:#999999;stroke-width:0.0034722;stroke-linecap:butt;stroke-linejoin:miter;stroke-miterlimit:10.43299961;stroke-opacity:1;stroke-dashoffset:0"
     d="m 0.29253346,0.45107112 -0.138888,-0.2269514"
     id="line141"
     inkscape:connector-curvature="0"
     sodipodi:nodetypes="cc" />
  <path
     style="fill:none;stroke:#ffb3b3;stroke-width:0.00347222;stroke-linecap:butt;stroke-linejoin:miter;stroke-miterlimit:4;stroke-opacity:1;stroke-dasharray:none"
     d="m 0.09462865,0.53344006 0.21533555,0.001186"
     id="path3976"
     inkscape:connector-curvature="0"
     sodipodi:nodetypes="cc" />
  <path
     style="font-style:normal;font-variant:normal;font-weight:normal;font-stretch:normal;letter-spacing:normal;word-spacing:normal;text-anchor:start;fill:none;stroke:#999999;stroke-width:0.0034722;stroke-linecap:butt;stroke-linejoin:miter;stroke-miterlimit:10.43299961;stroke-opacity:1;stroke-dasharray:none;stroke-dashoffset:0"
     inkscape:connector-curvature="0"
     id="path73"
     d="m 0.31163055,0.51925671 -1.7361e-4,-0.006701 -5.0347e-4,-0.006615 -8.1597e-4,-0.00651 -0.001146,-0.006406 -0.001458,-0.006302 -0.001753,-0.006181 -0.002049,-0.006059 -0.002326,-0.005903 -0.002622,-0.005764 -0.002865,-0.005625 -0.003142,-0.005451 -0.003385,-0.005278 -0.003628,-0.005104 -0.003871,-0.004931 -0.00408,-0.004722 -0.004323,-0.004514 -0.004514,-0.004323 -0.004722,-0.00408 -0.004931,-0.003872 -0.005104,-0.003628 -0.005278,-0.003385 -0.005451,-0.003142 -0.005625,-0.002865 -0.005764,-0.002622 -0.005903,-0.002326 -0.006059,-0.002049 -0.006181,-0.001753 -0.006302,-0.001458 -0.006406,-0.001146 -0.00651,-8.1597e-4 -0.006615,-5.0347e-4 -0.006701,-1.7361e-4 c -0.0719093,0 -0.1302075,0.0582982 -0.1302075,0.1302075 0,0.0719093 0.05829824,0.1302075 0.1302075,0.1302075 0.0719093,0 0.1302075,-0.0582982 0.1302075,-0.1302075 z" />
</svg>
