<?xml version="1.0" encoding="UTF-8" standalone="no"?>
<!-- Created with Inkscape (http://www.inkscape.org/) -->

<svg
   xmlns:dc="http://purl.org/dc/elements/1.1/"
   xmlns:cc="http://creativecommons.org/ns#"
   xmlns:rdf="http://www.w3.org/1999/02/22-rdf-syntax-ns#"
   xmlns:svg="http://www.w3.org/2000/svg"
   xmlns="http://www.w3.org/2000/svg"
   xmlns:sodipodi="http://sodipodi.sourceforge.net/DTD/sodipodi-0.dtd"
   xmlns:inkscape="http://www.inkscape.org/namespaces/inkscape"
   width="149.38"
   height="189.875"
   id="svg2"
   version="1.1"
   inkscape:version="0.48.2 r9819"
   sodipodi:docname="memi-real.svg">
  <defs
     id="defs4">
    <inkscape:perspective
       sodipodi:type="inkscape:persp3d"
       inkscape:vp_x="0 : 526.18109 : 1"
       inkscape:vp_y="0 : 1000 : 0"
       inkscape:vp_z="744.09448 : 526.18109 : 1"
       inkscape:persp3d-origin="372.04724 : 350.78739 : 1"
       id="perspective3880" />
  </defs>
  <sodipodi:namedview
     id="base"
     pagecolor="#ffffff"
     bordercolor="#666666"
     borderopacity="1.0"
     inkscape:pageopacity="0.0"
     inkscape:pageshadow="2"
     inkscape:zoom="1.979899"
     inkscape:cx="62.70917"
     inkscape:cy="34.402109"
     inkscape:document-units="px"
     inkscape:current-layer="layer1"
     showgrid="true"
     inkscape:window-width="1364"
     inkscape:window-height="751"
     inkscape:window-x="0"
     inkscape:window-y="15"
     inkscape:window-maximized="0"
     fit-margin-top="0"
     fit-margin-left="0"
     fit-margin-right="0"
     fit-margin-bottom="0">
    <inkscape:grid
       type="xygrid"
       id="grid2985"
       empspacing="5"
       visible="true"
       enabled="true"
       snapvisiblegridlinesonly="true" />
  </sodipodi:namedview>
  <metadata
     id="metadata7">
    <rdf:RDF>
      <cc:Work
         rdf:about="">
        <dc:format>image/svg+xml</dc:format>
        <dc:type
           rdf:resource="http://purl.org/dc/dcmitype/StillImage" />
        <dc:title></dc:title>
      </cc:Work>
    </rdf:RDF>
  </metadata>
  <g
     inkscape:label="Layer 1"
     inkscape:groupmode="layer"
     id="layer1"
     transform="translate(-84.6875,-380.5)">
    <rect
       style="fill:none;stroke:#000000;stroke-width:0.63900965;stroke-opacity:1"
       id="rect2993"
       width="10"
       height="98"
       x="90"
       y="432.36218" />
    <g
       id="g3831"
       transform="matrix(1,0,0,-1,0,1221.658)">
      <path
         inkscape:connector-curvature="0"
         id="path3763"
         d="m 85,682.36218 c 20,0 20,0 20,0"
         style="fill:none;stroke:#000000;stroke-width:1px;stroke-linecap:butt;stroke-linejoin:miter;stroke-opacity:1" />
      <g
         transform="translate(0,1.621193)"
         id="g3824">
        <path
           sodipodi:type="arc"
           style="fill:#000000;fill-opacity:1;stroke:#000000;stroke-width:0.64886314;stroke-linecap:butt;stroke-miterlimit:4;stroke-opacity:1;stroke-dasharray:none;stroke-dashoffset:0"
           id="path3765"
           sodipodi:cx="67.5"
           sodipodi:cy="684.86218"
           sodipodi:rx="7.5"
           sodipodi:ry="7.5"
           d="m 75,684.86218 a 7.5,7.5 0 1 1 -15,0 l 7.5,0 z"
           sodipodi:start="0"
           sodipodi:end="3.1415927"
           transform="matrix(0.15834235,0,0,-0.15000188,79.311891,783.0928)" />
        <path
           sodipodi:type="arc"
           style="fill:#000000;fill-opacity:1;stroke:#000000;stroke-width:0.64886314;stroke-linecap:butt;stroke-miterlimit:4;stroke-opacity:1;stroke-dasharray:none;stroke-dashoffset:0"
           id="path3765-6"
           sodipodi:cx="67.5"
           sodipodi:cy="684.86218"
           sodipodi:rx="7.5"
           sodipodi:ry="7.5"
           d="m 75,684.86218 a 7.5,7.5 0 1 1 -15,0 l 7.5,0 z"
           sodipodi:start="0"
           sodipodi:end="3.1415927"
           transform="matrix(0.15834235,0,0,-0.15000188,82.06189,783.0928)" />
        <path
           sodipodi:type="arc"
           style="fill:#000000;fill-opacity:1;stroke:#000000;stroke-width:0.64886314;stroke-linecap:butt;stroke-miterlimit:4;stroke-opacity:1;stroke-dasharray:none;stroke-dashoffset:0"
           id="path3765-7"
           sodipodi:cx="67.5"
           sodipodi:cy="684.86218"
           sodipodi:rx="7.5"
           sodipodi:ry="7.5"
           d="m 75,684.86218 a 7.5,7.5 0 1 1 -15,0 l 7.5,0 z"
           sodipodi:start="0"
           sodipodi:end="3.1415927"
           transform="matrix(0.15834235,0,0,-0.15000188,84.811891,783.0928)" />
        <path
           sodipodi:type="arc"
           style="fill:#000000;fill-opacity:1;stroke:#000000;stroke-width:0.64886314;stroke-linecap:butt;stroke-miterlimit:4;stroke-opacity:1;stroke-dasharray:none;stroke-dashoffset:0"
           id="path3765-75"
           sodipodi:cx="67.5"
           sodipodi:cy="684.86218"
           sodipodi:rx="7.5"
           sodipodi:ry="7.5"
           d="m 75,684.86218 a 7.5,7.5 0 1 1 -15,0 l 7.5,0 z"
           sodipodi:start="0"
           sodipodi:end="3.1415927"
           transform="matrix(0.15834235,0,0,-0.15000188,87.561891,783.0928)" />
        <path
           sodipodi:type="arc"
           style="fill:#000000;fill-opacity:1;stroke:#000000;stroke-width:0.64886314;stroke-linecap:butt;stroke-miterlimit:4;stroke-opacity:1;stroke-dasharray:none;stroke-dashoffset:0"
           id="path3765-9"
           sodipodi:cx="67.5"
           sodipodi:cy="684.86218"
           sodipodi:rx="7.5"
           sodipodi:ry="7.5"
           d="m 75,684.86218 a 7.5,7.5 0 1 1 -15,0 l 7.5,0 z"
           sodipodi:start="0"
           sodipodi:end="3.1415927"
           transform="matrix(0.15834235,0,0,-0.15000188,90.311891,783.0928)" />
      </g>
    </g>
    <path
       style="fill:none;stroke:#000000;stroke-width:1px;stroke-linecap:butt;stroke-linejoin:miter;stroke-opacity:1"
       d="m 90,570.36218 0,-30"
       id="path3842"
       inkscape:connector-curvature="0" />
    <path
       style="fill:none;stroke:#000000;stroke-width:1px;stroke-linecap:butt;stroke-linejoin:miter;stroke-opacity:1"
       d="m 100,570.36218 0,-30"
       id="path3844"
       inkscape:connector-curvature="0" />
    <path
       style="fill:none;stroke:#000000;stroke-width:1px;stroke-linecap:butt;stroke-linejoin:miter;stroke-opacity:1"
       d="m 92,539.36218 8,-29 -10,-35"
       id="path3846"
       inkscape:connector-curvature="0" />
    <path
       style="fill:none;stroke:#000000;stroke-width:1px;stroke-linecap:butt;stroke-linejoin:miter;stroke-opacity:1"
       d="m 94,539.36218 -4,-17 9.553572,-24.76786 L 94,478.36218"
       id="path3848"
       inkscape:connector-curvature="0" />
    <path
       style="fill:none;stroke:#000000;stroke-width:1px;stroke-linecap:butt;stroke-linejoin:miter;stroke-opacity:1"
       d="m 94.598215,539.78182 5.446425,-18.16964 -5.892854,-14.73214"
       id="path3852"
       inkscape:connector-curvature="0" />
    <path
       style="fill:none;stroke:#000000;stroke-width:1px;stroke-linecap:butt;stroke-linejoin:miter;stroke-opacity:1"
       d="M 96.383929,539.55861 90.3125,514.20147 94.151786,502.50504"
       id="path3854"
       inkscape:connector-curvature="0" />
    <path
       style="fill:none;stroke:#000000;stroke-width:0.1;stroke-linecap:butt;stroke-linejoin:miter;stroke-miterlimit:4;stroke-opacity:1;stroke-dasharray:none"
       d="m 120,412.36218 0,-2"
       id="path3884"
       inkscape:connector-curvature="0" />
    <path
       style="fill:#00c9ea;fill-opacity:1;stroke:#000000;stroke-width:0.1;stroke-linecap:butt;stroke-linejoin:miter;stroke-miterlimit:4;stroke-opacity:1;stroke-dasharray:none"
       d="m 95,432.36218 -5,-25 25,-25 10,0 -25,25 z"
       id="path3895"
       inkscape:connector-curvature="0" />
    <path
       style="fill:#00c9ea;fill-opacity:1;stroke:#000000;stroke-width:0.1;stroke-linecap:butt;stroke-linejoin:miter;stroke-miterlimit:4;stroke-opacity:1;stroke-dasharray:none"
       d="m 145,432.36218 5,-25 -25,-25 -10,0 25,25 z"
       id="path3895-5"
       inkscape:connector-curvature="0" />
    <path
       style="fill:none;stroke:#000000;stroke-width:1px;stroke-linecap:butt;stroke-linejoin:miter;stroke-opacity:1"
       d="m 105,380.98714 30,0"
       id="path3886"
       inkscape:connector-curvature="0"
       sodipodi:nodetypes="cc" />
    <path
       style="fill:none;stroke:#000000;stroke-width:0.60000002;stroke-linecap:butt;stroke-miterlimit:4;stroke-opacity:1;stroke-dasharray:none;stroke-dashoffset:0"
       d="m 155,406.66739 c -11.12559,-1.03456 -22.87908,-1.60521 -35,-1.60521 -12.14558,0 -23.871445,0.56661 -35.000002,1.60521 l 0,1.38958 c 11.128557,1.0386 22.854422,1.60521 35.000002,1.60521 12.12092,0 23.87441,-0.57066 35,-1.60521 l 0,-1.38958 z"
       id="path3856"
       inkscape:connector-curvature="0" />
    <path
       style="fill:none;stroke:#000000;stroke-width:1px;stroke-linecap:butt;stroke-linejoin:miter;stroke-opacity:1"
       d="m 140,432.36218 -10,0"
       id="path3923"
       inkscape:connector-curvature="0"
       sodipodi:nodetypes="cc" />
    <path
       style="fill:#00c9be;stroke:#000000;stroke-width:0.10000000000000001;stroke-linecap:butt;stroke-linejoin:miter;stroke-miterlimit:4;stroke-opacity:1;stroke-dasharray:none;fill-opacity:1"
       d="m 226.03474,534.46429 -6.88298,-5 -59,0 -28,5 28,5 59,0 z"
       id="path4033-4"
       inkscape:connector-curvature="0"
       sodipodi:nodetypes="ccccccc" />
    <path
       style="fill:#00c9ea;fill-opacity:1;stroke:#000000;stroke-width:0.1;stroke-linecap:butt;stroke-linejoin:miter;stroke-miterlimit:4;stroke-opacity:1;stroke-dasharray:none"
       d="M 60.3125 51.875 L 55.3125 79.875 L 55.3125 138.875 L 58.375 156.09375 L 63.0625 151.40625 L 65.3125 138.875 L 65.3125 79.875 L 60.3125 51.875 z "
       transform="translate(84.6875,380.5)"
       id="path4033" />
    <path
       style="fill:none;stroke:#000000;stroke-width:1px;stroke-linecap:butt;stroke-linejoin:miter;stroke-opacity:1"
       d="m 150,432.36218 10,0"
       id="path3925"
       inkscape:connector-curvature="0" />
    <path
       style="fill:none;stroke:#000000;stroke-width:1px;stroke-linecap:butt;stroke-linejoin:miter;stroke-opacity:1"
       d="m 140,430.36218 0,4"
       id="path3927"
       inkscape:connector-curvature="0" />
    <path
       style="fill:none;stroke:#000000;stroke-width:1px;stroke-linecap:butt;stroke-linejoin:miter;stroke-opacity:1"
       d="m 150,430.36218 0,4"
       id="path3929"
       inkscape:connector-curvature="0" />
    <path
       style="fill:none;stroke:#000000;stroke-width:0.40000001px;stroke-linecap:butt;stroke-linejoin:miter;stroke-opacity:1"
       d="m 114.11597,381.91933 c 2,0.8 2,0.8 2,0.8"
       id="path3931"
       inkscape:connector-curvature="0" />
    <path
       style="fill:none;stroke:#000000;stroke-width:0.40000001px;stroke-linecap:butt;stroke-linejoin:miter;stroke-opacity:1"
       d="m 116.11597,381.91933 2,0.8"
       id="path3933"
       inkscape:connector-curvature="0" />
    <path
       style="fill:none;stroke:#000000;stroke-width:0.40000001px;stroke-linecap:butt;stroke-linejoin:miter;stroke-opacity:1"
       d="m 118.11597,381.91933 2,0.8"
       id="path3935"
       inkscape:connector-curvature="0" />
    <path
       style="fill:none;stroke:#000000;stroke-width:0.40000001px;stroke-linecap:butt;stroke-linejoin:miter;stroke-opacity:1"
       d="m 119.90283,382.0467 c 2.15406,0.003 2.15406,0.003 2.15406,0.003"
       id="path3931-3"
       inkscape:connector-curvature="0" />
    <path
       style="fill:none;stroke:#000000;stroke-width:0.40000001px;stroke-linecap:butt;stroke-linejoin:miter;stroke-opacity:1"
       d="m 121.97986,382.0467 c 2.15406,0.003 2.15406,0.003 2.15406,0.003"
       id="path3931-3-3"
       inkscape:connector-curvature="0" />
    <path
       style="fill:none;stroke:#000000;stroke-width:0.40000001px;stroke-linecap:butt;stroke-linejoin:miter;stroke-opacity:1"
       d="m 123.90283,382.0467 c 2.15406,0.003 2.15406,0.003 2.15406,0.003"
       id="path3931-3-33"
       inkscape:connector-curvature="0" />
    <path
       style="fill:none;stroke:#000000;stroke-width:0.60000002;stroke-linecap:butt;stroke-linejoin:miter;stroke-miterlimit:4;stroke-opacity:1;stroke-dasharray:0.6, 1.2;stroke-dashoffset:0"
       d="m 120,382.36218 25,25 -7,25 -1,-25 -22,-25 z"
       id="path3995"
       inkscape:connector-curvature="0" />
    <path
       style="fill:none;stroke:#000000;stroke-width:0.60000002;stroke-linecap:butt;stroke-miterlimit:4;stroke-opacity:1;stroke-dasharray:none;stroke-dashoffset:0"
       d="M 159.86774,459.27919 C 155.14167,458.21416 150.14888,457.6267 145,457.6267 c -5.15935,0 -10.14041,0.5833 -14.86774,1.65249 l 0,1.4305 c 4.72733,1.06919 9.70839,1.65249 14.86774,1.65249 5.14888,0 10.14167,-0.58747 14.86774,-1.65249 l 0,-1.4305 z"
       id="path3856-9"
       inkscape:connector-curvature="0" />
    <path
       style="fill:none;stroke:#000000;stroke-width:0.60000002;stroke-linecap:butt;stroke-miterlimit:4;stroke-opacity:1;stroke-dasharray:none;stroke-dashoffset:0"
       d="m 159.86774,519.01467 c -4.72607,-1.06503 -9.71886,-1.65249 -14.86774,-1.65249 -5.15935,0 -10.14041,0.5833 -14.86774,1.65249 l 0,1.4305 c 4.72733,1.06919 9.70839,1.65249 14.86774,1.65249 5.14888,0 10.14167,-0.58747 14.86774,-1.65249 l 0,-1.4305 z"
       id="path3856-9-4"
       inkscape:connector-curvature="0" />
    <path
       style="fill:none;stroke:#000000;stroke-width:0.60000002;stroke-linecap:butt;stroke-linejoin:miter;stroke-miterlimit:4;stroke-opacity:1;stroke-dasharray:0.6, 1.8;stroke-dashoffset:0"
       d="m 129,490.36218 32,0"
       id="path4035"
       inkscape:connector-curvature="0" />
    <path
       inkscape:connector-curvature="0"
       style="fill:#00c946;fill-opacity:1;stroke:#000000;stroke-width:0.1;stroke-linecap:butt;stroke-linejoin:miter;stroke-miterlimit:4;stroke-opacity:1;stroke-dasharray:none"
       d="m 193.95606,482.49112 -5,28 0,18.96875 10,10 0,-28.96875 -5,-28 z"
       id="path4041-0-9" />
    <path
       style="fill:none;stroke:#000000;stroke-width:0.60000002;stroke-linecap:butt;stroke-miterlimit:4;stroke-opacity:1;stroke-dasharray:none;stroke-dashoffset:0"
       d="m 208.8238,510.13079 c -4.72607,-1.06503 -9.71886,-1.65249 -14.86774,-1.65249 -5.15935,0 -10.14041,0.5833 -14.86774,1.65249 l 0,1.4305 c 4.72733,1.06919 9.70839,1.65249 14.86774,1.65249 5.14888,0 10.14167,-0.58747 14.86774,-1.65249 l 0,-1.4305 z"
       id="path3856-9-4-5"
       inkscape:connector-curvature="0" />
    <path
       style="fill:none;stroke:#000000;stroke-width:0.60000002;stroke-linecap:butt;stroke-miterlimit:4;stroke-opacity:1;stroke-dasharray:none;stroke-dashoffset:0"
       d="m 219.08482,541.11231 c 1.06503,-2.10471 1.65249,-4.32819 1.65249,-6.62119 0,-2.29766 -0.5833,-4.51592 -1.65249,-6.62119 l -1.4305,0 c -1.06919,2.10527 -1.65249,4.32353 -1.65249,6.62119 0,2.293 0.58747,4.51648 1.65249,6.62119 l 1.4305,0 z"
       id="path3856-9-4-52"
       inkscape:connector-curvature="0" />
    <path
       style="fill:none;stroke:#000000;stroke-width:0.60000002;stroke-linecap:butt;stroke-miterlimit:4;stroke-opacity:1;stroke-dasharray:none;stroke-dashoffset:0"
       d="m 160.96871,545.75382 c 1.06503,-3.58012 1.65249,-7.36229 1.65249,-11.2627 0,-3.90834 -0.5833,-7.68162 -1.65249,-11.2627 l -1.4305,0 c -1.06919,3.58108 -1.65249,7.35436 -1.65249,11.2627 0,3.90041 0.58747,7.68258 1.65249,11.2627 l 1.4305,0 z"
       id="path3856-9-4-2"
       inkscape:connector-curvature="0" />
    <path
       style="fill:none;stroke:#000000;stroke-width:1px;stroke-linecap:butt;stroke-linejoin:miter;stroke-opacity:1"
       d="m 218.73731,541.4783 -2,4 -8,0"
       id="path4118"
       inkscape:connector-curvature="0" />
    <path
       style="fill:none;stroke:#000000;stroke-width:1px;stroke-linecap:butt;stroke-linejoin:miter;stroke-opacity:1"
       d="m 218.73731,527.4783 -2,-4 -8,0"
       id="path4118-8"
       inkscape:connector-curvature="0" />
    <path
       style="fill:none;stroke:#000000;stroke-width:0.69999999;stroke-linecap:butt;stroke-linejoin:miter;stroke-miterlimit:4;stroke-opacity:1;stroke-dasharray:none"
       d="m 150.67217,528.74165 -10,10"
       id="path4039"
       inkscape:connector-curvature="0" />
    <path
       style="fill:none;stroke:#000000;stroke-width:1px;stroke-linecap:butt;stroke-linejoin:miter;stroke-opacity:1"
       d="m 186.74746,527.36218 15,15"
       id="path4147"
       inkscape:connector-curvature="0" />
    <path
       style="fill:none;stroke:#000000;stroke-width:0.60000002;stroke-linecap:butt;stroke-linejoin:miter;stroke-miterlimit:4;stroke-opacity:1;stroke-dasharray:0.6, 1.8;stroke-dashoffset:0"
       d="m 210,527.36218 0,15"
       id="path4035-6"
       inkscape:connector-curvature="0"
       sodipodi:nodetypes="cc" />
    <path
       style="fill:none;stroke:#000000;stroke-width:1px;stroke-linecap:butt;stroke-linejoin:miter;stroke-opacity:1"
       d="m 131.6875,544.46429 0,-20"
       id="path4167"
       inkscape:connector-curvature="0" />
    <path
       style="fill:#00c9be;fill-opacity:1;stroke:#000000;stroke-width:0.1;stroke-linecap:butt;stroke-linejoin:miter;stroke-miterlimit:4;stroke-opacity:1;stroke-dasharray:none"
       d="M 234,529.59375 226.15625,534.5 234,539.40625 z"
       id="path4041-8"
       inkscape:connector-curvature="0"
       sodipodi:nodetypes="cccc" />
    <path
       style="fill:none;stroke:#000000;stroke-width:0.30000001;stroke-linecap:butt;stroke-linejoin:miter;stroke-miterlimit:4;stroke-opacity:1;stroke-dasharray:none"
       d="m 226,529 0,11"
       id="path4215"
       inkscape:connector-curvature="0" />
    <path
       style="fill:none;stroke:#000000;stroke-width:1px;stroke-linecap:butt;stroke-linejoin:miter;stroke-opacity:1"
       d="m 183.95606,482.36218 20,0"
       id="path4217"
       inkscape:connector-curvature="0" />
  </g>
</svg>
