<?xml version="1.0" encoding="UTF-8" standalone="no"?>
<!-- Created with Inkscape (http://www.inkscape.org/) -->

<svg
   xmlns:dc="http://purl.org/dc/elements/1.1/"
   xmlns:cc="http://creativecommons.org/ns#"
   xmlns:rdf="http://www.w3.org/1999/02/22-rdf-syntax-ns#"
   xmlns:svg="http://www.w3.org/2000/svg"
   xmlns="http://www.w3.org/2000/svg"
   xmlns:sodipodi="http://sodipodi.sourceforge.net/DTD/sodipodi-0.dtd"
   xmlns:inkscape="http://www.inkscape.org/namespaces/inkscape"
   width="27.6"
   height="27.6"
   id="svg2"
   version="1.1"
   inkscape:version="0.48.2 r9819"
   sodipodi:docname="slm-3big.svg">
  <defs
     id="defs4" />
  <sodipodi:namedview
     id="base"
     pagecolor="#ffffff"
     bordercolor="#666666"
     borderopacity="1.0"
     inkscape:pageopacity="0.0"
     inkscape:pageshadow="2"
     inkscape:zoom="11.2"
     inkscape:cx="20.387636"
     inkscape:cy="15.022454"
     inkscape:document-units="px"
     inkscape:current-layer="layer1"
     showgrid="true"
     units="mm"
     inkscape:window-width="1364"
     inkscape:window-height="751"
     inkscape:window-x="0"
     inkscape:window-y="15"
     inkscape:window-maximized="0"
     fit-margin-top="0"
     fit-margin-left="0"
     fit-margin-right="0"
     fit-margin-bottom="0">
    <inkscape:grid
       type="xygrid"
       id="grid2987"
       empspacing="5"
       visible="true"
       enabled="true"
       snapvisiblegridlinesonly="true" />
  </sodipodi:namedview>
  <metadata
     id="metadata7">
    <rdf:RDF>
      <cc:Work
         rdf:about="">
        <dc:format>image/svg+xml</dc:format>
        <dc:type
           rdf:resource="http://purl.org/dc/dcmitype/StillImage" />
        <dc:title />
      </cc:Work>
    </rdf:RDF>
  </metadata>
  <g
     inkscape:label="Layer 1"
     inkscape:groupmode="layer"
     id="layer1"
     transform="translate(0.30000001,-1025.0622)">
    <rect
       style="fill:#000000;stroke:#000000;stroke-width:0.60000002;stroke-linecap:butt;stroke-miterlimit:4;stroke-opacity:1;stroke-dasharray:none;stroke-dashoffset:0"
       id="rect2993"
       width="27"
       height="27"
       x="0"
       y="1.3464565"
       transform="translate(0,1024.0157)" />
    <path
       sodipodi:type="arc"
       style="fill:#999999;stroke:#000000;stroke-width:0;stroke-linecap:butt;stroke-miterlimit:4;stroke-opacity:1;stroke-dasharray:none;stroke-dashoffset:0"
       id="path2995"
       sodipodi:cx="13.5"
       sodipodi:cy="14.846457"
       sodipodi:rx="13.5"
       sodipodi:ry="13.5"
       d="m 27,14.846457 c 0,7.455844 -6.044156,13.5 -13.5,13.5 -7.4558441,0 -13.5,-6.044156 -13.5,-13.5 C 0,7.3906124 6.0441559,1.3464565 13.5,1.3464565 c 7.455844,0 13.5,6.0441559 13.5,13.5000005 z"
       transform="translate(0,1024.0157)" />
    <g
       id="g2988">
      <path
         transform="matrix(0.5,0,0,0.5,6.75,1031.4389)"
         d="m 27,14.846457 c 0,7.455844 -6.044156,13.5 -13.5,13.5 -7.4558441,0 -13.5,-6.044156 -13.5,-13.5 C 0,7.3906124 6.0441559,1.3464565 13.5,1.3464565 c 7.455844,0 13.5,6.0441559 13.5,13.5000005 z"
         sodipodi:ry="13.5"
         sodipodi:rx="13.5"
         sodipodi:cy="14.846457"
         sodipodi:cx="13.5"
         id="path2995-7"
         style="fill:#ffffff;stroke:#000000;stroke-width:0;stroke-linecap:butt;stroke-miterlimit:4;stroke-opacity:1;stroke-dasharray:none;stroke-dashoffset:0"
         sodipodi:type="arc" />
      <path
         transform="matrix(0.5,0,0,0.5,13.392856,1031.4389)"
         d="m 27,14.846457 c 0,7.455844 -6.044156,13.5 -13.5,13.5 -7.4558441,0 -13.5,-6.044156 -13.5,-13.5 C 0,7.3906124 6.0441559,1.3464565 13.5,1.3464565 c 7.455844,0 13.5,6.0441559 13.5,13.5000005 z"
         sodipodi:ry="13.5"
         sodipodi:rx="13.5"
         sodipodi:cy="14.846457"
         sodipodi:cx="13.5"
         id="path2995-7-5"
         style="fill:#ffffff;stroke:#000000;stroke-width:0;stroke-linecap:butt;stroke-miterlimit:4;stroke-opacity:1;stroke-dasharray:none;stroke-dashoffset:0"
         sodipodi:type="arc" />
      <path
         transform="matrix(0.5,0,0,0.5,0.09285729,1031.4389)"
         d="m 27,14.846457 c 0,7.455844 -6.044156,13.5 -13.5,13.5 -7.4558441,0 -13.5,-6.044156 -13.5,-13.5 C 0,7.3906124 6.0441559,1.3464565 13.5,1.3464565 c 7.455844,0 13.5,6.0441559 13.5,13.5000005 z"
         sodipodi:ry="13.5"
         sodipodi:rx="13.5"
         sodipodi:cy="14.846457"
         sodipodi:cx="13.5"
         id="path2995-7-8"
         style="fill:#ffffff;stroke:#000000;stroke-width:0;stroke-linecap:butt;stroke-miterlimit:4;stroke-opacity:1;stroke-dasharray:none;stroke-dashoffset:0"
         sodipodi:type="arc" />
    </g>
    <path
       sodipodi:type="arc"
       style="fill:none;stroke:#000000;stroke-width:0.5;stroke-linecap:butt;stroke-miterlimit:4;stroke-opacity:1;stroke-dasharray:0.5,1;stroke-dashoffset:0"
       id="path2995-7-7"
       sodipodi:cx="13.5"
       sodipodi:cy="14.846457"
       sodipodi:rx="13.5"
       sodipodi:ry="13.5"
       d="m 27,14.846457 a 13.5,13.5 0 1 1 -27,0 13.5,13.5 0 1 1 27,0 z"
       transform="matrix(0.5,0,0,0.5,6.75,1031.4389)" />
    <path
       sodipodi:type="arc"
       style="fill:none;stroke:#000000;stroke-width:0.5;stroke-linecap:butt;stroke-miterlimit:4;stroke-opacity:1;stroke-dasharray:0.5,1;stroke-dashoffset:0"
       id="path2995-7-5-7"
       sodipodi:cx="13.5"
       sodipodi:cy="14.846457"
       sodipodi:rx="13.5"
       sodipodi:ry="13.5"
       d="m 27,14.846457 a 13.5,13.5 0 1 1 -27,0 13.5,13.5 0 1 1 27,0 z"
       transform="matrix(0.5,0,0,0.5,13.392856,1031.4389)" />
    <path
       sodipodi:type="arc"
       style="fill:none;stroke:#000000;stroke-width:0.5;stroke-linecap:butt;stroke-miterlimit:4;stroke-opacity:1;stroke-dasharray:0.5,1;stroke-dashoffset:0"
       id="path2995-7-8-6"
       sodipodi:cx="13.5"
       sodipodi:cy="14.846457"
       sodipodi:rx="13.5"
       sodipodi:ry="13.5"
       d="m 27,14.846457 a 13.5,13.5 0 1 1 -27,0 13.5,13.5 0 1 1 27,0 z"
       transform="matrix(0.5,0,0,0.5,0.09285729,1031.4389)" />
  </g>
</svg>
